<?xml version="1.0" encoding="utf-8" standalone="no"?>
<!DOCTYPE svg PUBLIC "-//W3C//DTD SVG 1.1//EN"
  "http://www.w3.org/Graphics/SVG/1.1/DTD/svg11.dtd">
<!-- Created with matplotlib (https://matplotlib.org/) -->
<svg height="864pt" version="1.1" viewBox="0 0 1152 864" width="1152pt" xmlns="http://www.w3.org/2000/svg" xmlns:xlink="http://www.w3.org/1999/xlink">
 <defs>
  <style type="text/css">
*{stroke-linecap:butt;stroke-linejoin:round;}
  </style>
 </defs>
 <g id="figure_1">
  <g id="patch_1">
   <path d="M 0 864 
L 1152 864 
L 1152 0 
L 0 0 
z
" style="fill:#ffffff;"/>
  </g>
  <g id="axes_1">
   <g id="patch_2">
    <path d="M 144 768.96 
L 1036.8 768.96 
L 1036.8 103.68 
L 144 103.68 
z
" style="fill:#ffffff;"/>
   </g>
   <g id="matplotlib.axis_1">
    <g id="xtick_1">
     <g id="line2d_1">
      <defs>
       <path d="M 0 0 
L 0 3.5 
" id="mf814c1478c" style="stroke:#000000;stroke-width:0.8;"/>
      </defs>
      <g>
       <use style="stroke:#000000;stroke-width:0.8;" x="184.579967" xlink:href="#mf814c1478c" y="768.96"/>
      </g>
     </g>
     <g id="text_1">
      <!-- 0 -->
      <defs>
       <path d="M 31.78125 66.40625 
Q 24.171875 66.40625 20.328125 58.90625 
Q 16.5 51.421875 16.5 36.375 
Q 16.5 21.390625 20.328125 13.890625 
Q 24.171875 6.390625 31.78125 6.390625 
Q 39.453125 6.390625 43.28125 13.890625 
Q 47.125 21.390625 47.125 36.375 
Q 47.125 51.421875 43.28125 58.90625 
Q 39.453125 66.40625 31.78125 66.40625 
z
M 31.78125 74.21875 
Q 44.046875 74.21875 50.515625 64.515625 
Q 56.984375 54.828125 56.984375 36.375 
Q 56.984375 17.96875 50.515625 8.265625 
Q 44.046875 -1.421875 31.78125 -1.421875 
Q 19.53125 -1.421875 13.0625 8.265625 
Q 6.59375 17.96875 6.59375 36.375 
Q 6.59375 54.828125 13.0625 64.515625 
Q 19.53125 74.21875 31.78125 74.21875 
z
" id="DejaVuSans-48"/>
      </defs>
      <g transform="translate(181.398717 783.558437)scale(0.1 -0.1)">
       <use xlink:href="#DejaVuSans-48"/>
      </g>
     </g>
    </g>
    <g id="xtick_2">
     <g id="line2d_2">
      <g>
       <use style="stroke:#000000;stroke-width:0.8;" x="347.056543" xlink:href="#mf814c1478c" y="768.96"/>
      </g>
     </g>
     <g id="text_2">
      <!-- 20 -->
      <defs>
       <path d="M 19.1875 8.296875 
L 53.609375 8.296875 
L 53.609375 0 
L 7.328125 0 
L 7.328125 8.296875 
Q 12.9375 14.109375 22.625 23.890625 
Q 32.328125 33.6875 34.8125 36.53125 
Q 39.546875 41.84375 41.421875 45.53125 
Q 43.3125 49.21875 43.3125 52.78125 
Q 43.3125 58.59375 39.234375 62.25 
Q 35.15625 65.921875 28.609375 65.921875 
Q 23.96875 65.921875 18.8125 64.3125 
Q 13.671875 62.703125 7.8125 59.421875 
L 7.8125 69.390625 
Q 13.765625 71.78125 18.9375 73 
Q 24.125 74.21875 28.421875 74.21875 
Q 39.75 74.21875 46.484375 68.546875 
Q 53.21875 62.890625 53.21875 53.421875 
Q 53.21875 48.921875 51.53125 44.890625 
Q 49.859375 40.875 45.40625 35.40625 
Q 44.1875 33.984375 37.640625 27.21875 
Q 31.109375 20.453125 19.1875 8.296875 
z
" id="DejaVuSans-50"/>
      </defs>
      <g transform="translate(340.694043 783.558437)scale(0.1 -0.1)">
       <use xlink:href="#DejaVuSans-50"/>
       <use x="63.623047" xlink:href="#DejaVuSans-48"/>
      </g>
     </g>
    </g>
    <g id="xtick_3">
     <g id="line2d_3">
      <g>
       <use style="stroke:#000000;stroke-width:0.8;" x="509.53312" xlink:href="#mf814c1478c" y="768.96"/>
      </g>
     </g>
     <g id="text_3">
      <!-- 40 -->
      <defs>
       <path d="M 37.796875 64.3125 
L 12.890625 25.390625 
L 37.796875 25.390625 
z
M 35.203125 72.90625 
L 47.609375 72.90625 
L 47.609375 25.390625 
L 58.015625 25.390625 
L 58.015625 17.1875 
L 47.609375 17.1875 
L 47.609375 0 
L 37.796875 0 
L 37.796875 17.1875 
L 4.890625 17.1875 
L 4.890625 26.703125 
z
" id="DejaVuSans-52"/>
      </defs>
      <g transform="translate(503.17062 783.558437)scale(0.1 -0.1)">
       <use xlink:href="#DejaVuSans-52"/>
       <use x="63.623047" xlink:href="#DejaVuSans-48"/>
      </g>
     </g>
    </g>
    <g id="xtick_4">
     <g id="line2d_4">
      <g>
       <use style="stroke:#000000;stroke-width:0.8;" x="672.009697" xlink:href="#mf814c1478c" y="768.96"/>
      </g>
     </g>
     <g id="text_4">
      <!-- 60 -->
      <defs>
       <path d="M 33.015625 40.375 
Q 26.375 40.375 22.484375 35.828125 
Q 18.609375 31.296875 18.609375 23.390625 
Q 18.609375 15.53125 22.484375 10.953125 
Q 26.375 6.390625 33.015625 6.390625 
Q 39.65625 6.390625 43.53125 10.953125 
Q 47.40625 15.53125 47.40625 23.390625 
Q 47.40625 31.296875 43.53125 35.828125 
Q 39.65625 40.375 33.015625 40.375 
z
M 52.59375 71.296875 
L 52.59375 62.3125 
Q 48.875 64.0625 45.09375 64.984375 
Q 41.3125 65.921875 37.59375 65.921875 
Q 27.828125 65.921875 22.671875 59.328125 
Q 17.53125 52.734375 16.796875 39.40625 
Q 19.671875 43.65625 24.015625 45.921875 
Q 28.375 48.1875 33.59375 48.1875 
Q 44.578125 48.1875 50.953125 41.515625 
Q 57.328125 34.859375 57.328125 23.390625 
Q 57.328125 12.15625 50.6875 5.359375 
Q 44.046875 -1.421875 33.015625 -1.421875 
Q 20.359375 -1.421875 13.671875 8.265625 
Q 6.984375 17.96875 6.984375 36.375 
Q 6.984375 53.65625 15.1875 63.9375 
Q 23.390625 74.21875 37.203125 74.21875 
Q 40.921875 74.21875 44.703125 73.484375 
Q 48.484375 72.75 52.59375 71.296875 
z
" id="DejaVuSans-54"/>
      </defs>
      <g transform="translate(665.647197 783.558437)scale(0.1 -0.1)">
       <use xlink:href="#DejaVuSans-54"/>
       <use x="63.623047" xlink:href="#DejaVuSans-48"/>
      </g>
     </g>
    </g>
    <g id="xtick_5">
     <g id="line2d_5">
      <g>
       <use style="stroke:#000000;stroke-width:0.8;" x="834.486274" xlink:href="#mf814c1478c" y="768.96"/>
      </g>
     </g>
     <g id="text_5">
      <!-- 80 -->
      <defs>
       <path d="M 31.78125 34.625 
Q 24.75 34.625 20.71875 30.859375 
Q 16.703125 27.09375 16.703125 20.515625 
Q 16.703125 13.921875 20.71875 10.15625 
Q 24.75 6.390625 31.78125 6.390625 
Q 38.8125 6.390625 42.859375 10.171875 
Q 46.921875 13.96875 46.921875 20.515625 
Q 46.921875 27.09375 42.890625 30.859375 
Q 38.875 34.625 31.78125 34.625 
z
M 21.921875 38.8125 
Q 15.578125 40.375 12.03125 44.71875 
Q 8.5 49.078125 8.5 55.328125 
Q 8.5 64.0625 14.71875 69.140625 
Q 20.953125 74.21875 31.78125 74.21875 
Q 42.671875 74.21875 48.875 69.140625 
Q 55.078125 64.0625 55.078125 55.328125 
Q 55.078125 49.078125 51.53125 44.71875 
Q 48 40.375 41.703125 38.8125 
Q 48.828125 37.15625 52.796875 32.3125 
Q 56.78125 27.484375 56.78125 20.515625 
Q 56.78125 9.90625 50.3125 4.234375 
Q 43.84375 -1.421875 31.78125 -1.421875 
Q 19.734375 -1.421875 13.25 4.234375 
Q 6.78125 9.90625 6.78125 20.515625 
Q 6.78125 27.484375 10.78125 32.3125 
Q 14.796875 37.15625 21.921875 38.8125 
z
M 18.3125 54.390625 
Q 18.3125 48.734375 21.84375 45.5625 
Q 25.390625 42.390625 31.78125 42.390625 
Q 38.140625 42.390625 41.71875 45.5625 
Q 45.3125 48.734375 45.3125 54.390625 
Q 45.3125 60.0625 41.71875 63.234375 
Q 38.140625 66.40625 31.78125 66.40625 
Q 25.390625 66.40625 21.84375 63.234375 
Q 18.3125 60.0625 18.3125 54.390625 
z
" id="DejaVuSans-56"/>
      </defs>
      <g transform="translate(828.123774 783.558437)scale(0.1 -0.1)">
       <use xlink:href="#DejaVuSans-56"/>
       <use x="63.623047" xlink:href="#DejaVuSans-48"/>
      </g>
     </g>
    </g>
    <g id="xtick_6">
     <g id="line2d_6">
      <g>
       <use style="stroke:#000000;stroke-width:0.8;" x="996.962851" xlink:href="#mf814c1478c" y="768.96"/>
      </g>
     </g>
     <g id="text_6">
      <!-- 100 -->
      <defs>
       <path d="M 12.40625 8.296875 
L 28.515625 8.296875 
L 28.515625 63.921875 
L 10.984375 60.40625 
L 10.984375 69.390625 
L 28.421875 72.90625 
L 38.28125 72.90625 
L 38.28125 8.296875 
L 54.390625 8.296875 
L 54.390625 0 
L 12.40625 0 
z
" id="DejaVuSans-49"/>
      </defs>
      <g transform="translate(987.419101 783.558437)scale(0.1 -0.1)">
       <use xlink:href="#DejaVuSans-49"/>
       <use x="63.623047" xlink:href="#DejaVuSans-48"/>
       <use x="127.246094" xlink:href="#DejaVuSans-48"/>
      </g>
     </g>
    </g>
   </g>
   <g id="matplotlib.axis_2">
    <g id="ytick_1">
     <g id="line2d_7">
      <defs>
       <path d="M 0 0 
L -3.5 0 
" id="m23c58f0a10" style="stroke:#000000;stroke-width:0.8;"/>
      </defs>
      <g>
       <use style="stroke:#000000;stroke-width:0.8;" x="144" xlink:href="#m23c58f0a10" y="739.16973"/>
      </g>
     </g>
     <g id="text_7">
      <!-- 0.0 -->
      <defs>
       <path d="M 10.6875 12.40625 
L 21 12.40625 
L 21 0 
L 10.6875 0 
z
" id="DejaVuSans-46"/>
      </defs>
      <g transform="translate(121.096875 742.968949)scale(0.1 -0.1)">
       <use xlink:href="#DejaVuSans-48"/>
       <use x="63.623047" xlink:href="#DejaVuSans-46"/>
       <use x="95.410156" xlink:href="#DejaVuSans-48"/>
      </g>
     </g>
    </g>
    <g id="ytick_2">
     <g id="line2d_8">
      <g>
       <use style="stroke:#000000;stroke-width:0.8;" x="144" xlink:href="#m23c58f0a10" y="617.755542"/>
      </g>
     </g>
     <g id="text_8">
      <!-- 0.1 -->
      <g transform="translate(121.096875 621.55476)scale(0.1 -0.1)">
       <use xlink:href="#DejaVuSans-48"/>
       <use x="63.623047" xlink:href="#DejaVuSans-46"/>
       <use x="95.410156" xlink:href="#DejaVuSans-49"/>
      </g>
     </g>
    </g>
    <g id="ytick_3">
     <g id="line2d_9">
      <g>
       <use style="stroke:#000000;stroke-width:0.8;" x="144" xlink:href="#m23c58f0a10" y="496.341353"/>
      </g>
     </g>
     <g id="text_9">
      <!-- 0.2 -->
      <g transform="translate(121.096875 500.140572)scale(0.1 -0.1)">
       <use xlink:href="#DejaVuSans-48"/>
       <use x="63.623047" xlink:href="#DejaVuSans-46"/>
       <use x="95.410156" xlink:href="#DejaVuSans-50"/>
      </g>
     </g>
    </g>
    <g id="ytick_4">
     <g id="line2d_10">
      <g>
       <use style="stroke:#000000;stroke-width:0.8;" x="144" xlink:href="#m23c58f0a10" y="374.927164"/>
      </g>
     </g>
     <g id="text_10">
      <!-- 0.3 -->
      <defs>
       <path d="M 40.578125 39.3125 
Q 47.65625 37.796875 51.625 33 
Q 55.609375 28.21875 55.609375 21.1875 
Q 55.609375 10.40625 48.1875 4.484375 
Q 40.765625 -1.421875 27.09375 -1.421875 
Q 22.515625 -1.421875 17.65625 -0.515625 
Q 12.796875 0.390625 7.625 2.203125 
L 7.625 11.71875 
Q 11.71875 9.328125 16.59375 8.109375 
Q 21.484375 6.890625 26.8125 6.890625 
Q 36.078125 6.890625 40.9375 10.546875 
Q 45.796875 14.203125 45.796875 21.1875 
Q 45.796875 27.640625 41.28125 31.265625 
Q 36.765625 34.90625 28.71875 34.90625 
L 20.21875 34.90625 
L 20.21875 43.015625 
L 29.109375 43.015625 
Q 36.375 43.015625 40.234375 45.921875 
Q 44.09375 48.828125 44.09375 54.296875 
Q 44.09375 59.90625 40.109375 62.90625 
Q 36.140625 65.921875 28.71875 65.921875 
Q 24.65625 65.921875 20.015625 65.03125 
Q 15.375 64.15625 9.8125 62.3125 
L 9.8125 71.09375 
Q 15.4375 72.65625 20.34375 73.4375 
Q 25.25 74.21875 29.59375 74.21875 
Q 40.828125 74.21875 47.359375 69.109375 
Q 53.90625 64.015625 53.90625 55.328125 
Q 53.90625 49.265625 50.4375 45.09375 
Q 46.96875 40.921875 40.578125 39.3125 
z
" id="DejaVuSans-51"/>
      </defs>
      <g transform="translate(121.096875 378.726383)scale(0.1 -0.1)">
       <use xlink:href="#DejaVuSans-48"/>
       <use x="63.623047" xlink:href="#DejaVuSans-46"/>
       <use x="95.410156" xlink:href="#DejaVuSans-51"/>
      </g>
     </g>
    </g>
    <g id="ytick_5">
     <g id="line2d_11">
      <g>
       <use style="stroke:#000000;stroke-width:0.8;" x="144" xlink:href="#m23c58f0a10" y="253.512976"/>
      </g>
     </g>
     <g id="text_11">
      <!-- 0.4 -->
      <g transform="translate(121.096875 257.312195)scale(0.1 -0.1)">
       <use xlink:href="#DejaVuSans-48"/>
       <use x="63.623047" xlink:href="#DejaVuSans-46"/>
       <use x="95.410156" xlink:href="#DejaVuSans-52"/>
      </g>
     </g>
    </g>
    <g id="ytick_6">
     <g id="line2d_12">
      <g>
       <use style="stroke:#000000;stroke-width:0.8;" x="144" xlink:href="#m23c58f0a10" y="132.098787"/>
      </g>
     </g>
     <g id="text_12">
      <!-- 0.5 -->
      <defs>
       <path d="M 10.796875 72.90625 
L 49.515625 72.90625 
L 49.515625 64.59375 
L 19.828125 64.59375 
L 19.828125 46.734375 
Q 21.96875 47.46875 24.109375 47.828125 
Q 26.265625 48.1875 28.421875 48.1875 
Q 40.625 48.1875 47.75 41.5 
Q 54.890625 34.8125 54.890625 23.390625 
Q 54.890625 11.625 47.5625 5.09375 
Q 40.234375 -1.421875 26.90625 -1.421875 
Q 22.3125 -1.421875 17.546875 -0.640625 
Q 12.796875 0.140625 7.71875 1.703125 
L 7.71875 11.625 
Q 12.109375 9.234375 16.796875 8.0625 
Q 21.484375 6.890625 26.703125 6.890625 
Q 35.15625 6.890625 40.078125 11.328125 
Q 45.015625 15.765625 45.015625 23.390625 
Q 45.015625 31 40.078125 35.4375 
Q 35.15625 39.890625 26.703125 39.890625 
Q 22.75 39.890625 18.8125 39.015625 
Q 14.890625 38.140625 10.796875 36.28125 
z
" id="DejaVuSans-53"/>
      </defs>
      <g transform="translate(121.096875 135.898006)scale(0.1 -0.1)">
       <use xlink:href="#DejaVuSans-48"/>
       <use x="63.623047" xlink:href="#DejaVuSans-46"/>
       <use x="95.410156" xlink:href="#DejaVuSans-53"/>
      </g>
     </g>
    </g>
   </g>
   <g id="line2d_13">
    <path clip-path="url(#pea63f684e6)" d="M 184.581818 738.712776 
L 184.691184 738.708927 
L 184.995536 738.712776 
L 185.20729 738.711817 
L 186.016393 738.712302 
L 335.406642 738.72 
L 335.568095 716.538126 
L 335.60593 721.358269 
L 335.665105 721.831784 
L 335.674989 721.358269 
L 335.735154 686.208861 
L 335.795085 687.65369 
L 335.805496 687.65369 
L 335.814864 688.127205 
L 335.844772 686.682377 
L 335.895043 687.65369 
L 335.905026 686.208861 
L 335.946763 688.127205 
L 335.967945 687.168033 
L 336.163873 688.127205 
L 336.253953 689.098519 
L 336.243471 686.682377 
L 336.263155 688.127205 
L 336.362344 686.682377 
L 336.382546 687.65369 
L 336.392062 687.65369 
L 336.40187 686.682377 
L 336.423629 688.127205 
L 336.503579 687.168033 
L 336.575218 688.127205 
L 336.523111 686.682377 
L 336.603295 687.65369 
L 336.723404 686.682377 
L 336.753465 688.127205 
L 336.832836 687.65369 
L 336.852605 688.127205 
L 336.952976 686.682377 
L 337.013182 688.127205 
L 337.072557 687.65369 
L 337.093541 688.127205 
L 337.183969 687.168033 
L 337.264249 688.127205 
L 337.28384 687.65369 
L 337.383922 686.682377 
L 337.393785 687.65369 
L 337.433533 687.168033 
L 337.63227 687.168033 
L 337.740018 690.543348 
L 337.702065 686.682377 
L 337.800539 690.057691 
L 337.840323 690.057691 
L 337.930691 644.794481 
L 337.920132 703.061151 
L 337.95913 681.874375 
L 338.070082 683.792719 
L 338.079999 683.319204 
L 338.130023 681.874375 
L 338.190205 682.833547 
L 338.28015 683.792719 
L 338.210043 682.34789 
L 338.29021 683.319204 
L 338.349431 681.874375 
L 338.370063 683.792719 
L 338.400946 683.319204 
L 338.481329 683.792719 
L 338.431427 682.34789 
L 338.50293 683.319204 
L 338.601453 681.874375 
L 338.571906 683.792719 
L 338.612234 683.319204 
L 338.622033 683.319204 
L 338.732926 682.34789 
L 338.802516 683.792719 
L 338.843324 683.319204 
L 338.894729 681.874375 
L 338.87339 683.792719 
L 338.915934 683.319204 
L 339.120208 683.792719 
L 339.188085 682.34789 
L 339.229192 682.833547 
L 339.269118 682.34789 
L 339.338197 683.792719 
L 339.438238 682.34789 
L 339.448364 683.319204 
L 339.548311 683.792719 
L 339.478391 682.34789 
L 339.558082 683.319204 
L 339.587923 683.792719 
L 339.657366 682.34789 
L 339.767787 683.792719 
L 339.868944 682.833547 
L 339.938156 684.278376 
L 339.959154 682.34789 
L 339.978711 683.319204 
L 340.018504 683.792719 
L 340.080232 682.34789 
L 340.149483 683.792719 
L 340.160308 683.319204 
L 340.260855 671.274916 
L 340.270185 675.609403 
L 340.289607 675.609403 
L 340.299427 671.274916 
L 340.360323 676.095059 
L 340.390455 672.24623 
L 340.58427 676.095059 
L 340.592767 675.609403 
L 340.60366 670.801401 
L 340.703862 675.609403 
L 340.743837 676.095059 
L 340.813181 671.274916 
L 340.92176 675.609403 
L 340.931245 675.123746 
L 341.022433 672.24623 
L 341.002781 676.095059 
L 341.033173 674.164574 
L 341.133336 676.095059 
L 341.113495 671.274916 
L 341.143239 675.609403 
L 341.194651 671.760573 
L 341.17444 676.095059 
L 341.253891 675.609403 
L 341.263664 675.609403 
L 341.324492 671.760573 
L 341.305071 676.095059 
L 341.373651 673.678917 
L 341.404198 671.760573 
L 341.485163 676.095059 
L 341.495558 671.760573 
L 341.596312 675.609403 
L 341.665468 671.760573 
L 341.714541 673.678917 
L 341.794665 670.801401 
L 341.825866 675.609403 
L 341.837319 672.24623 
L 341.856515 676.095059 
L 342.051456 674.65023 
L 342.11141 676.095059 
L 342.081355 673.205402 
L 342.120457 675.609403 
L 342.130517 671.274916 
L 342.22897 675.609403 
L 342.270129 676.095059 
L 342.340338 670.801401 
L 342.451834 683.319204 
L 342.470967 681.874375 
L 342.529636 683.319204 
L 342.589683 682.833547 
L 342.68133 681.874375 
L 342.61082 683.319204 
L 342.690732 682.833547 
L 342.700765 683.319204 
L 342.720531 681.874375 
L 342.791002 682.833547 
L 342.891647 680.903061 
L 342.861273 683.319204 
L 342.900338 682.833547 
L 342.921115 682.833547 
L 342.981803 681.388718 
L 342.960984 683.319204 
L 343.020746 681.874375 
L 343.131713 683.319204 
L 343.232572 681.874375 
L 343.242622 683.319204 
L 343.262248 683.319204 
L 343.312805 682.34789 
L 343.333262 683.319204 
L 343.530405 683.319204 
L 343.559516 681.874375 
L 343.569971 683.319204 
L 343.607469 669.830087 
L 343.68684 671.274916 
L 343.757046 673.205402 
L 343.776399 670.315744 
L 343.807077 672.24623 
L 343.858367 670.801401 
L 343.837722 673.205402 
L 343.908666 671.274916 
L 343.938707 670.801401 
L 344.018163 672.719745 
L 344.119146 669.830087 
L 344.057958 673.205402 
L 344.128908 672.719745 
L 344.138365 672.719745 
L 344.148154 673.678917 
L 344.158199 670.315744 
L 344.239985 672.719745 
L 344.289457 670.315744 
L 344.270038 673.205402 
L 344.342103 673.205402 
L 344.41141 669.830087 
L 344.462365 670.801401 
L 344.541845 670.315744 
L 344.570948 672.719745 
L 344.630486 669.830087 
L 344.6798 672.24623 
L 344.689812 672.24623 
L 344.719489 670.315744 
L 344.809375 677.054231 
L 345.003091 677.054231 
L 345.109581 676.095059 
L 345.219845 677.054231 
L 345.3205 676.095059 
L 345.340345 676.568575 
L 345.349708 676.568575 
L 345.410218 675.609403 
L 345.380655 677.539888 
L 345.450092 676.095059 
L 345.500085 675.609403 
L 345.570665 677.054231 
L 345.660377 675.609403 
L 345.641434 677.539888 
L 345.681275 677.054231 
L 345.701264 677.054231 
L 345.750499 675.609403 
L 345.721115 677.539888 
L 345.811476 676.568575 
L 345.821551 676.568575 
L 345.850854 677.539888 
L 345.92014 676.095059 
L 346.04176 677.054231 
L 346.141317 675.609403 
L 346.151282 676.568575 
L 346.180454 675.609403 
L 346.261429 677.054231 
L 346.271061 676.095059 
L 346.280727 677.054231 
L 346.475645 676.568575 
L 346.565054 675.609403 
L 346.504733 677.539888 
L 346.575628 677.539888 
L 346.65299 675.609403 
L 346.69404 676.095059 
L 346.763654 677.539888 
L 346.803894 677.054231 
L 346.812379 677.054231 
L 346.903943 676.095059 
L 346.852347 677.539888 
L 346.923475 677.054231 
L 346.933397 677.054231 
L 346.993866 672.719745 
L 347.084715 673.205402 
L 347.146284 676.568575 
L 347.125107 671.274916 
L 347.196277 676.095059 
L 347.297967 672.24623 
L 347.337438 671.760573 
L 347.407524 676.095059 
L 347.506078 671.274916 
L 347.515892 675.609403 
L 347.525323 675.609403 
L 347.596464 671.760573 
L 347.57602 676.095059 
L 347.645494 675.123746 
L 347.666743 676.095059 
L 347.675688 672.719745 
L 347.707371 675.609403 
L 347.7165 672.24623 
L 347.746484 676.095059 
L 347.756172 674.164574 
L 347.95127 676.095059 
L 347.961324 675.609403 
L 348.018609 671.274916 
L 347.989072 676.095059 
L 348.070686 675.609403 
L 348.079771 676.095059 
L 348.099851 671.274916 
L 348.130655 674.65023 
L 348.180795 671.274916 
L 348.151978 676.568575 
L 348.231312 675.609403 
L 348.251212 676.095059 
L 348.260561 672.719745 
L 348.301756 675.609403 
L 348.351695 671.274916 
L 348.321313 676.095059 
L 348.410564 675.123746 
L 348.431178 675.123746 
L 348.521785 671.274916 
L 348.450303 676.095059 
L 348.532362 675.609403 
L 348.55214 675.609403 
L 348.562395 671.760573 
L 348.661966 675.609403 
L 348.671753 675.609403 
L 348.720888 676.095059 
L 348.700738 672.24623 
L 348.730371 675.123746 
L 348.800419 676.095059 
L 348.830577 671.274916 
L 348.93093 676.095059 
L 348.940643 675.609403 
L 349.041341 671.274916 
L 349.011223 676.095059 
L 349.05125 675.609403 
L 349.170621 671.274916 
L 349.180722 674.65023 
L 349.190482 676.095059 
L 349.200352 675.609403 
L 349.230668 661.161114 
L 349.459097 654.422627 
L 349.467581 660.201942 
L 349.488309 653.949111 
L 349.566954 654.908283 
L 349.576555 654.908283 
L 349.586768 654.422627 
L 349.616332 691.50252 
L 349.679095 653.463455 
L 349.697666 655.381799 
L 349.807488 645.753654 
L 349.726951 657.312284 
L 349.83941 646.724967 
L 349.848718 646.724967 
L 349.868643 645.753654 
L 349.888604 646.23931 
L 349.917929 651.059454 
L 349.998082 646.724967 
L 350.008588 646.724967 
L 350.048481 645.753654 
L 350.080796 669.830087 
L 350.138693 665.495601 
L 350.259333 148.356147 
L 350.279145 610.130731 
L 350.379136 603.865758 
L 350.497706 606.755416 
L 350.507853 605.796244 
L 350.537555 603.865758 
L 350.578903 606.755416 
L 350.609944 605.796244 
L 350.659164 606.755416 
L 350.649001 604.824931 
L 350.710221 605.796244 
L 350.929065 604.824931 
L 350.993551 609.159417 
L 350.954066 603.380102 
L 351.032912 604.351415 
L 351.121545 608.200245 
L 351.144414 606.755416 
L 351.211395 586.054297 
L 351.18387 609.159417 
L 351.231443 608.685902 
L 351.241356 615.424389 
L 351.251329 593.751957 
L 351.341175 614.465217 
L 351.35199 608.685902 
L 351.443852 426.188235 
L 351.434466 609.159417 
L 351.452547 587.972641 
L 351.482485 572.565181 
L 351.501699 560.047378 
L 351.541451 610.604246 
L 351.552637 133.92 
L 351.630977 613.97956 
L 351.641229 589.41747 
L 351.67298 611.089903 
L 351.691022 202.773986 
L 351.780924 606.269759 
L 351.800703 604.824931 
L 351.820868 609.159417 
L 351.830754 591.347956 
L 351.93133 604.351415 
L 351.952024 608.200245 
L 352.041772 605.796244 
L 352.051674 606.269759 
L 352.061259 604.824931 
L 352.101657 604.824931 
L 352.111968 584.123811 
L 352.131988 691.016863 
L 352.161597 691.016863 
L 352.181225 691.50252 
L 352.38585 691.50252 
L 352.485899 689.572034 
L 352.433725 691.976035 
L 352.496755 690.543348 
L 352.573616 689.572034 
L 352.606074 691.50252 
L 352.69382 578.344496 
L 352.726803 605.796244 
L 352.736027 581.71981 
L 352.773503 608.200245 
L 352.834154 605.796244 
L 352.855818 608.200245 
L 352.874509 604.351415 
L 352.90467 606.755416 
L 352.914554 604.351415 
L 353.014307 605.310587 
L 353.034454 606.269759 
L 353.054444 603.865758 
L 353.093498 605.310587 
L 353.103871 476.271588 
L 353.164844 691.50252 
L 353.195332 691.50252 
L 353.205265 691.50252 
L 353.29726 690.057691 
L 353.245474 691.976035 
L 353.315725 691.50252 
L 353.325258 691.50252 
L 353.386087 690.057691 
L 353.435142 691.016863 
L 353.465307 605.310587 
L 353.505515 691.50252 
L 353.53635 691.50252 
L 353.645986 690.057691 
L 353.656318 691.976035 
L 353.852701 690.057691 
L 353.862676 691.016863 
L 353.872438 691.016863 
L 353.89083 690.057691 
L 353.970176 691.976035 
L 354.029564 690.057691 
L 354.078871 691.50252 
L 354.101781 691.50252 
L 354.112116 689.572034 
L 354.140787 691.976035 
L 354.212289 691.50252 
L 354.223449 691.976035 
L 354.23153 690.543348 
L 354.263192 691.50252 
L 354.310951 604.824931 
L 354.372131 691.016863 
L 354.383991 691.016863 
L 354.402802 690.057691 
L 354.482025 691.976035 
L 354.583806 690.057691 
L 354.593901 691.50252 
L 354.703598 690.057691 
L 354.693811 691.976035 
L 354.713551 690.543348 
L 354.783734 691.976035 
L 354.753488 690.057691 
L 354.823277 691.50252 
L 354.921258 690.057691 
L 354.891565 691.976035 
L 354.931879 690.543348 
L 354.991882 691.976035 
L 355.040941 691.50252 
L 355.090666 690.057691 
L 355.10035 691.50252 
L 355.110581 599.531272 
L 355.120821 606.269759 
L 355.422348 691.976035 
L 355.432125 690.057691 
L 355.463551 691.976035 
L 355.551508 691.016863 
L 355.561188 691.016863 
L 355.651824 690.057691 
L 355.642024 691.976035 
L 355.662179 690.543348 
L 355.762489 691.976035 
L 355.692047 690.057691 
L 355.772118 691.50252 
L 355.822027 690.057691 
L 355.801899 691.976035 
L 355.881582 691.016863 
L 355.901338 691.016863 
L 355.911086 689.572034 
L 355.931284 691.50252 
L 355.941185 591.833612 
L 356.040411 691.50252 
L 356.100371 689.572034 
L 356.070264 691.976035 
L 356.150979 691.50252 
L 356.1612 691.976035 
L 356.2208 690.057691 
L 356.250755 691.50252 
L 356.353175 690.057691 
L 356.333766 691.976035 
L 356.363568 690.543348 
L 356.450979 691.976035 
L 356.392277 690.057691 
L 356.471142 691.50252 
L 356.561617 690.057691 
L 356.511815 691.976035 
L 356.571176 691.016863 
L 356.59148 691.976035 
L 356.826967 596.168099 
L 356.873549 609.159417 
L 356.935656 691.976035 
L 356.993472 690.543348 
L 357.094879 691.976035 
L 357.036504 690.057691 
L 357.105162 691.50252 
L 357.204165 689.572034 
L 357.133911 691.976035 
L 357.213138 691.016863 
L 357.293244 690.057691 
L 357.323612 691.50252 
L 357.423382 690.057691 
L 357.433864 691.016863 
L 357.444302 691.016863 
L 357.463272 690.543348 
L 357.544359 691.976035 
L 357.593366 690.543348 
L 357.62362 606.269759 
L 357.663322 691.50252 
L 357.694345 690.543348 
L 357.714413 691.976035 
L 357.724081 674.164574 
L 357.825277 691.50252 
L 357.835345 691.50252 
L 357.935259 689.572034 
L 357.944478 691.016863 
L 357.974678 690.543348 
L 358.054738 691.50252 
L 358.064386 690.543348 
L 358.268542 691.976035 
L 358.307405 672.719745 
L 358.315925 662.132428 
L 358.418014 154.135462 
L 358.427958 608.685902 
L 358.438068 611.089903 
L 358.467255 137.76883 
L 358.549127 605.796244 
L 358.559284 605.796244 
L 358.577903 604.351415 
L 358.608194 608.685902 
L 358.647849 478.675589 
L 358.719887 606.755416 
L 358.740005 604.351415 
L 358.840012 605.796244 
L 358.850043 606.269759 
L 358.910812 604.351415 
L 358.931159 605.796244 
L 358.982033 604.351415 
L 358.962409 606.269759 
L 359.00366 605.796244 
L 359.172577 691.976035 
L 359.06369 585.56864 
L 359.254171 690.057691 
L 359.313746 600.016929 
L 359.404223 606.269759 
L 359.453402 604.351415 
L 359.434083 609.159417 
L 359.514222 605.310587 
L 359.524179 606.269759 
L 359.533776 604.824931 
L 359.73633 608.200245 
L 359.805089 604.351415 
L 359.85368 605.796244 
L 359.90527 606.755416 
L 359.885371 604.824931 
L 359.935226 604.824931 
L 359.974806 603.865758 
L 360.0053 605.796244 
L 360.024775 604.824931 
L 360.084508 608.685902 
L 360.156097 470.006616 
L 360.13531 610.130731 
L 360.20492 585.082984 
L 360.224362 585.56864 
L 360.244817 582.678983 
L 360.275873 583.638155 
L 360.396486 580.274982 
L 360.425638 581.234154 
L 360.506717 582.678983 
L 360.445359 580.274982 
L 360.545941 582.193326 
L 360.655589 575.454838 
L 360.626648 582.678983 
L 360.665008 581.71981 
L 360.675409 582.678983 
L 360.697573 580.748497 
L 360.817362 667.911743 
L 360.926304 653.463455 
L 360.976143 569.202008 
L 360.995826 667.426086 
L 361.00575 666.466914 
L 361.20207 667.911743 
L 361.251686 665.981257 
L 361.301329 668.385258 
L 361.310356 667.911743 
L 361.329516 667.911743 
L 361.339223 665.981257 
L 361.441727 667.426086 
L 361.462186 666.466914 
L 361.542146 667.911743 
L 361.629593 666.466914 
L 361.639593 668.385258 
L 361.64988 667.911743 
L 361.719468 666.466914 
L 361.74954 667.426086 
L 361.852033 236.964222 
L 361.882041 582.193326 
L 361.952288 517.673826 
L 361.930769 585.082984 
L 361.98179 584.609468 
L 362.001922 587.499126 
L 362.094102 586.054297 
L 362.143366 584.609468 
L 362.162576 587.013469 
L 362.193093 585.56864 
L 362.293381 591.833612 
L 362.233506 583.638155 
L 362.313145 587.972641 
L 362.36366 583.164639 
L 362.39562 586.527812 
L 362.425098 672.24623 
L 362.474592 671.760573 
L 362.686482 673.205402 
L 362.736254 567.757179 
L 362.81689 586.054297 
L 362.848132 587.013469 
L 362.858306 584.609468 
L 362.898186 586.527812 
L 363.009936 585.082984 
L 363.029835 585.082984 
L 363.118091 584.123811 
L 363.148486 586.527812 
L 363.158113 574.495666 
L 363.179033 671.760573 
L 363.189201 671.760573 
L 363.279764 670.315744 
L 363.259771 672.24623 
L 363.299934 671.760573 
L 363.310079 671.760573 
L 363.361565 670.315744 
L 363.341124 672.24623 
L 363.410907 670.801401 
L 363.421767 671.760573 
L 363.431113 584.123811 
L 363.513639 673.205402 
L 363.523416 672.719745 
L 363.623458 671.274916 
L 363.553155 673.205402 
L 363.633297 672.24623 
L 363.664339 671.760573 
L 363.693417 673.205402 
L 363.701914 669.830087 
L 363.80103 671.760573 
L 363.901186 672.24623 
L 363.842303 670.315744 
L 363.910936 671.760573 
L 363.920626 670.801401 
L 363.95101 671.760573 
L 364.157046 672.24623 
L 364.176665 670.315744 
L 364.24688 671.760573 
L 364.307268 574.495666 
L 364.356635 672.719745 
L 364.385553 671.274916 
L 364.446061 673.678917 
L 364.468517 671.274916 
L 364.557402 672.24623 
L 364.567727 672.719745 
L 364.597456 670.315744 
L 364.627896 671.760573 
L 364.647385 672.24623 
L 364.727252 657.312284 
L 364.846536 672.24623 
L 364.946792 670.315744 
L 364.957439 672.24623 
L 364.968106 672.24623 
L 365.069445 670.315744 
L 365.077826 671.274916 
L 365.108566 584.609468 
L 365.17199 672.24623 
L 365.181665 672.24623 
L 365.202332 673.205402 
L 365.281846 671.274916 
L 365.320556 670.801401 
L 365.393049 673.205402 
L 365.402761 671.274916 
L 365.43316 672.719745 
L 365.626572 672.24623 
L 365.697289 669.830087 
L 365.736937 671.274916 
L 365.817418 670.315744 
L 365.845702 672.24623 
L 365.965292 584.123811 
L 366.064921 673.678917 
L 366.084751 673.205402 
L 366.094887 673.205402 
L 366.124825 670.801401 
L 366.225536 672.24623 
L 366.265897 673.205402 
L 366.285955 669.830087 
L 366.327937 671.760573 
L 366.375706 670.315744 
L 366.415731 672.719745 
L 366.425766 671.274916 
L 366.526131 672.24623 
L 366.465811 670.801401 
L 366.535695 671.760573 
L 366.546772 671.760573 
L 366.595452 670.315744 
L 366.575291 672.24623 
L 366.655634 671.760573 
L 366.725999 670.315744 
L 366.745935 672.719745 
L 366.766189 584.609468 
L 366.855252 670.801401 
L 366.906186 672.719745 
L 367.102354 671.760573 
L 367.129383 673.205402 
L 367.189161 669.830087 
L 367.210215 672.24623 
L 367.271914 670.801401 
L 367.330433 671.760573 
L 367.390706 672.24623 
L 367.359782 670.801401 
L 367.430044 671.274916 
L 367.440141 670.315744 
L 367.44986 672.24623 
L 367.530116 672.24623 
L 367.570419 670.801401 
L 367.581724 671.274916 
L 367.591073 579.303668 
L 367.680617 672.24623 
L 367.690824 671.760573 
L 367.739837 670.315744 
L 367.779093 673.205402 
L 367.789467 671.274916 
L 367.801441 673.678917 
L 367.900911 672.719745 
L 367.972455 673.205402 
L 368.002062 670.315744 
L 368.012771 672.719745 
L 368.112338 671.760573 
L 368.152158 672.24623 
L 368.211692 670.801401 
L 368.321615 672.24623 
L 368.332485 671.760573 
L 368.342355 670.801401 
L 368.372061 672.24623 
L 368.564627 670.315744 
L 368.573769 671.274916 
L 368.674575 673.205402 
L 368.603877 670.801401 
L 368.714294 672.719745 
L 368.724056 672.719745 
L 368.813054 671.274916 
L 368.74481 673.205402 
L 368.823079 673.205402 
L 368.842298 673.205402 
L 368.853306 673.678917 
L 368.862727 668.385258 
L 368.96307 671.760573 
L 369.03358 670.315744 
L 369.014767 672.24623 
L 369.072718 670.801401 
L 369.153962 672.24623 
L 369.122982 670.315744 
L 369.184028 671.760573 
L 369.194292 671.760573 
L 369.204001 669.830087 
L 369.234242 672.24623 
L 369.243994 670.801401 
L 369.253272 570.646836 
L 369.324308 672.24623 
L 369.35474 671.760573 
L 369.374591 669.830087 
L 369.404905 672.24623 
L 369.46587 671.274916 
L 369.606797 673.205402 
L 369.62646 670.315744 
L 369.718322 672.24623 
L 369.728787 672.719745 
L 369.748871 670.801401 
L 369.779367 671.760573 
L 369.789493 670.315744 
L 369.84988 671.760573 
L 370.04565 671.760573 
L 370.064699 672.24623 
L 370.072929 670.801401 
L 370.113756 586.527812 
L 370.143704 672.24623 
L 370.18384 671.274916 
L 370.222316 672.24623 
L 370.203542 670.315744 
L 370.283515 671.760573 
L 370.331884 670.315744 
L 370.351404 672.719745 
L 370.381538 671.760573 
L 370.412362 673.678917 
L 370.493726 672.719745 
L 370.5843 670.801401 
L 370.533586 673.205402 
L 370.605497 671.760573 
L 370.674099 670.315744 
L 370.705356 672.24623 
L 370.765374 669.830087 
L 370.816482 671.760573 
L 370.835254 671.760573 
L 370.845186 670.315744 
L 370.866045 672.24623 
L 370.904445 671.760573 
L 370.974757 568.230694 
L 371.006344 671.760573 
L 371.015976 670.315744 
L 371.044049 672.24623 
L 371.113908 672.24623 
L 371.133676 672.24623 
L 371.183655 670.801401 
L 371.20404 672.719745 
L 371.233452 671.760573 
L 371.306299 673.205402 
L 371.315986 671.274916 
L 371.326017 672.719745 
L 371.522753 670.801401 
L 371.532019 671.760573 
L 371.561848 670.315744 
L 371.630547 672.24623 
L 371.741433 664.536429 
L 371.792152 581.71981 
L 371.842478 672.24623 
L 371.851147 670.801401 
L 371.951828 672.24623 
L 371.961595 671.760573 
L 372.043177 672.24623 
L 372.063353 670.315744 
L 372.173323 673.205402 
L 372.232868 670.801401 
L 372.284069 672.719745 
L 372.29442 672.719745 
L 372.403663 670.801401 
L 372.414318 671.760573 
L 372.453478 669.830087 
L 372.52508 672.24623 
L 372.573781 647.198482 
L 372.625098 574.495666 
L 372.653326 672.24623 
L 372.673136 671.760573 
L 372.723417 672.24623 
L 372.703413 670.315744 
L 372.776633 671.760573 
L 372.785926 671.760573 
L 372.795992 670.315744 
L 373.009889 673.205402 
L 373.029112 672.719745 
L 373.11791 670.801401 
L 373.137769 673.205402 
L 373.158158 672.24623 
L 373.167856 662.605943 
L 373.267841 671.760573 
L 373.328002 672.24623 
L 373.297694 670.315744 
L 373.368808 671.760573 
L 373.377869 670.315744 
L 373.39847 672.24623 
L 373.418328 584.123811 
L 373.508058 670.801401 
L 373.557506 670.315744 
L 373.628307 672.24623 
L 373.687823 669.830087 
L 373.73711 672.24623 
L 373.76773 670.315744 
L 373.797744 673.205402 
L 373.817955 673.205402 
L 373.838261 673.205402 
L 373.938849 671.760573 
L 373.958764 672.24623 
L 373.988505 673.678917 
L 373.978524 665.981257 
L 374.059876 672.24623 
L 374.15021 670.315744 
L 374.170108 671.274916 
L 374.221094 672.24623 
L 374.231001 670.315744 
L 374.261226 586.054297 
L 374.480118 672.24623 
L 374.570023 671.760573 
L 374.580047 671.760573 
L 374.589334 670.315744 
L 374.680241 673.205402 
L 374.690549 673.205402 
L 374.800478 671.274916 
L 374.820802 672.24623 
L 374.830726 672.24623 
L 374.850426 671.760573 
L 374.88043 673.205402 
L 374.900486 651.059454 
L 374.920202 603.380102 
L 375.02114 604.351415 
L 375.072115 610.130731 
L 375.121852 609.645074 
L 375.131747 587.972641 
L 375.231748 605.310587 
L 375.242763 608.685902 
L 375.273267 604.824931 
L 375.344077 606.269759 
L 375.353835 605.310587 
L 375.36317 467.116958 
L 375.413926 691.50252 
L 375.45454 691.50252 
L 375.465654 691.50252 
L 375.565726 689.572034 
L 375.575732 691.50252 
L 375.585132 691.016863 
L 375.595988 691.50252 
L 375.605785 676.568575 
L 375.70442 690.057691 
L 375.724463 691.50252 
L 375.73522 690.057691 
L 375.931741 605.796244 
L 375.951352 609.159417 
L 376.048523 691.50252 
L 376.078271 691.016863 
L 376.139 691.976035 
L 376.149658 690.057691 
L 376.188582 691.016863 
L 376.288426 688.612862 
L 376.218501 691.50252 
L 376.297533 690.543348 
L 376.389369 691.976035 
L 376.369203 689.572034 
L 376.399408 691.50252 
L 376.509115 689.572034 
L 376.559268 691.50252 
L 376.619379 691.016863 
L 376.65935 691.976035 
L 376.718105 690.057691 
L 376.728217 691.976035 
L 376.800618 475.785931 
L 376.849708 607.714588 
L 376.86012 611.089903 
L 376.870529 151.731461 
L 376.960138 613.97956 
L 376.96949 610.130731 
L 376.979474 605.796244 
L 376.990133 606.755416 
L 377.00145 471.451444 
L 377.10056 604.351415 
L 377.170554 606.755416 
L 377.180961 603.865758 
L 377.214833 606.269759 
L 377.507154 738.708927 
L 377.515585 738.704119 
L 377.74534 738.711817 
L 377.916291 738.708441 
L 378.12599 738.710858 
L 380.367628 738.712302 
L 380.506582 738.711817 
L 381.623843 738.707009 
L 386.247283 738.707968 
L 386.725427 738.711817 
L 387.491295 738.705078 
L 387.501584 738.711817 
L 394.151248 738.707009 
L 394.361405 738.709886 
L 394.722933 738.706523 
L 394.874527 738.697854 
L 399.006769 738.712302 
L 399.175242 738.706523 
L 399.28537 738.711331 
L 402.223897 738.711331 
L 405.852849 738.708441 
L 406.18346 738.709413 
L 406.374032 738.705078 
L 406.574448 738.705564 
L 406.636831 738.711331 
L 427.657161 738.712302 
L 427.808458 738.703633 
L 428.957159 738.711331 
L 429.860541 738.712776 
L 430.010019 738.711331 
L 430.181694 738.711331 
L 434.073802 738.705564 
L 434.254513 738.708927 
L 434.457764 738.707009 
L 434.597961 738.712776 
L 450.528146 738.707009 
L 450.768546 738.711331 
L 450.778926 738.704119 
L 465.719569 738.707968 
L 465.857852 738.706523 
L 466.028967 738.696409 
L 466.039085 738.712302 
L 466.454633 738.702189 
L 466.605146 738.707968 
L 466.968741 738.710372 
L 472.812835 738.710372 
L 473.394286 738.711817 
L 473.55578 738.706037 
L 473.897665 738.712302 
L 474.00915 738.704593 
L 474.018404 738.710858 
L 474.588311 738.711817 
L 474.810478 738.703148 
L 474.982335 738.710858 
L 477.0404 738.712302 
L 477.180363 738.711331 
L 477.644801 738.711817 
L 580.241259 738.708927 
L 580.335842 721.358269 
L 580.525489 721.831784 
L 580.611633 686.682377 
L 580.643415 688.127205 
L 580.653838 688.127205 
L 580.683296 686.682377 
L 580.772345 687.168033 
L 580.89223 688.612862 
L 581.021483 686.682377 
L 581.082363 689.098519 
L 581.133165 688.127205 
L 581.182063 686.682377 
L 581.241487 687.65369 
L 581.271678 687.65369 
L 581.30176 688.127205 
L 581.332109 686.208861 
L 581.381906 687.65369 
L 581.393012 688.127205 
L 581.421902 686.682377 
L 581.491463 687.65369 
L 581.51167 688.127205 
L 581.61165 687.168033 
L 581.711877 688.127205 
L 581.661598 686.682377 
L 581.723295 687.65369 
L 581.762317 688.127205 
L 581.812046 686.682377 
L 582.009555 688.127205 
L 582.069377 686.682377 
L 582.118578 687.168033 
L 582.197761 688.127205 
L 582.227672 687.168033 
L 582.247378 687.168033 
L 582.356995 688.127205 
L 582.308306 686.682377 
L 582.367698 687.65369 
L 582.426986 687.168033 
L 582.437207 689.098519 
L 582.457735 687.65369 
L 582.477856 686.682377 
L 582.597508 690.543348 
L 582.637551 689.572034 
L 582.677692 690.057691 
L 582.77804 640.945652 
L 582.788888 676.568575 
L 582.878811 683.792719 
L 582.909011 682.34789 
L 583.009936 683.792719 
L 583.020271 683.319204 
L 583.119634 682.34789 
L 583.059337 683.792719 
L 583.129392 682.833547 
L 583.220811 684.278376 
L 583.209856 682.34789 
L 583.240509 682.833547 
L 583.261543 683.792719 
L 583.291826 681.874375 
L 583.515854 683.319204 
L 583.525961 682.833547 
L 583.534789 681.874375 
L 583.564439 683.792719 
L 583.625249 683.319204 
L 583.647693 683.319204 
L 583.705261 682.34789 
L 583.67743 683.792719 
L 583.754736 682.833547 
L 583.814057 684.278376 
L 583.874683 683.319204 
L 583.964242 682.34789 
L 583.893872 684.278376 
L 583.975433 683.792719 
L 583.994306 683.792719 
L 584.095864 682.34789 
L 584.10551 683.319204 
L 584.155117 683.792719 
L 584.135297 682.34789 
L 584.2151 683.319204 
L 584.285327 684.278376 
L 584.306044 682.34789 
L 584.365444 684.278376 
L 584.41508 683.792719 
L 584.447308 684.278376 
L 584.525784 682.833547 
L 584.626133 684.278376 
L 584.63618 683.792719 
L 584.738003 682.34789 
L 584.666286 684.278376 
L 584.747261 683.792719 
L 584.971415 683.792719 
L 585.071974 671.760573 
L 585.173433 676.095059 
L 585.182577 676.095059 
L 585.200447 671.760573 
L 585.261245 676.568575 
L 585.290701 672.24623 
L 585.34983 676.095059 
L 585.400812 675.123746 
L 585.470158 676.095059 
L 585.500352 672.24623 
L 585.590073 671.274916 
L 585.620692 676.095059 
L 585.720444 671.274916 
L 585.730295 675.123746 
L 585.759956 671.274916 
L 585.790265 675.609403 
L 585.890153 671.760573 
L 585.822822 676.095059 
L 585.899646 675.609403 
L 585.919526 676.095059 
L 585.929832 675.609403 
L 585.999369 676.568575 
L 586.029085 671.760573 
L 586.129537 676.568575 
L 586.139283 676.095059 
L 586.200612 671.274916 
L 586.219704 676.568575 
L 586.240775 672.24623 
L 586.4406 676.095059 
L 586.450781 675.123746 
L 586.459495 670.801401 
L 586.489057 676.095059 
L 586.559993 675.609403 
L 586.578628 675.609403 
L 586.678942 671.760573 
L 586.658812 676.095059 
L 586.68889 675.609403 
L 586.70894 675.609403 
L 586.719246 671.760573 
L 586.819733 675.609403 
L 586.839061 675.609403 
L 586.849118 671.274916 
L 586.878405 676.095059 
L 586.948059 674.65023 
L 586.998925 675.609403 
L 586.978702 673.678917 
L 587.018501 673.678917 
L 587.029293 671.274916 
L 587.058776 676.095059 
L 587.118302 674.65023 
L 587.258216 683.792719 
L 587.15934 671.760573 
L 587.308046 682.833547 
L 587.317904 682.833547 
L 587.328141 681.874375 
L 587.397686 683.319204 
L 587.419304 682.833547 
L 587.517482 683.319204 
L 587.507751 681.874375 
L 587.527613 682.833547 
L 587.537315 682.833547 
L 587.587596 681.388718 
L 587.557482 683.319204 
L 587.64732 682.833547 
L 587.687659 683.319204 
L 587.678476 681.874375 
L 587.718236 682.34789 
L 587.916896 682.34789 
L 587.993681 681.874375 
L 588.033503 683.319204 
L 588.063447 683.792719 
L 588.132276 681.874375 
L 588.183589 684.278376 
L 588.242567 682.833547 
L 588.25273 682.833547 
L 588.342275 682.34789 
L 588.272246 683.792719 
L 588.352262 682.833547 
L 588.392814 681.874375 
L 588.41215 683.319204 
L 588.522139 670.315744 
L 588.532104 673.205402 
L 588.552091 673.205402 
L 588.612143 670.315744 
L 588.662611 672.719745 
L 588.713769 673.205402 
L 588.692688 670.801401 
L 588.723409 672.719745 
L 588.733599 670.315744 
L 588.743233 673.205402 
L 588.823086 671.274916 
L 588.912744 670.801401 
L 588.942367 673.205402 
L 589.042334 670.801401 
L 589.022423 673.678917 
L 589.051904 672.719745 
L 589.082321 671.274916 
L 589.121262 673.205402 
L 589.133208 670.801401 
L 589.192901 673.205402 
L 589.387965 672.719745 
L 589.436238 673.205402 
L 589.426015 670.315744 
L 589.454564 672.24623 
L 589.546351 669.830087 
L 589.516021 673.205402 
L 589.555785 672.719745 
L 589.565532 672.719745 
L 589.596634 670.315744 
L 589.605617 675.609403 
L 589.736195 677.539888 
L 589.745831 677.539888 
L 589.805559 676.095059 
L 589.865621 676.568575 
L 589.895662 676.095059 
L 589.966214 677.539888 
L 590.066434 676.095059 
L 590.07693 677.054231 
L 590.086391 677.054231 
L 590.126452 677.539888 
L 590.196334 675.609403 
L 590.306029 677.539888 
L 590.315736 677.054231 
L 590.32607 675.609403 
L 590.416841 677.054231 
L 590.436665 677.054231 
L 590.53732 676.095059 
L 590.45841 677.539888 
L 590.5472 676.568575 
L 590.647197 677.539888 
L 590.577334 675.609403 
L 590.657069 677.054231 
L 590.667286 675.123746 
L 590.863571 677.539888 
L 590.911867 675.609403 
L 590.97251 677.539888 
L 591.000345 675.609403 
L 591.090332 676.095059 
L 591.189916 677.539888 
L 591.17041 675.609403 
L 591.210207 677.054231 
L 591.301806 676.095059 
L 591.229589 677.539888 
L 591.320241 677.054231 
L 591.33971 677.054231 
L 591.429976 676.095059 
L 591.359919 677.539888 
L 591.439753 676.568575 
L 591.51989 676.095059 
L 591.550632 677.539888 
L 591.649608 676.095059 
L 591.66039 677.054231 
L 591.680303 677.054231 
L 591.730935 675.609403 
L 591.700646 677.539888 
L 591.780862 676.568575 
L 591.791544 677.539888 
L 591.820697 673.205402 
L 591.860841 675.609403 
L 591.910283 671.760573 
L 591.920313 676.095059 
L 591.969703 676.095059 
L 591.999573 671.760573 
L 592.080316 675.123746 
L 592.110233 676.568575 
L 592.130473 672.24623 
L 592.140206 675.123746 
L 592.337083 672.24623 
L 592.422526 671.760573 
L 592.454176 676.095059 
L 592.463929 671.274916 
L 592.563476 675.609403 
L 592.614433 676.095059 
L 592.593192 671.760573 
L 592.624286 675.609403 
L 592.633947 671.274916 
L 592.643972 676.095059 
L 592.733502 676.095059 
L 592.752838 676.095059 
L 592.763076 671.274916 
L 592.863317 675.609403 
L 592.913138 676.095059 
L 592.893008 673.678917 
L 592.92324 675.609403 
L 592.933626 672.719745 
L 592.997527 676.568575 
L 593.028025 675.609403 
L 593.074607 676.568575 
L 593.065046 672.719745 
L 593.095391 675.609403 
L 593.105471 671.760573 
L 593.164795 676.568575 
L 593.194588 674.164574 
L 593.295317 676.568575 
L 593.234565 671.760573 
L 593.304707 675.609403 
L 593.385407 676.095059 
L 593.405084 671.760573 
L 593.484261 676.095059 
L 593.524664 675.609403 
L 593.535588 671.760573 
L 593.555555 676.568575 
L 593.615122 675.609403 
L 593.810971 676.095059 
L 593.90912 671.760573 
L 593.949929 672.719745 
L 594.030484 675.609403 
L 594.001969 671.760573 
L 594.040953 671.760573 
L 594.051396 659.716285 
L 594.159383 663.0916 
L 594.249618 652.977798 
L 594.282421 654.422627 
L 594.290577 653.463455 
L 594.300701 661.646771 
L 594.390827 654.422627 
L 594.409875 654.908283 
L 594.420115 653.949111 
L 594.450438 693.420864 
L 594.480472 652.977798 
L 594.53101 655.867455 
L 594.581071 652.504282 
L 594.561427 667.911743 
L 594.591571 653.463455 
L 594.601383 669.830087 
L 594.662106 639.974338 
L 594.701407 136.809658 
L 594.77182 609.645074 
L 594.782674 609.645074 
L 594.792628 615.424389 
L 594.842376 604.824931 
L 594.862804 609.645074 
L 594.872487 592.792784 
L 594.972075 604.351415 
L 595.033609 608.200245 
L 595.082399 605.310587 
L 595.092356 604.351415 
L 595.292031 604.351415 
L 595.29967 603.865758 
L 595.349807 606.755416 
L 595.389521 604.351415 
L 595.518422 609.159417 
L 595.548424 604.351415 
L 595.568616 609.645074 
L 595.638866 604.824931 
L 595.668564 606.269759 
L 595.759355 311.111867 
L 595.709577 608.200245 
L 595.778916 464.2273 
L 595.788555 606.755416 
L 595.890324 605.310587 
L 595.900458 604.824931 
L 595.930824 607.241073 
L 595.939897 458.447985 
L 595.999975 611.575559 
L 596.040413 606.269759 
L 596.050203 605.796244 
L 596.100913 560.533035 
L 596.152199 605.796244 
L 596.171442 142.103316 
L 596.243114 610.130731 
L 596.262922 579.303668 
L 596.292764 606.755416 
L 596.312384 240.327395 
L 596.342512 609.645074 
L 596.403069 609.159417 
L 596.413043 592.307128 
L 596.513366 605.796244 
L 596.532959 608.685902 
L 596.563567 605.796244 
L 596.767983 606.269759 
L 596.885183 691.50252 
L 596.895485 691.50252 
L 596.99402 690.057691 
L 596.944045 691.976035 
L 597.004279 690.543348 
L 597.084375 690.057691 
L 597.114551 691.50252 
L 597.164209 690.057691 
L 597.185803 692.461692 
L 597.255472 469.047443 
L 597.295529 605.310587 
L 597.365893 609.159417 
L 597.335469 604.351415 
L 597.405925 606.755416 
L 597.497403 604.351415 
L 597.436099 608.200245 
L 597.517649 606.269759 
L 597.53743 606.269759 
L 597.547152 604.824931 
L 597.557549 605.310587 
L 597.567651 242.731396 
L 597.608763 606.755416 
L 597.668346 438.232522 
L 597.69852 691.976035 
L 597.789071 691.016863 
L 597.878806 690.057691 
L 597.829152 691.976035 
L 597.89176 690.543348 
L 597.918727 690.057691 
L 598.000709 691.976035 
L 598.010854 690.057691 
L 598.030372 606.755416 
L 598.30103 691.976035 
L 598.339013 691.50252 
L 598.4298 691.976035 
L 598.358451 690.057691 
L 598.439856 691.016863 
L 598.470038 691.016863 
L 598.479928 691.976035 
L 598.488985 677.054231 
L 598.588284 690.543348 
L 598.689596 691.976035 
L 598.799202 690.543348 
L 598.820244 691.976035 
L 598.850829 683.319204 
L 598.870783 604.824931 
L 598.941285 691.976035 
L 598.960913 689.572034 
L 599.070304 691.976035 
L 599.09074 690.057691 
L 599.191017 691.50252 
L 599.233028 691.976035 
L 599.302947 682.833547 
L 599.412938 691.976035 
L 599.472712 689.572034 
L 599.50223 691.50252 
L 599.734717 599.045615 
L 599.824324 691.976035 
L 599.85499 690.057691 
L 599.935119 689.572034 
L 599.965497 691.976035 
L 600.025214 690.057691 
L 600.074973 690.543348 
L 600.135378 691.976035 
L 600.115323 689.098519 
L 600.18502 691.50252 
L 600.234989 690.057691 
L 600.225096 691.976035 
L 600.286136 691.016863 
L 600.346231 692.461692 
L 600.316613 689.572034 
L 600.396286 691.976035 
L 600.515816 660.201942 
L 600.56595 600.016929 
L 600.597126 691.976035 
L 600.617248 691.50252 
L 600.626559 690.057691 
L 600.646009 691.976035 
L 600.716184 691.016863 
L 600.7765 691.976035 
L 600.757381 690.057691 
L 600.826454 691.50252 
L 600.85677 691.976035 
L 600.928033 682.833547 
L 600.948602 691.50252 
L 600.968781 690.543348 
L 601.16282 691.976035 
L 601.170593 691.50252 
L 601.258564 690.543348 
L 601.200442 691.976035 
L 601.269532 691.016863 
L 601.330648 691.976035 
L 601.309473 690.057691 
L 601.340695 690.543348 
L 601.431649 589.41747 
L 601.45229 609.645074 
L 601.571276 691.976035 
L 601.59114 691.976035 
L 601.640602 689.572034 
L 601.702181 691.976035 
L 601.730614 690.057691 
L 601.821318 691.016863 
L 601.901191 690.057691 
L 601.931241 691.976035 
L 601.992111 690.057691 
L 602.041647 690.543348 
L 602.081087 689.572034 
L 602.151634 691.976035 
L 602.171805 690.543348 
L 602.231917 592.792784 
L 602.263119 691.976035 
L 602.282257 691.016863 
L 602.371698 690.057691 
L 602.312458 691.976035 
L 602.381297 690.543348 
L 602.400739 691.976035 
L 602.420135 690.057691 
L 602.440674 691.50252 
L 602.63519 690.057691 
L 602.743267 691.976035 
L 602.833444 665.022085 
L 602.86313 138.728002 
L 602.94284 606.269759 
L 602.952932 606.269759 
L 602.972713 134.393515 
L 603.03398 610.130731 
L 603.054197 608.685902 
L 603.064747 589.41747 
L 603.075078 610.130731 
L 603.165075 606.755416 
L 603.175437 608.200245 
L 603.22482 603.380102 
L 603.315957 492.152564 
L 603.30521 609.159417 
L 603.326941 605.796244 
L 603.426466 610.130731 
L 603.346471 605.310587 
L 603.438081 608.685902 
L 603.478076 604.351415 
L 603.557807 604.824931 
L 603.569159 604.824931 
L 603.619175 606.755416 
L 603.677999 606.269759 
L 603.687502 604.824931 
L 603.728674 605.796244 
L 603.738482 391.524484 
L 603.79886 691.976035 
L 603.828802 690.543348 
L 603.839242 691.50252 
L 603.902063 604.351415 
L 603.911338 608.685902 
L 604.189698 691.976035 
L 604.209181 690.543348 
L 604.291017 689.572034 
L 604.273888 691.976035 
L 604.302691 690.543348 
L 604.312251 691.976035 
L 604.38027 689.572034 
L 604.410307 691.50252 
L 604.509578 690.057691 
L 604.489556 691.976035 
L 604.519367 691.50252 
L 604.569964 691.976035 
L 604.548813 690.057691 
L 604.588864 691.016863 
L 604.599056 689.572034 
L 604.609594 691.976035 
L 604.668434 691.976035 
L 604.75018 393.928485 
L 604.790419 579.303668 
L 604.820357 588.943955 
L 604.829415 570.16118 
L 604.879518 576.899667 
L 604.910295 354.444591 
L 604.969176 582.678983 
L 604.989684 574.495666 
L 605.080512 584.609468 
L 605.100545 582.193326 
L 605.190042 580.274982 
L 605.140556 582.678983 
L 605.200739 580.748497 
L 605.261696 582.193326 
L 605.271739 580.748497 
L 605.30239 582.193326 
L 605.322413 561.00655 
L 605.381548 668.385258 
L 605.579502 668.385258 
L 605.68781 666.466914 
L 605.597476 668.870915 
L 605.69776 667.426086 
L 605.777607 665.981257 
L 605.807842 668.385258 
L 605.907232 666.466914 
L 605.917343 668.385258 
L 606.029308 666.466914 
L 606.03881 667.911743 
L 606.048188 667.911743 
L 606.157569 666.466914 
L 606.078859 668.385258 
L 606.167455 667.426086 
L 606.197329 666.940429 
L 606.277045 668.385258 
L 606.336327 665.981257 
L 606.457362 494.568706 
L 606.517732 589.41747 
L 606.577504 587.499126 
L 606.587402 587.499126 
L 606.678096 584.123811 
L 606.706562 585.56864 
L 606.798352 593.751957 
L 606.771048 584.609468 
L 606.829886 591.347956 
L 606.839017 587.013469 
L 606.85897 590.862299 
L 607.167324 673.678917 
L 607.228334 572.091665 
L 607.270155 672.24623 
L 607.290095 671.760573 
L 607.308695 672.719745 
L 607.358337 288.480262 
L 607.439089 585.56864 
L 607.507181 584.609468 
L 607.536188 587.013469 
L 607.626299 583.638155 
L 607.576277 594.237613 
L 607.648244 586.054297 
L 607.716485 584.123811 
L 607.696464 587.499126 
L 607.767303 585.56864 
L 607.777416 586.054297 
L 607.906843 672.24623 
L 607.926216 672.24623 
L 607.976309 670.801401 
L 607.99666 673.205402 
L 608.016689 585.56864 
L 608.107641 672.719745 
L 608.117133 672.719745 
L 608.177153 673.678917 
L 608.237686 662.132428 
L 608.307386 672.24623 
L 608.327787 671.760573 
L 608.520299 670.801401 
L 608.629963 672.24623 
L 608.610015 669.830087 
L 608.640216 671.760573 
L 608.649738 670.315744 
L 608.66992 672.24623 
L 608.740998 671.274916 
L 608.780275 670.315744 
L 608.83363 672.24623 
L 608.842037 577.385324 
L 608.902457 673.205402 
L 608.943957 672.719745 
L 609.026126 671.760573 
L 608.963511 673.205402 
L 609.045013 673.205402 
L 609.054341 673.678917 
L 609.074461 670.801401 
L 609.114258 672.24623 
L 609.166364 670.315744 
L 609.216019 671.760573 
L 609.285098 672.719745 
L 609.246606 670.801401 
L 609.325284 671.760573 
L 609.416701 670.315744 
L 609.355129 672.24623 
L 609.435916 671.760573 
L 609.446147 671.760573 
L 609.545227 670.801401 
L 609.525837 672.719745 
L 609.555444 671.760573 
L 609.576485 671.760573 
L 609.64651 672.719745 
L 609.665926 657.797941 
L 609.677287 583.638155 
L 609.73647 672.719745 
L 609.767458 672.719745 
L 609.787449 673.678917 
L 609.797379 671.760573 
L 609.807559 672.719745 
L 610.004251 670.315744 
L 610.122165 672.24623 
L 610.212615 670.315744 
L 610.23254 671.760573 
L 610.242798 671.760573 
L 610.341034 670.315744 
L 610.292664 672.719745 
L 610.351274 670.801401 
L 610.391061 670.315744 
L 610.461294 672.24623 
L 610.471645 670.801401 
L 610.49132 672.24623 
L 610.522616 585.082984 
L 610.592876 673.678917 
L 610.683145 665.981257 
L 610.703335 672.719745 
L 610.713241 672.719745 
L 610.723442 670.801401 
L 610.753442 673.205402 
L 610.823464 671.760573 
L 610.844249 672.719745 
L 610.853559 670.801401 
L 610.933986 672.24623 
L 611.02475 670.801401 
L 611.044903 671.760573 
L 611.098171 672.719745 
L 611.06487 670.801401 
L 611.147164 671.760573 
L 611.236169 670.801401 
L 611.225714 672.24623 
L 611.24657 672.24623 
L 611.266303 672.24623 
L 611.275731 670.801401 
L 611.286342 671.274916 
L 611.481704 673.205402 
L 611.489914 663.577256 
L 611.588805 672.719745 
L 611.698837 670.801401 
L 611.63746 673.678917 
L 611.708411 671.274916 
L 611.747518 670.315744 
L 611.819694 672.24623 
L 611.909348 670.801401 
L 611.930599 671.760573 
L 611.941384 671.760573 
L 611.960129 672.24623 
L 612.03963 670.801401 
L 612.14971 672.24623 
L 612.160004 671.760573 
L 612.169551 573.050837 
L 612.229873 672.24623 
L 612.269571 671.760573 
L 612.27956 671.760573 
L 612.289364 672.719745 
L 612.300106 660.687599 
L 612.32973 673.678917 
L 612.399254 673.205402 
L 612.428805 670.801401 
L 612.479106 673.678917 
L 612.529294 672.24623 
L 612.619492 672.719745 
L 612.558657 670.801401 
L 612.63944 672.24623 
L 612.735745 670.801401 
L 612.710521 672.719745 
L 612.740733 672.24623 
L 612.761002 672.24623 
L 612.95398 670.801401 
L 612.972082 672.24623 
L 612.990806 670.801401 
L 613.001395 571.606009 
L 613.061192 672.24623 
L 613.091789 672.24623 
L 613.143118 672.24623 
L 613.15251 670.801401 
L 613.172564 673.205402 
L 613.242049 671.760573 
L 613.323665 670.315744 
L 613.353234 673.205402 
L 613.423176 668.870915 
L 613.504267 671.274916 
L 613.534323 670.801401 
L 613.614525 672.24623 
L 613.624725 670.315744 
L 613.694836 672.719745 
L 613.727546 671.760573 
L 613.754455 670.315744 
L 613.824143 672.719745 
L 613.834167 582.678983 
L 613.924872 660.201942 
L 614.035535 673.205402 
L 614.045665 672.719745 
L 614.136553 670.801401 
L 614.075902 673.678917 
L 614.147804 671.760573 
L 614.206546 673.205402 
L 614.176416 671.274916 
L 614.227743 672.719745 
L 614.422817 670.801401 
L 614.431374 671.760573 
L 614.500264 672.24623 
L 614.469763 670.315744 
L 614.540333 671.760573 
L 614.573848 672.24623 
L 614.640465 670.315744 
L 614.651693 672.24623 
L 614.680705 584.609468 
L 614.761548 670.801401 
L 614.881875 673.205402 
L 614.931832 671.274916 
L 614.951947 673.678917 
L 614.992271 672.719745 
L 615.002185 672.719745 
L 615.081709 673.205402 
L 615.022288 670.315744 
L 615.091737 672.24623 
L 615.191211 670.315744 
L 615.201615 671.760573 
L 615.221555 672.719745 
L 615.272145 670.315744 
L 615.31224 672.24623 
L 615.361539 670.315744 
L 615.383379 672.719745 
L 615.422341 671.274916 
L 615.442126 671.760573 
L 615.513471 586.054297 
L 615.461915 672.24623 
L 615.543342 654.908283 
L 615.65451 672.24623 
L 615.664437 670.315744 
L 615.70611 670.801401 
L 615.900621 672.24623 
L 615.997534 669.830087 
L 615.929525 673.205402 
L 616.007164 671.760573 
L 616.077263 670.315744 
L 616.107882 672.719745 
L 616.11767 670.315744 
L 616.217224 672.24623 
L 616.28778 670.801401 
L 616.317711 672.24623 
L 616.328737 581.71981 
L 616.419917 670.801401 
L 616.440952 672.719745 
L 616.539639 672.24623 
L 616.549186 670.315744 
L 616.608296 673.205402 
L 616.638373 671.760573 
L 616.71056 673.678917 
L 616.67983 671.274916 
L 616.759265 673.205402 
L 616.818857 670.315744 
L 616.868803 672.24623 
L 616.978759 670.315744 
L 616.908873 672.719745 
L 616.989011 671.760573 
L 617.068508 670.315744 
L 617.098427 672.24623 
L 617.149365 670.801401 
L 617.17055 586.527812 
L 617.481827 673.205402 
L 617.579945 671.274916 
L 617.561031 673.678917 
L 617.590814 672.719745 
L 617.619542 672.719745 
L 617.710711 670.315744 
L 617.639811 673.205402 
L 617.730017 672.24623 
L 617.73977 672.24623 
L 617.840088 670.315744 
L 617.810369 672.719745 
L 617.860326 671.760573 
L 617.880038 670.801401 
L 617.96134 672.24623 
L 617.970306 670.801401 
L 617.980947 672.719745 
L 618.010107 584.609468 
L 618.091108 672.24623 
L 618.181204 670.315744 
L 618.201336 672.24623 
L 618.211516 672.24623 
L 618.222122 670.801401 
L 618.301505 672.719745 
L 618.321125 672.24623 
L 618.331191 673.678917 
L 618.350922 671.274916 
L 618.422681 672.719745 
L 618.461826 673.205402 
L 618.532043 671.274916 
L 618.551452 672.719745 
L 618.570873 670.801401 
L 618.642894 672.24623 
L 618.834375 584.609468 
L 618.865431 589.903127 
L 618.983969 672.24623 
L 619.084394 670.801401 
L 619.034464 672.719745 
L 619.094319 671.760573 
L 619.124371 670.801401 
L 619.205069 673.205402 
L 619.302738 670.801401 
L 619.313263 672.719745 
L 619.403382 669.356572 
L 619.373904 673.678917 
L 619.414639 671.760573 
L 619.463711 134.879172 
L 619.523721 604.824931 
L 619.553441 604.351415 
L 619.664181 610.130731 
L 619.707511 591.833612 
L 619.783615 605.796244 
L 619.824543 606.755416 
L 619.856476 604.824931 
L 619.884047 605.796244 
L 619.894076 481.07959 
L 619.923771 691.50252 
L 619.983949 690.543348 
L 619.994275 690.543348 
L 620.05344 691.976035 
L 620.033285 690.057691 
L 620.113204 691.50252 
L 620.30926 691.016863 
L 620.374829 689.572034 
L 620.406931 691.976035 
L 620.425566 685.723204 
L 620.47543 691.016863 
L 620.585611 179.656725 
L 620.605978 605.796244 
L 620.616925 606.269759 
L 620.626772 605.796244 
L 620.635772 612.534732 
L 620.675488 604.824931 
L 620.7357 607.241073 
L 620.795148 604.351415 
L 620.85663 605.796244 
L 620.905528 606.269759 
L 620.925184 604.351415 
L 620.935656 603.865758 
L 620.957483 606.269759 
L 620.987361 605.796244 
L 621.016577 605.310587 
L 621.037662 607.714588 
L 621.128396 691.50252 
L 621.157647 691.016863 
L 621.217605 691.976035 
L 621.19862 690.057691 
L 621.227979 690.543348 
L 621.329182 604.824931 
L 621.298252 691.976035 
L 621.368235 672.719745 
L 621.477754 691.976035 
L 621.48752 690.543348 
L 621.507727 690.543348 
L 621.559641 691.50252 
L 621.529641 689.572034 
L 621.57881 690.543348 
L 621.773534 691.50252 
L 621.83076 690.057691 
L 621.859494 691.50252 
L 621.983742 738.711817 
L 622.05671 738.706523 
L 622.406207 738.701229 
L 623.056165 738.705078 
L 634.474998 738.707009 
L 634.667271 738.712302 
L 825.199602 738.705078 
L 825.379053 717.023782 
L 825.398203 721.831784 
L 825.407932 721.831784 
L 825.428046 721.358269 
L 825.479022 721.831784 
L 825.578729 687.65369 
L 825.599473 688.127205 
L 825.639471 686.682377 
L 825.699619 688.612862 
L 825.748403 687.168033 
L 825.808812 688.612862 
L 825.899494 687.65369 
L 825.908628 688.612862 
L 825.989985 689.572034 
L 825.929669 688.127205 
L 826.01058 689.098519 
L 826.058928 687.168033 
L 826.038649 689.572034 
L 826.127816 688.127205 
L 826.188386 687.65369 
L 826.168233 688.612862 
L 826.198042 688.127205 
L 826.394874 688.127205 
L 826.485043 687.168033 
L 826.414227 688.612862 
L 826.50516 687.65369 
L 826.596677 688.612862 
L 826.524466 687.168033 
L 826.615895 688.127205 
L 826.666968 687.168033 
L 826.655358 688.612862 
L 826.726705 688.127205 
L 826.82669 687.65369 
L 826.835898 688.612862 
L 826.895304 687.168033 
L 826.935482 687.65369 
L 826.944696 687.65369 
L 826.954574 687.168033 
L 826.964853 688.127205 
L 827.045138 687.65369 
L 827.155277 688.127205 
L 827.25692 687.168033 
L 827.267725 687.65369 
L 827.287547 687.65369 
L 827.4073 689.098519 
L 827.526838 687.168033 
L 827.617284 691.016863 
L 827.637745 690.543348 
L 827.647763 679.458232 
L 827.667728 686.682377 
L 827.931639 682.833547 
L 827.941612 683.792719 
L 827.991163 684.278376 
L 828.010921 682.34789 
L 828.042528 683.792719 
L 828.06274 684.278376 
L 828.142268 682.833547 
L 828.212789 684.278376 
L 828.252906 683.319204 
L 828.262745 683.319204 
L 828.322215 684.278376 
L 828.35164 682.833547 
L 828.362798 684.278376 
L 828.392426 682.34789 
L 828.463713 683.792719 
L 828.563342 681.874375 
L 828.574266 683.319204 
L 828.634516 684.278376 
L 828.603723 682.833547 
L 828.683505 683.792719 
L 828.733473 682.34789 
L 828.703945 684.278376 
L 828.79333 683.792719 
L 828.884026 684.764032 
L 828.824064 682.34789 
L 828.893847 683.792719 
L 828.904165 682.34789 
L 828.974204 684.278376 
L 829.003945 683.792719 
L 829.04362 682.833547 
L 829.114132 684.278376 
L 829.124314 683.319204 
L 829.135296 684.278376 
L 829.340953 684.278376 
L 829.429096 684.764032 
L 829.369518 682.833547 
L 829.449418 684.278376 
L 829.538954 683.319204 
L 829.479292 684.764032 
L 829.559694 684.278376 
L 829.56981 684.278376 
L 829.648567 684.764032 
L 829.668639 682.833547 
L 829.729586 684.764032 
L 829.779587 684.278376 
L 829.879798 682.833547 
L 829.889667 684.278376 
L 829.910089 684.278376 
L 829.929429 683.319204 
L 829.95898 683.792719 
L 830.018895 671.274916 
L 830.068789 675.123746 
L 830.169059 676.568575 
L 830.108291 671.760573 
L 830.178673 676.095059 
L 830.189361 671.274916 
L 830.209272 676.568575 
L 830.280136 675.123746 
L 830.379833 676.568575 
L 830.36003 671.760573 
L 830.389635 676.095059 
L 830.489923 672.24623 
L 830.419366 676.568575 
L 830.499909 675.609403 
L 830.519689 675.609403 
L 830.570316 672.24623 
L 830.540456 676.095059 
L 830.610778 673.205402 
L 830.817843 676.568575 
L 830.838687 674.65023 
L 830.928456 671.760573 
L 830.907896 677.054231 
L 830.938642 676.095059 
L 830.949786 676.095059 
L 831.009326 672.24623 
L 830.989087 676.568575 
L 831.059634 674.65023 
L 831.069954 677.054231 
L 831.099584 672.24623 
L 831.169749 676.095059 
L 831.180011 672.24623 
L 831.200232 676.568575 
L 831.271332 674.65023 
L 831.310701 671.760573 
L 831.380399 676.568575 
L 831.480394 671.760573 
L 831.490555 675.123746 
L 831.530703 673.678917 
L 831.560548 676.095059 
L 831.650868 671.760573 
L 831.671128 676.095059 
L 831.681016 676.095059 
L 831.74078 671.760573 
L 831.710962 676.568575 
L 831.7914 675.609403 
L 831.801847 676.095059 
L 831.811367 675.609403 
L 831.911377 671.760573 
L 831.841247 676.568575 
L 831.921639 675.609403 
L 831.941314 676.568575 
L 831.951294 672.24623 
L 832.031719 676.095059 
L 832.081702 672.24623 
L 832.362417 683.792719 
L 832.372641 683.319204 
L 832.472011 681.874375 
L 832.402744 683.792719 
L 832.482741 683.319204 
L 832.572356 683.792719 
L 832.552205 681.874375 
L 832.584063 683.319204 
L 832.593669 681.874375 
L 832.66335 683.792719 
L 832.684292 683.319204 
L 832.75381 683.792719 
L 832.715299 682.34789 
L 832.793772 683.319204 
L 832.81537 683.792719 
L 832.894256 682.34789 
L 832.996281 683.792719 
L 832.935059 681.388718 
L 833.005536 683.319204 
L 833.015398 682.34789 
L 833.025879 683.792719 
L 833.107401 683.319204 
L 833.116882 683.792719 
L 833.220902 682.34789 
L 833.231528 683.319204 
L 833.316148 683.792719 
L 833.239008 682.34789 
L 833.336561 683.319204 
L 833.519674 670.801401 
L 833.560161 671.760573 
L 833.752091 673.205402 
L 833.76158 672.719745 
L 833.77089 670.315744 
L 833.841447 673.678917 
L 833.861184 670.801401 
L 833.962484 674.164574 
L 833.972691 673.205402 
L 834.071708 671.274916 
L 834.001744 673.678917 
L 834.08202 672.719745 
L 834.111724 671.760573 
L 834.152909 673.205402 
L 834.252377 670.801401 
L 834.26132 673.205402 
L 834.282089 673.205402 
L 834.372618 671.274916 
L 834.3924 672.719745 
L 834.402644 672.719745 
L 834.443055 673.678917 
L 834.502079 669.830087 
L 834.622506 677.539888 
L 834.632082 676.095059 
L 834.701976 678.013403 
L 834.753448 677.054231 
L 834.773301 677.539888 
L 834.854088 676.568575 
L 834.893548 676.095059 
L 834.963418 677.539888 
L 835.02442 676.568575 
L 835.224635 677.054231 
L 835.234336 675.609403 
L 835.263266 677.539888 
L 835.32376 676.095059 
L 835.433956 677.539888 
L 835.493626 676.095059 
L 835.554451 677.054231 
L 835.656265 676.095059 
L 835.595013 677.539888 
L 835.666057 676.568575 
L 835.766569 678.013403 
L 835.706259 676.095059 
L 835.776463 677.539888 
L 835.875488 676.095059 
L 835.88534 677.054231 
L 835.925542 678.013403 
L 835.964396 675.609403 
L 835.99422 677.054231 
L 836.046052 675.609403 
L 836.014687 677.539888 
L 836.096186 676.568575 
L 836.196294 677.539888 
L 836.206135 677.054231 
L 836.216464 677.054231 
L 836.265756 676.095059 
L 836.236156 678.013403 
L 836.316668 677.539888 
L 836.406014 678.013403 
L 836.356213 676.568575 
L 836.426189 677.539888 
L 836.476665 676.095059 
L 836.49727 678.49906 
L 836.689714 676.568575 
L 836.699847 677.054231 
L 836.759516 677.539888 
L 836.729832 676.568575 
L 836.76973 676.568575 
L 836.819559 672.24623 
L 836.900958 672.719745 
L 836.919756 677.054231 
L 836.940473 671.760573 
L 837.010142 676.095059 
L 837.069941 672.24623 
L 837.049133 676.568575 
L 837.120358 674.164574 
L 837.161198 671.760573 
L 837.229115 676.568575 
L 837.281285 673.205402 
L 837.340739 676.095059 
L 837.350289 676.095059 
L 837.361072 677.054231 
L 837.370683 672.24623 
L 837.449473 675.609403 
L 837.549227 671.760573 
L 837.479624 676.568575 
L 837.559183 676.095059 
L 837.570299 676.568575 
L 837.580826 676.095059 
L 837.5905 671.274916 
L 837.609757 676.568575 
L 837.681543 676.095059 
L 837.691669 676.568575 
L 837.720892 673.205402 
L 837.750232 675.609403 
L 837.7605 671.760573 
L 837.780108 676.568575 
L 837.851302 672.719745 
L 837.910778 676.568575 
L 837.930069 672.24623 
L 837.961398 676.095059 
L 837.970611 675.609403 
L 838.166849 676.568575 
L 838.17424 676.095059 
L 838.223526 672.719745 
L 838.284727 676.095059 
L 838.303259 676.095059 
L 838.40368 671.760573 
L 838.413411 676.095059 
L 838.423901 676.095059 
L 838.514243 676.568575 
L 838.534224 672.24623 
L 838.583616 676.568575 
L 838.614674 671.760573 
L 838.643109 675.609403 
L 838.673138 676.095059 
L 838.742801 672.24623 
L 838.864609 676.568575 
L 838.963733 671.760573 
L 838.973977 676.095059 
L 838.984719 676.568575 
L 839.002633 674.65023 
L 839.123261 658.271456 
L 839.173451 653.463455 
L 839.243448 654.908283 
L 839.303553 653.463455 
L 839.324061 655.867455 
L 839.363602 654.422627 
L 839.37395 654.908283 
L 839.404611 693.420864 
L 839.434224 653.949111 
L 839.65085 575.940495 
L 839.668558 605.310587 
L 839.69796 610.130731 
L 839.708588 268.738315 
L 839.728117 610.604246 
L 839.798989 605.310587 
L 839.888178 604.351415 
L 839.928951 609.159417 
L 840.009227 605.310587 
L 839.969783 609.645074 
L 840.039773 606.755416 
L 840.0497 613.020388 
L 840.130702 605.796244 
L 840.150473 609.645074 
L 840.160026 595.682442 
L 840.261384 604.351415 
L 840.311298 608.200245 
L 840.322059 601.461758 
L 840.382296 605.796244 
L 840.392098 604.351415 
L 840.412243 606.755416 
L 840.48187 605.310587 
L 840.511663 604.824931 
L 840.592223 606.755416 
L 840.601834 605.310587 
L 840.623064 606.755416 
L 840.633578 626.497363 
L 840.64331 591.833612 
L 840.652377 600.016929 
L 840.662377 319.78084 
L 840.70234 612.534732 
L 840.761886 605.796244 
L 840.862119 604.351415 
L 840.792025 606.269759 
L 840.872376 605.310587 
L 840.892473 606.269759 
L 840.902154 604.351415 
L 840.911877 604.351415 
L 841.128334 609.645074 
L 841.189276 559.573862 
L 841.238319 583.164639 
L 841.248224 603.865758 
L 841.259394 133.92 
L 841.298316 610.130731 
L 841.358492 588.458298 
L 841.368556 584.609468 
L 841.418367 606.269759 
L 841.438142 607.714588 
L 841.448383 587.013469 
L 841.539509 605.796244 
L 841.551389 605.796244 
L 841.650044 602.42093 
L 841.580022 606.269759 
L 841.659558 605.796244 
L 841.690742 604.824931 
L 841.770413 610.130731 
L 841.860654 587.499126 
L 841.871082 593.751957 
L 841.982312 691.976035 
L 841.99219 691.016863 
L 842.080888 690.057691 
L 842.020664 692.461692 
L 842.091564 691.50252 
L 842.182782 692.461692 
L 842.121308 690.543348 
L 842.192955 691.976035 
L 842.251741 690.057691 
L 842.281958 692.461692 
L 842.302836 691.016863 
L 842.333655 690.543348 
L 842.393483 691.976035 
L 842.587982 691.016863 
L 842.595997 691.50252 
L 842.674978 587.972641 
L 842.72647 611.575559 
L 842.846308 605.310587 
L 842.86773 607.241073 
L 842.918182 604.824931 
L 842.948612 606.269759 
L 843.048154 604.824931 
L 842.988957 607.241073 
L 843.058591 605.796244 
L 843.08828 605.310587 
L 843.10878 606.755416 
L 843.119142 594.72327 
L 843.159675 604.351415 
L 843.248153 691.976035 
L 843.278242 691.50252 
L 843.308078 690.543348 
L 843.378351 691.976035 
L 843.387714 690.543348 
L 843.427997 691.016863 
L 843.457841 606.755416 
L 843.499441 691.976035 
L 843.529757 691.976035 
L 843.589761 690.543348 
L 843.650464 691.016863 
L 843.700411 692.461692 
L 843.680354 690.543348 
L 843.750293 691.50252 
L 843.76069 690.057691 
L 843.791527 691.976035 
L 843.860263 691.016863 
L 844.058625 691.016863 
L 844.106059 690.543348 
L 844.175829 691.976035 
L 844.264554 680.429546 
L 844.315817 586.527812 
L 844.336315 691.976035 
L 844.364837 691.016863 
L 844.456862 691.976035 
L 844.467437 691.50252 
L 844.497766 691.976035 
L 844.567742 690.543348 
L 844.678097 691.976035 
L 844.687987 691.50252 
L 844.726164 692.461692 
L 844.787398 690.543348 
L 844.847635 691.976035 
L 844.86699 690.057691 
L 844.898011 690.543348 
L 845.018159 691.976035 
L 845.078104 690.543348 
L 845.088499 691.50252 
L 845.128334 604.824931 
L 845.177806 691.976035 
L 845.198172 691.976035 
L 845.29831 690.543348 
L 845.22823 692.461692 
L 845.308341 691.976035 
L 845.318969 691.976035 
L 845.33846 691.016863 
L 845.536664 691.976035 
L 845.544574 690.057691 
L 845.603259 692.461692 
L 845.643649 691.976035 
L 845.654139 691.976035 
L 845.755397 690.543348 
L 845.764165 691.976035 
L 845.784839 691.976035 
L 845.834673 690.543348 
L 845.894255 691.016863 
L 845.914013 691.976035 
L 845.923056 691.016863 
L 845.982725 586.054297 
L 845.992406 691.976035 
L 846.033003 691.50252 
L 846.124258 692.461692 
L 846.133993 690.543348 
L 846.143741 690.057691 
L 846.16459 691.976035 
L 846.223949 690.543348 
L 846.273733 690.057691 
L 846.344335 692.461692 
L 846.354657 690.057691 
L 846.456097 691.976035 
L 846.465475 692.461692 
L 846.52589 690.543348 
L 846.555884 691.976035 
L 846.615344 690.543348 
L 846.626793 692.461692 
L 846.665699 691.50252 
L 846.726037 692.461692 
L 846.746161 690.543348 
L 846.756494 691.50252 
L 846.786289 605.310587 
L 846.806091 609.645074 
L 847.048652 692.461692 
L 847.118087 691.016863 
L 847.15817 690.057691 
L 847.148418 692.461692 
L 847.217896 691.50252 
L 847.238147 692.461692 
L 847.247832 690.543348 
L 847.327945 691.976035 
L 847.396673 690.057691 
L 847.367986 692.461692 
L 847.43825 691.50252 
L 847.517973 690.543348 
L 847.528831 691.976035 
L 847.647376 597.600786 
L 847.748445 692.461692 
L 847.768806 690.543348 
L 847.838427 470.006616 
L 847.848988 605.310587 
L 847.859364 258.624513 
L 847.88023 610.130731 
L 847.950246 606.269759 
L 847.960422 606.269759 
L 848.060276 604.824931 
L 848.000266 606.755416 
L 848.070288 605.310587 
L 848.090638 606.755416 
L 848.150166 604.824931 
L 848.18035 606.269759 
L 848.190143 604.824931 
L 848.19975 538.860602 
L 848.261 607.241073 
L 848.280744 605.310587 
L 848.481253 590.388784 
L 848.598118 607.714588 
L 848.629116 604.824931 
L 848.638872 605.796244 
L 848.649424 465.672129 
L 848.659885 691.976035 
L 848.740463 691.976035 
L 848.799868 690.057691 
L 848.829667 692.461692 
L 848.84929 691.016863 
L 848.889369 690.543348 
L 848.9603 691.976035 
L 849.059434 690.057691 
L 849.068524 691.016863 
L 849.109991 690.057691 
L 849.138509 691.976035 
L 849.148666 681.388718 
L 849.240269 691.016863 
L 849.2501 691.976035 
L 849.340209 463.268128 
L 849.380142 585.56864 
L 849.390957 586.054297 
L 849.400984 582.678983 
L 849.4307 310.62621 
L 849.439683 583.638155 
L 849.511008 582.193326 
L 849.5809 583.638155 
L 849.610538 580.748497 
L 849.640864 583.164639 
L 849.720799 582.678983 
L 849.740363 580.748497 
L 849.750175 582.193326 
L 850.062434 668.385258 
L 850.072167 668.385258 
L 850.081954 666.940429 
L 850.102217 582.193326 
L 850.182886 668.385258 
L 850.253727 666.466914 
L 850.233212 668.870915 
L 850.302943 667.911743 
L 850.393391 668.385258 
L 850.34385 666.940429 
L 850.413798 667.911743 
L 850.423449 666.466914 
L 850.43324 668.385258 
L 850.523665 667.911743 
L 850.553473 666.940429 
L 850.633935 668.870915 
L 850.683377 666.940429 
L 850.744238 667.911743 
L 850.795216 668.385258 
L 850.805325 666.466914 
L 850.844572 667.911743 
L 850.90433 666.940429 
L 850.87456 668.870915 
L 850.914646 668.385258 
L 850.975483 563.896208 
L 851.036723 583.164639 
L 851.065509 580.748497 
L 851.125745 586.054297 
L 851.145182 586.054297 
L 851.197483 580.748497 
L 851.176236 586.527812 
L 851.225496 582.193326 
L 851.4841 587.972641 
L 851.524332 587.013469 
L 851.587685 578.830153 
L 851.628559 587.013469 
L 851.638329 587.013469 
L 851.65994 584.609468 
L 851.730545 586.527812 
L 851.749726 589.903127 
L 851.76009 586.527812 
L 851.800617 590.388784 
L 851.850048 514.784168 
L 851.910204 672.719745 
L 851.967779 671.760573 
L 851.997609 671.274916 
L 852.07938 673.678917 
L 852.089188 671.274916 
L 852.189218 672.24623 
L 852.239704 673.678917 
L 852.259976 671.274916 
L 852.308885 452.668669 
L 852.319439 210.471646 
L 852.411543 589.41747 
L 852.461573 585.082984 
L 852.523223 586.527812 
L 852.564365 586.054297 
L 852.624367 589.903127 
L 852.584667 579.789325 
L 852.633933 588.943955 
L 852.643902 575.454838 
L 852.694278 586.527812 
L 852.9552 673.678917 
L 853.005933 673.205402 
L 853.11639 670.315744 
L 853.126389 673.205402 
L 853.226318 671.274916 
L 853.30639 672.719745 
L 853.276508 670.801401 
L 853.346109 672.24623 
L 853.396234 673.205402 
L 853.416222 664.050772 
L 853.445798 585.56864 
L 853.517753 672.719745 
L 853.575301 670.315744 
L 853.625023 672.24623 
L 853.685897 672.719745 
L 853.655341 671.274916 
L 853.726656 672.24623 
L 853.736726 671.274916 
L 853.768119 673.678917 
L 853.827621 671.760573 
L 853.867602 671.274916 
L 853.937961 673.678917 
L 854.038229 670.801401 
L 854.059355 671.760573 
L 854.07887 670.801401 
L 854.149853 672.24623 
L 854.159553 670.801401 
L 854.169322 672.24623 
L 854.363451 672.719745 
L 854.469567 670.801401 
L 854.479569 672.24623 
L 854.499652 672.719745 
L 854.509898 670.801401 
L 854.581746 672.24623 
L 854.591961 671.274916 
L 854.621073 673.678917 
L 854.680558 672.719745 
L 854.690372 672.719745 
L 854.701054 673.205402 
L 854.720701 672.24623 
L 854.760868 672.719745 
L 854.85187 671.274916 
L 854.790808 673.678917 
L 854.8712 671.760573 
L 854.901063 671.274916 
L 854.972923 672.24623 
L 855.082937 640.459995 
L 855.132411 586.054297 
L 855.141944 672.24623 
L 855.181952 672.24623 
L 855.201371 670.315744 
L 855.221354 672.719745 
L 855.291346 671.760573 
L 855.34393 672.719745 
L 855.364202 671.274916 
L 855.393487 672.24623 
L 855.453091 670.801401 
L 855.472829 673.205402 
L 855.492754 671.760573 
L 855.562944 673.678917 
L 855.602447 673.205402 
L 855.622522 671.760573 
L 855.642776 673.205402 
L 855.848441 671.760573 
L 855.856955 672.24623 
L 855.886764 672.719745 
L 855.90712 671.274916 
L 855.937185 586.527812 
L 855.977071 672.719745 
L 856.017119 672.24623 
L 856.106425 672.719745 
L 856.086514 670.801401 
L 856.116401 672.24623 
L 856.207504 672.719745 
L 856.216776 670.801401 
L 856.336537 673.205402 
L 856.346138 661.646771 
L 856.376357 673.678917 
L 856.445794 673.205402 
L 856.507349 673.678917 
L 856.576168 671.760573 
L 856.606099 670.801401 
L 856.676924 672.719745 
L 856.737045 671.274916 
L 856.797365 574.495666 
L 856.847648 672.719745 
L 856.907451 670.315744 
L 856.957077 671.760573 
L 856.967269 671.760573 
L 857.028507 672.719745 
L 857.037419 670.801401 
L 857.067839 672.24623 
L 857.107993 673.205402 
L 857.117751 671.274916 
L 857.313041 671.760573 
L 857.399997 673.205402 
L 857.420941 672.24623 
L 857.460894 670.315744 
L 857.532109 672.719745 
L 857.54184 670.801401 
L 857.572332 672.719745 
L 857.601374 586.527812 
L 857.682691 672.24623 
L 857.74257 672.719745 
L 857.75182 670.801401 
L 857.793116 672.24623 
L 857.883328 670.315744 
L 857.831385 672.719745 
L 857.903909 672.24623 
L 857.963873 670.801401 
L 857.994907 672.719745 
L 858.092561 666.466914 
L 858.071958 673.678917 
L 858.102404 673.205402 
L 858.123002 673.205402 
L 858.132809 671.760573 
L 858.153729 673.678917 
L 858.231613 673.205402 
L 858.241893 674.164574 
L 858.303159 670.801401 
L 858.323494 672.719745 
L 858.383998 670.801401 
L 858.404294 672.719745 
L 858.415569 576.899667 
L 858.514479 671.274916 
L 858.523945 671.274916 
L 858.555568 672.719745 
L 858.564694 670.801401 
L 858.584534 672.24623 
L 858.778426 670.801401 
L 858.845988 672.719745 
L 858.894803 671.760573 
L 858.904997 671.760573 
L 858.984525 673.678917 
L 859.024835 673.205402 
L 859.104559 673.678917 
L 859.135256 669.830087 
L 859.196622 672.719745 
L 859.23584 672.24623 
L 859.295941 573.536494 
L 859.3258 672.719745 
L 859.345068 671.274916 
L 859.445417 672.719745 
L 859.425556 670.801401 
L 859.45516 672.24623 
L 859.555774 670.315744 
L 859.525177 672.719745 
L 859.565524 672.24623 
L 859.586235 672.24623 
L 859.636013 670.801401 
L 859.697007 671.760573 
L 859.796485 673.678917 
L 859.726974 671.274916 
L 859.816512 672.719745 
L 859.827194 672.719745 
L 859.876449 673.678917 
L 859.896286 671.274916 
L 859.926538 672.24623 
L 860.026692 671.274916 
L 859.956709 673.678917 
L 860.036835 672.24623 
L 860.056886 672.24623 
L 860.249806 671.274916 
L 860.335419 670.801401 
L 860.365919 672.719745 
L 860.456962 670.801401 
L 860.477541 672.24623 
L 860.537687 672.719745 
L 860.546629 670.801401 
L 860.577089 672.24623 
L 860.587238 670.801401 
L 860.657785 673.678917 
L 860.676549 671.760573 
L 860.737065 673.678917 
L 860.717953 671.274916 
L 860.787448 672.719745 
L 860.797274 672.719745 
L 860.887672 670.801401 
L 860.827792 673.678917 
L 860.897995 672.24623 
L 860.957368 566.31235 
L 860.997992 671.760573 
L 861.018504 670.315744 
L 861.089252 672.719745 
L 861.188669 670.801401 
L 861.198174 672.24623 
L 861.210095 672.24623 
L 861.228073 671.274916 
L 861.309308 672.719745 
L 861.359068 670.801401 
L 861.419055 672.24623 
L 861.509348 673.205402 
L 861.449857 670.801401 
L 861.519379 672.719745 
L 861.529758 671.274916 
L 861.726393 673.205402 
L 861.732928 671.760573 
L 861.743957 586.054297 
L 861.802476 672.24623 
L 861.842346 672.24623 
L 861.911921 670.801401 
L 861.892277 672.719745 
L 861.952204 671.274916 
L 862.032034 672.719745 
L 862.041788 670.801401 
L 862.071869 672.24623 
L 862.082117 670.801401 
L 862.143247 672.719745 
L 862.174175 671.760573 
L 862.253997 670.801401 
L 862.283631 672.24623 
L 862.333285 670.801401 
L 862.353696 673.205402 
L 862.383032 672.24623 
L 862.40277 674.164574 
L 862.422894 671.760573 
L 862.493371 672.24623 
L 862.503757 672.24623 
L 862.513614 671.274916 
L 862.534435 673.678917 
L 862.56461 673.678917 
L 862.594571 584.123811 
L 862.67419 670.315744 
L 862.79574 672.719745 
L 862.886622 671.274916 
L 862.906529 672.24623 
L 862.96756 665.495601 
L 862.947527 672.719745 
L 862.997892 672.24623 
L 863.19082 671.274916 
L 863.266747 673.678917 
L 863.306693 672.719745 
L 863.389045 673.678917 
L 863.399241 669.830087 
L 863.429225 586.527812 
L 863.469073 672.24623 
L 863.50978 672.24623 
L 863.529131 670.801401 
L 863.598938 672.719745 
L 863.698931 671.274916 
L 863.708995 672.24623 
L 863.71915 672.24623 
L 863.779605 669.830087 
L 863.769652 672.719745 
L 863.828752 670.801401 
L 863.949122 672.719745 
L 863.958721 670.801401 
L 864.060142 672.719745 
L 864.150768 673.678917 
L 864.120969 671.760573 
L 864.170747 673.205402 
L 864.192419 673.205402 
L 864.232562 647.684139 
L 864.304168 672.719745 
L 864.344912 586.527812 
L 864.354761 606.755416 
L 864.364727 604.824931 
L 864.384918 134.879172 
L 864.414219 613.020388 
L 864.46415 153.17629 
L 864.7212 606.755416 
L 864.781078 604.824931 
L 864.841573 606.755416 
L 864.861447 604.351415 
L 864.891618 606.269759 
L 864.931593 604.824931 
L 865.012186 691.976035 
L 865.051462 691.50252 
L 865.06158 691.976035 
L 865.112682 596.641614 
L 865.162795 690.543348 
L 865.233454 691.976035 
L 865.242755 690.057691 
L 865.272742 691.50252 
L 865.303184 691.976035 
L 865.382702 690.543348 
L 865.484351 691.976035 
L 865.494287 691.016863 
L 865.51451 691.016863 
L 865.595523 691.976035 
L 865.574719 690.543348 
L 865.605723 691.50252 
L 865.615522 690.057691 
L 865.694871 692.461692 
L 865.714817 691.016863 
L 865.794816 689.572034 
L 865.825031 691.976035 
L 865.874611 690.543348 
L 865.884975 691.016863 
L 865.91611 604.824931 
L 865.9362 613.493904 
L 866.221638 600.016929 
L 866.229888 604.824931 
L 866.278515 606.755416 
L 866.311784 603.865758 
L 866.340402 605.796244 
L 866.349344 605.796244 
L 866.388324 604.824931 
L 866.448157 606.755416 
L 866.539229 691.976035 
L 866.56812 690.543348 
L 866.678023 691.976035 
L 866.687849 690.057691 
L 866.719285 691.976035 
L 866.738946 603.865758 
L 866.759206 734.349587 
L 866.94084 738.710858 
L 866.951366 738.699785 
L 867.222885 738.712302 
L 868.344136 738.710858 
L 869.439824 738.713262 
L 869.599301 738.711331 
L 869.909359 738.702674 
L 870.201623 738.711331 
L 996.218182 738.712302 
L 996.218182 738.712302 
" style="fill:none;stroke:#1f77b4;stroke-linecap:square;stroke-width:1.5;"/>
   </g>
   <g id="patch_3">
    <path d="M 144 768.96 
L 144 103.68 
" style="fill:none;stroke:#000000;stroke-linecap:square;stroke-linejoin:miter;stroke-width:0.8;"/>
   </g>
   <g id="patch_4">
    <path d="M 1036.8 768.96 
L 1036.8 103.68 
" style="fill:none;stroke:#000000;stroke-linecap:square;stroke-linejoin:miter;stroke-width:0.8;"/>
   </g>
   <g id="patch_5">
    <path d="M 144 768.96 
L 1036.8 768.96 
" style="fill:none;stroke:#000000;stroke-linecap:square;stroke-linejoin:miter;stroke-width:0.8;"/>
   </g>
   <g id="patch_6">
    <path d="M 144 103.68 
L 1036.8 103.68 
" style="fill:none;stroke:#000000;stroke-linecap:square;stroke-linejoin:miter;stroke-width:0.8;"/>
   </g>
  </g>
 </g>
 <defs>
  <clipPath id="pea63f684e6">
   <rect height="665.28" width="892.8" x="144" y="103.68"/>
  </clipPath>
 </defs>
</svg>
