<?xml version="1.0" encoding="utf-8" standalone="no"?>
<!DOCTYPE svg PUBLIC "-//W3C//DTD SVG 1.1//EN"
  "http://www.w3.org/Graphics/SVG/1.1/DTD/svg11.dtd">
<!-- Created with matplotlib (https://matplotlib.org/) -->
<svg height="864pt" version="1.1" viewBox="0 0 1152 864" width="1152pt" xmlns="http://www.w3.org/2000/svg" xmlns:xlink="http://www.w3.org/1999/xlink">
 <defs>
  <style type="text/css">
*{stroke-linecap:butt;stroke-linejoin:round;}
  </style>
 </defs>
 <g id="figure_1">
  <g id="patch_1">
   <path d="M 0 864 
L 1152 864 
L 1152 0 
L 0 0 
z
" style="fill:#ffffff;"/>
  </g>
  <g id="axes_1">
   <g id="patch_2">
    <path d="M 144 768.96 
L 1036.8 768.96 
L 1036.8 103.68 
L 144 103.68 
z
" style="fill:#ffffff;"/>
   </g>
   <g id="matplotlib.axis_1">
    <g id="xtick_1">
     <g id="line2d_1">
      <defs>
       <path d="M 0 0 
L 0 3.5 
" id="m6f88ba247c" style="stroke:#000000;stroke-width:0.8;"/>
      </defs>
      <g>
       <use style="stroke:#000000;stroke-width:0.8;" x="184.579922" xlink:href="#m6f88ba247c" y="768.96"/>
      </g>
     </g>
     <g id="text_1">
      <!-- 0 -->
      <defs>
       <path d="M 31.78125 66.40625 
Q 24.171875 66.40625 20.328125 58.90625 
Q 16.5 51.421875 16.5 36.375 
Q 16.5 21.390625 20.328125 13.890625 
Q 24.171875 6.390625 31.78125 6.390625 
Q 39.453125 6.390625 43.28125 13.890625 
Q 47.125 21.390625 47.125 36.375 
Q 47.125 51.421875 43.28125 58.90625 
Q 39.453125 66.40625 31.78125 66.40625 
z
M 31.78125 74.21875 
Q 44.046875 74.21875 50.515625 64.515625 
Q 56.984375 54.828125 56.984375 36.375 
Q 56.984375 17.96875 50.515625 8.265625 
Q 44.046875 -1.421875 31.78125 -1.421875 
Q 19.53125 -1.421875 13.0625 8.265625 
Q 6.59375 17.96875 6.59375 36.375 
Q 6.59375 54.828125 13.0625 64.515625 
Q 19.53125 74.21875 31.78125 74.21875 
z
" id="DejaVuSans-48"/>
      </defs>
      <g transform="translate(181.398672 783.558437)scale(0.1 -0.1)">
       <use xlink:href="#DejaVuSans-48"/>
      </g>
     </g>
    </g>
    <g id="xtick_2">
     <g id="line2d_2">
      <g>
       <use style="stroke:#000000;stroke-width:0.8;" x="347.069786" xlink:href="#m6f88ba247c" y="768.96"/>
      </g>
     </g>
     <g id="text_2">
      <!-- 20 -->
      <defs>
       <path d="M 19.1875 8.296875 
L 53.609375 8.296875 
L 53.609375 0 
L 7.328125 0 
L 7.328125 8.296875 
Q 12.9375 14.109375 22.625 23.890625 
Q 32.328125 33.6875 34.8125 36.53125 
Q 39.546875 41.84375 41.421875 45.53125 
Q 43.3125 49.21875 43.3125 52.78125 
Q 43.3125 58.59375 39.234375 62.25 
Q 35.15625 65.921875 28.609375 65.921875 
Q 23.96875 65.921875 18.8125 64.3125 
Q 13.671875 62.703125 7.8125 59.421875 
L 7.8125 69.390625 
Q 13.765625 71.78125 18.9375 73 
Q 24.125 74.21875 28.421875 74.21875 
Q 39.75 74.21875 46.484375 68.546875 
Q 53.21875 62.890625 53.21875 53.421875 
Q 53.21875 48.921875 51.53125 44.890625 
Q 49.859375 40.875 45.40625 35.40625 
Q 44.1875 33.984375 37.640625 27.21875 
Q 31.109375 20.453125 19.1875 8.296875 
z
" id="DejaVuSans-50"/>
      </defs>
      <g transform="translate(340.707286 783.558437)scale(0.1 -0.1)">
       <use xlink:href="#DejaVuSans-50"/>
       <use x="63.623047" xlink:href="#DejaVuSans-48"/>
      </g>
     </g>
    </g>
    <g id="xtick_3">
     <g id="line2d_3">
      <g>
       <use style="stroke:#000000;stroke-width:0.8;" x="509.55965" xlink:href="#m6f88ba247c" y="768.96"/>
      </g>
     </g>
     <g id="text_3">
      <!-- 40 -->
      <defs>
       <path d="M 37.796875 64.3125 
L 12.890625 25.390625 
L 37.796875 25.390625 
z
M 35.203125 72.90625 
L 47.609375 72.90625 
L 47.609375 25.390625 
L 58.015625 25.390625 
L 58.015625 17.1875 
L 47.609375 17.1875 
L 47.609375 0 
L 37.796875 0 
L 37.796875 17.1875 
L 4.890625 17.1875 
L 4.890625 26.703125 
z
" id="DejaVuSans-52"/>
      </defs>
      <g transform="translate(503.19715 783.558437)scale(0.1 -0.1)">
       <use xlink:href="#DejaVuSans-52"/>
       <use x="63.623047" xlink:href="#DejaVuSans-48"/>
      </g>
     </g>
    </g>
    <g id="xtick_4">
     <g id="line2d_4">
      <g>
       <use style="stroke:#000000;stroke-width:0.8;" x="672.049514" xlink:href="#m6f88ba247c" y="768.96"/>
      </g>
     </g>
     <g id="text_4">
      <!-- 60 -->
      <defs>
       <path d="M 33.015625 40.375 
Q 26.375 40.375 22.484375 35.828125 
Q 18.609375 31.296875 18.609375 23.390625 
Q 18.609375 15.53125 22.484375 10.953125 
Q 26.375 6.390625 33.015625 6.390625 
Q 39.65625 6.390625 43.53125 10.953125 
Q 47.40625 15.53125 47.40625 23.390625 
Q 47.40625 31.296875 43.53125 35.828125 
Q 39.65625 40.375 33.015625 40.375 
z
M 52.59375 71.296875 
L 52.59375 62.3125 
Q 48.875 64.0625 45.09375 64.984375 
Q 41.3125 65.921875 37.59375 65.921875 
Q 27.828125 65.921875 22.671875 59.328125 
Q 17.53125 52.734375 16.796875 39.40625 
Q 19.671875 43.65625 24.015625 45.921875 
Q 28.375 48.1875 33.59375 48.1875 
Q 44.578125 48.1875 50.953125 41.515625 
Q 57.328125 34.859375 57.328125 23.390625 
Q 57.328125 12.15625 50.6875 5.359375 
Q 44.046875 -1.421875 33.015625 -1.421875 
Q 20.359375 -1.421875 13.671875 8.265625 
Q 6.984375 17.96875 6.984375 36.375 
Q 6.984375 53.65625 15.1875 63.9375 
Q 23.390625 74.21875 37.203125 74.21875 
Q 40.921875 74.21875 44.703125 73.484375 
Q 48.484375 72.75 52.59375 71.296875 
z
" id="DejaVuSans-54"/>
      </defs>
      <g transform="translate(665.687014 783.558437)scale(0.1 -0.1)">
       <use xlink:href="#DejaVuSans-54"/>
       <use x="63.623047" xlink:href="#DejaVuSans-48"/>
      </g>
     </g>
    </g>
    <g id="xtick_5">
     <g id="line2d_5">
      <g>
       <use style="stroke:#000000;stroke-width:0.8;" x="834.539378" xlink:href="#m6f88ba247c" y="768.96"/>
      </g>
     </g>
     <g id="text_5">
      <!-- 80 -->
      <defs>
       <path d="M 31.78125 34.625 
Q 24.75 34.625 20.71875 30.859375 
Q 16.703125 27.09375 16.703125 20.515625 
Q 16.703125 13.921875 20.71875 10.15625 
Q 24.75 6.390625 31.78125 6.390625 
Q 38.8125 6.390625 42.859375 10.171875 
Q 46.921875 13.96875 46.921875 20.515625 
Q 46.921875 27.09375 42.890625 30.859375 
Q 38.875 34.625 31.78125 34.625 
z
M 21.921875 38.8125 
Q 15.578125 40.375 12.03125 44.71875 
Q 8.5 49.078125 8.5 55.328125 
Q 8.5 64.0625 14.71875 69.140625 
Q 20.953125 74.21875 31.78125 74.21875 
Q 42.671875 74.21875 48.875 69.140625 
Q 55.078125 64.0625 55.078125 55.328125 
Q 55.078125 49.078125 51.53125 44.71875 
Q 48 40.375 41.703125 38.8125 
Q 48.828125 37.15625 52.796875 32.3125 
Q 56.78125 27.484375 56.78125 20.515625 
Q 56.78125 9.90625 50.3125 4.234375 
Q 43.84375 -1.421875 31.78125 -1.421875 
Q 19.734375 -1.421875 13.25 4.234375 
Q 6.78125 9.90625 6.78125 20.515625 
Q 6.78125 27.484375 10.78125 32.3125 
Q 14.796875 37.15625 21.921875 38.8125 
z
M 18.3125 54.390625 
Q 18.3125 48.734375 21.84375 45.5625 
Q 25.390625 42.390625 31.78125 42.390625 
Q 38.140625 42.390625 41.71875 45.5625 
Q 45.3125 48.734375 45.3125 54.390625 
Q 45.3125 60.0625 41.71875 63.234375 
Q 38.140625 66.40625 31.78125 66.40625 
Q 25.390625 66.40625 21.84375 63.234375 
Q 18.3125 60.0625 18.3125 54.390625 
z
" id="DejaVuSans-56"/>
      </defs>
      <g transform="translate(828.176878 783.558437)scale(0.1 -0.1)">
       <use xlink:href="#DejaVuSans-56"/>
       <use x="63.623047" xlink:href="#DejaVuSans-48"/>
      </g>
     </g>
    </g>
    <g id="xtick_6">
     <g id="line2d_6">
      <g>
       <use style="stroke:#000000;stroke-width:0.8;" x="997.029242" xlink:href="#m6f88ba247c" y="768.96"/>
      </g>
     </g>
     <g id="text_6">
      <!-- 100 -->
      <defs>
       <path d="M 12.40625 8.296875 
L 28.515625 8.296875 
L 28.515625 63.921875 
L 10.984375 60.40625 
L 10.984375 69.390625 
L 28.421875 72.90625 
L 38.28125 72.90625 
L 38.28125 8.296875 
L 54.390625 8.296875 
L 54.390625 0 
L 12.40625 0 
z
" id="DejaVuSans-49"/>
      </defs>
      <g transform="translate(987.485492 783.558437)scale(0.1 -0.1)">
       <use xlink:href="#DejaVuSans-49"/>
       <use x="63.623047" xlink:href="#DejaVuSans-48"/>
       <use x="127.246094" xlink:href="#DejaVuSans-48"/>
      </g>
     </g>
    </g>
   </g>
   <g id="matplotlib.axis_2">
    <g id="ytick_1">
     <g id="line2d_7">
      <defs>
       <path d="M 0 0 
L -3.5 0 
" id="ma80e6b1fc3" style="stroke:#000000;stroke-width:0.8;"/>
      </defs>
      <g>
       <use style="stroke:#000000;stroke-width:0.8;" x="144" xlink:href="#ma80e6b1fc3" y="738.730896"/>
      </g>
     </g>
     <g id="text_7">
      <!-- 0.0 -->
      <defs>
       <path d="M 10.6875 12.40625 
L 21 12.40625 
L 21 0 
L 10.6875 0 
z
" id="DejaVuSans-46"/>
      </defs>
      <g transform="translate(121.096875 742.530115)scale(0.1 -0.1)">
       <use xlink:href="#DejaVuSans-48"/>
       <use x="63.623047" xlink:href="#DejaVuSans-46"/>
       <use x="95.410156" xlink:href="#DejaVuSans-48"/>
      </g>
     </g>
    </g>
    <g id="ytick_2">
     <g id="line2d_8">
      <g>
       <use style="stroke:#000000;stroke-width:0.8;" x="144" xlink:href="#ma80e6b1fc3" y="617.6646"/>
      </g>
     </g>
     <g id="text_8">
      <!-- 0.1 -->
      <g transform="translate(121.096875 621.463819)scale(0.1 -0.1)">
       <use xlink:href="#DejaVuSans-48"/>
       <use x="63.623047" xlink:href="#DejaVuSans-46"/>
       <use x="95.410156" xlink:href="#DejaVuSans-49"/>
      </g>
     </g>
    </g>
    <g id="ytick_3">
     <g id="line2d_9">
      <g>
       <use style="stroke:#000000;stroke-width:0.8;" x="144" xlink:href="#ma80e6b1fc3" y="496.598304"/>
      </g>
     </g>
     <g id="text_9">
      <!-- 0.2 -->
      <g transform="translate(121.096875 500.397522)scale(0.1 -0.1)">
       <use xlink:href="#DejaVuSans-48"/>
       <use x="63.623047" xlink:href="#DejaVuSans-46"/>
       <use x="95.410156" xlink:href="#DejaVuSans-50"/>
      </g>
     </g>
    </g>
    <g id="ytick_4">
     <g id="line2d_10">
      <g>
       <use style="stroke:#000000;stroke-width:0.8;" x="144" xlink:href="#ma80e6b1fc3" y="375.532007"/>
      </g>
     </g>
     <g id="text_10">
      <!-- 0.3 -->
      <defs>
       <path d="M 40.578125 39.3125 
Q 47.65625 37.796875 51.625 33 
Q 55.609375 28.21875 55.609375 21.1875 
Q 55.609375 10.40625 48.1875 4.484375 
Q 40.765625 -1.421875 27.09375 -1.421875 
Q 22.515625 -1.421875 17.65625 -0.515625 
Q 12.796875 0.390625 7.625 2.203125 
L 7.625 11.71875 
Q 11.71875 9.328125 16.59375 8.109375 
Q 21.484375 6.890625 26.8125 6.890625 
Q 36.078125 6.890625 40.9375 10.546875 
Q 45.796875 14.203125 45.796875 21.1875 
Q 45.796875 27.640625 41.28125 31.265625 
Q 36.765625 34.90625 28.71875 34.90625 
L 20.21875 34.90625 
L 20.21875 43.015625 
L 29.109375 43.015625 
Q 36.375 43.015625 40.234375 45.921875 
Q 44.09375 48.828125 44.09375 54.296875 
Q 44.09375 59.90625 40.109375 62.90625 
Q 36.140625 65.921875 28.71875 65.921875 
Q 24.65625 65.921875 20.015625 65.03125 
Q 15.375 64.15625 9.8125 62.3125 
L 9.8125 71.09375 
Q 15.4375 72.65625 20.34375 73.4375 
Q 25.25 74.21875 29.59375 74.21875 
Q 40.828125 74.21875 47.359375 69.109375 
Q 53.90625 64.015625 53.90625 55.328125 
Q 53.90625 49.265625 50.4375 45.09375 
Q 46.96875 40.921875 40.578125 39.3125 
z
" id="DejaVuSans-51"/>
      </defs>
      <g transform="translate(121.096875 379.331226)scale(0.1 -0.1)">
       <use xlink:href="#DejaVuSans-48"/>
       <use x="63.623047" xlink:href="#DejaVuSans-46"/>
       <use x="95.410156" xlink:href="#DejaVuSans-51"/>
      </g>
     </g>
    </g>
    <g id="ytick_5">
     <g id="line2d_11">
      <g>
       <use style="stroke:#000000;stroke-width:0.8;" x="144" xlink:href="#ma80e6b1fc3" y="254.465711"/>
      </g>
     </g>
     <g id="text_11">
      <!-- 0.4 -->
      <g transform="translate(121.096875 258.26493)scale(0.1 -0.1)">
       <use xlink:href="#DejaVuSans-48"/>
       <use x="63.623047" xlink:href="#DejaVuSans-46"/>
       <use x="95.410156" xlink:href="#DejaVuSans-52"/>
      </g>
     </g>
    </g>
    <g id="ytick_6">
     <g id="line2d_12">
      <g>
       <use style="stroke:#000000;stroke-width:0.8;" x="144" xlink:href="#ma80e6b1fc3" y="133.399415"/>
      </g>
     </g>
     <g id="text_12">
      <!-- 0.5 -->
      <defs>
       <path d="M 10.796875 72.90625 
L 49.515625 72.90625 
L 49.515625 64.59375 
L 19.828125 64.59375 
L 19.828125 46.734375 
Q 21.96875 47.46875 24.109375 47.828125 
Q 26.265625 48.1875 28.421875 48.1875 
Q 40.625 48.1875 47.75 41.5 
Q 54.890625 34.8125 54.890625 23.390625 
Q 54.890625 11.625 47.5625 5.09375 
Q 40.234375 -1.421875 26.90625 -1.421875 
Q 22.3125 -1.421875 17.546875 -0.640625 
Q 12.796875 0.140625 7.71875 1.703125 
L 7.71875 11.625 
Q 12.109375 9.234375 16.796875 8.0625 
Q 21.484375 6.890625 26.703125 6.890625 
Q 35.15625 6.890625 40.078125 11.328125 
Q 45.015625 15.765625 45.015625 23.390625 
Q 45.015625 31 40.078125 35.4375 
Q 35.15625 39.890625 26.703125 39.890625 
Q 22.75 39.890625 18.8125 39.015625 
Q 14.890625 38.140625 10.796875 36.28125 
z
" id="DejaVuSans-53"/>
      </defs>
      <g transform="translate(121.096875 137.198634)scale(0.1 -0.1)">
       <use xlink:href="#DejaVuSans-48"/>
       <use x="63.623047" xlink:href="#DejaVuSans-46"/>
       <use x="95.410156" xlink:href="#DejaVuSans-53"/>
      </g>
     </g>
    </g>
   </g>
   <g id="line2d_13">
    <path clip-path="url(#p9c3c56309e)" d="M 184.581818 738.193664 
L 184.597743 738.160117 
L 184.777714 738.191231 
L 184.793324 738.164972 
L 184.785301 738.195117 
L 184.890552 738.194633 
L 185.206884 738.191715 
L 185.37916 738.197066 
L 185.382623 738.164972 
L 185.487709 738.192199 
L 185.702419 738.194149 
L 186.508164 738.194149 
L 186.512243 738.163035 
L 186.540407 738.198519 
L 186.61673 738.189282 
L 186.888995 738.192684 
L 187.08848 738.170807 
L 187.092393 738.186848 
L 187.372788 738.193664 
L 187.451891 738.154766 
L 187.483015 738.195601 
L 188.424797 738.158652 
L 188.437438 738.156218 
L 188.538704 738.192684 
L 188.640933 738.168858 
L 188.648644 738.196086 
L 188.88777 738.191231 
L 188.977265 738.179076 
L 196.582394 738.188313 
L 196.615961 738.162054 
L 196.699759 738.194149 
L 196.912869 738.161085 
L 196.927402 738.197066 
L 197.102386 738.194149 
L 198.042876 738.195601 
L 198.260575 738.193664 
L 198.418819 738.17324 
L 198.533303 738.200952 
L 198.536757 738.196582 
L 198.669608 738.194149 
L 198.714743 738.158168 
L 198.783755 738.183446 
L 198.795848 738.172272 
L 198.926522 738.194149 
L 199.088355 738.190747 
L 199.104599 738.153797 
L 199.238959 738.194149 
L 199.243066 738.174693 
L 199.271333 738.190747 
L 199.974387 738.165952 
L 199.978221 738.191231 
L 200.144943 738.193664 
L 200.470192 738.172756 
L 200.571035 738.189282 
L 200.583115 738.171775 
L 200.627478 738.160601 
L 200.700991 738.194633 
L 200.967375 738.193664 
L 201.724126 738.188797 
L 201.883156 738.190747 
L 201.972659 738.17519 
L 201.997013 738.191715 
L 202.915543 738.162054 
L 203.029522 738.193168 
L 203.884589 738.185395 
L 203.918992 738.171775 
L 204.000402 738.190747 
L 204.259561 738.193664 
L 204.263528 738.162538 
L 204.369238 738.195601 
L 204.840784 738.192684 
L 204.986552 738.192684 
L 204.990557 738.165456 
L 205.031113 738.199984 
L 205.096286 738.191715 
L 206.209397 738.192199 
L 206.279951 738.155734 
L 206.320104 738.194633 
L 206.327705 738.177127 
L 206.536116 738.189282 
L 206.611613 738.184427 
L 206.542642 738.194149 
L 206.62397 738.192199 
L 209.033827 738.192199 
L 209.036639 738.158168 
L 209.052752 738.195117 
L 209.141987 738.192199 
L 209.463313 738.191715 
L 209.487681 738.150879 
L 209.564627 738.194149 
L 217.210074 738.195117 
L 217.23044 738.166436 
L 217.373365 738.196582 
L 217.685822 738.195601 
L 217.836035 738.190747 
L 217.840166 738.196086 
L 314.246405 738.191715 
L 314.250043 738.31812 
L 314.399119 715.885686 
L 314.432484 716.854216 
L 314.457716 721.708975 
L 314.518272 692.544104 
L 314.598757 684.759541 
L 314.631563 686.224443 
L 314.635291 690.110671 
L 314.651898 685.255913 
L 314.74157 686.224443 
L 314.781547 685.255913 
L 314.850887 689.626406 
L 314.924397 685.255913 
L 314.876547 690.110671 
L 314.961935 687.192974 
L 315.030182 685.255913 
L 314.985198 690.594937 
L 315.062827 686.224443 
L 315.160013 690.110671 
L 315.071609 684.275276 
L 315.17364 687.192974 
L 315.277829 683.306746 
L 315.181325 689.626406 
L 315.281717 687.192974 
L 315.367293 690.110671 
L 315.29424 685.255913 
L 315.395508 688.657876 
L 315.432951 685.255913 
L 315.419951 689.626406 
L 315.444311 688.161504 
L 315.637869 687.192974 
L 315.741957 689.142141 
L 315.647884 685.255913 
L 315.746033 688.657876 
L 315.757332 684.759541 
L 315.768003 689.626406 
L 315.855839 686.708708 
L 315.882768 685.255913 
L 315.972009 690.110671 
L 316.085716 685.255913 
L 316.089755 685.255913 
L 316.179112 690.110671 
L 316.114501 684.759541 
L 316.207511 689.626406 
L 316.239935 684.759541 
L 316.321379 686.224443 
L 316.412218 685.255913 
L 316.341933 689.142141 
L 316.423552 687.192974 
L 316.504372 690.110671 
L 316.464043 685.255913 
L 316.520597 689.626406 
L 316.525215 684.759541 
L 316.625911 690.594937 
L 316.630318 689.142141 
L 316.634306 689.142141 
L 316.666581 688.657876 
L 316.670612 690.110671 
L 316.764948 637.604219 
L 316.748769 692.059839 
L 316.781176 681.357578 
L 316.879432 678.43988 
L 316.883257 683.791011 
L 316.886572 678.43988 
L 316.915048 682.82248 
L 317.104612 682.338215 
L 317.107769 680.389048 
L 317.134634 684.275276 
L 317.21117 682.82248 
L 317.288205 684.275276 
L 317.260337 680.389048 
L 317.305931 683.306746 
L 317.398469 677.955615 
L 317.361431 683.791011 
L 317.415185 683.306746 
L 317.463454 680.873313 
L 317.426993 683.791011 
L 317.525383 682.82248 
L 317.52838 682.82248 
L 317.576898 681.357578 
L 317.621566 684.275276 
L 317.633797 682.82248 
L 317.69515 683.791011 
L 317.691046 678.43988 
L 317.743605 682.82248 
L 317.816726 683.791011 
L 317.829334 681.357578 
L 317.833214 682.338215 
L 317.837555 679.904783 
L 317.910054 684.275276 
L 317.938705 683.306746 
L 318.007824 683.791011 
L 318.015806 681.841843 
L 318.044089 682.82248 
L 318.047926 682.82248 
L 318.097785 678.43988 
L 318.077276 683.791011 
L 318.141595 683.306746 
L 318.145663 684.275276 
L 318.162379 681.841843 
L 318.251211 683.306746 
L 318.255128 683.306746 
L 318.271033 683.791011 
L 318.36913 682.338215 
L 318.377132 683.306746 
L 318.385116 682.338215 
L 318.625345 684.275276 
L 318.669348 678.924146 
L 318.734923 683.306746 
L 318.813099 680.873313 
L 318.849393 684.275276 
L 318.893569 680.873313 
L 318.963056 682.82248 
L 318.988205 683.791011 
L 318.984156 678.924146 
L 318.995492 681.841843 
L 319.040247 667.749726 
L 319.104723 673.585122 
L 319.166022 676.018555 
L 319.202702 670.183159 
L 319.20658 675.037918 
L 319.218609 668.233992 
L 319.295648 676.50282 
L 319.316344 675.522183 
L 319.332099 676.018555 
L 319.430334 667.265461 
L 319.528121 676.50282 
L 319.542835 675.037918 
L 319.546794 675.037918 
L 319.628403 676.50282 
L 319.632314 673.585122 
L 319.652529 674.553652 
L 319.656817 674.553652 
L 319.751073 676.50282 
L 319.738128 672.604485 
L 319.770645 675.522183 
L 319.788069 667.265461 
L 319.791375 676.018555 
L 319.855528 675.522183 
L 320.048496 675.522183 
L 320.118421 672.12022 
L 320.065953 676.50282 
L 320.160151 675.037918 
L 320.204846 667.265461 
L 320.270829 676.50282 
L 320.32408 667.265461 
L 320.388036 674.553652 
L 320.457101 676.50282 
L 320.445282 669.686787 
L 320.499394 675.037918 
L 320.600165 668.233992 
L 320.534408 676.018555 
L 320.611434 674.069387 
L 320.648687 676.018555 
L 320.635542 673.585122 
L 320.725169 675.522183 
L 320.729715 675.522183 
L 320.827491 665.800559 
L 320.753581 676.018555 
L 320.843539 668.718257 
L 320.944766 676.018555 
L 320.860128 667.749726 
L 320.956892 675.522183 
L 320.960956 675.522183 
L 321.006205 667.749726 
L 320.968909 676.018555 
L 321.078832 674.553652 
L 321.167916 673.585122 
L 321.196464 675.522183 
L 321.216562 674.553652 
L 321.220512 683.306746 
L 321.245128 682.338215 
L 321.318566 684.275276 
L 321.322795 680.873313 
L 321.326694 682.82248 
L 321.522588 682.82248 
L 321.559355 677.955615 
L 321.545232 683.306746 
L 321.639449 681.357578 
L 321.724733 679.420517 
L 321.742487 683.306746 
L 321.745418 678.924146 
L 321.850099 682.82248 
L 321.866787 683.791011 
L 321.890926 677.955615 
L 321.91952 683.306746 
L 321.923206 676.987085 
L 322.020782 683.791011 
L 322.028734 682.82248 
L 322.049571 682.82248 
L 322.146304 681.841843 
L 322.130304 683.791011 
L 322.159679 682.82248 
L 322.187164 684.759541 
L 322.231921 681.841843 
L 322.25238 682.338215 
L 322.264482 680.873313 
L 322.3099 683.791011 
L 322.35959 682.338215 
L 322.399055 683.791011 
L 322.370267 678.43988 
L 322.403015 682.82248 
L 322.418635 670.667424 
L 322.51618 672.604485 
L 322.52018 672.604485 
L 322.630275 670.667424 
L 322.552888 673.100857 
L 322.634313 672.12022 
L 322.638073 672.12022 
L 322.736701 664.832029 
L 322.650201 673.585122 
L 322.752071 669.686787 
L 322.796648 673.100857 
L 322.993156 672.604485 
L 323.027827 665.316294 
L 323.058961 673.585122 
L 323.100977 671.635955 
L 323.10568 671.635955 
L 323.182605 672.604485 
L 323.186582 665.316294 
L 323.190747 672.12022 
L 323.203388 664.832029 
L 323.278831 673.585122 
L 323.301157 672.12022 
L 323.369414 670.183159 
L 323.312834 673.100857 
L 323.41391 671.151689 
L 323.503004 673.100857 
L 323.523315 671.151689 
L 323.540061 664.347764 
L 323.657069 677.47135 
L 323.734765 675.037918 
L 323.771329 675.522183 
L 323.828076 676.987085 
L 323.884881 676.50282 
L 323.970651 673.585122 
L 323.925604 677.47135 
L 323.99511 674.069387 
L 324.092271 677.955615 
L 324.05983 673.585122 
L 324.108593 676.018555 
L 324.144693 677.47135 
L 324.198142 675.037918 
L 324.217992 676.50282 
L 324.254475 675.037918 
L 324.234329 676.987085 
L 324.266823 676.50282 
L 324.461394 675.037918 
L 324.47677 677.47135 
L 324.49309 672.604485 
L 324.574679 676.50282 
L 324.637234 675.037918 
L 324.590001 677.955615 
L 324.678672 676.018555 
L 324.74684 677.955615 
L 324.710765 674.553652 
L 324.787584 676.50282 
L 324.791423 676.50282 
L 324.844023 677.47135 
L 324.848141 674.553652 
L 324.868587 676.018555 
L 324.872325 672.12022 
L 324.957419 677.955615 
L 324.977922 676.50282 
L 325.079301 677.955615 
L 324.985882 675.522183 
L 325.087942 676.987085 
L 325.116089 677.955615 
L 325.205184 674.069387 
L 325.225587 677.47135 
L 325.270749 672.604485 
L 325.315461 675.522183 
L 325.409032 677.955615 
L 325.368652 672.604485 
L 325.437328 677.47135 
L 325.547704 675.522183 
L 325.551124 676.987085 
L 325.555264 676.987085 
L 325.620809 673.100857 
L 325.57605 677.47135 
L 325.669826 675.037918 
L 325.72155 677.955615 
L 325.693814 672.12022 
L 325.738245 676.987085 
L 325.927152 668.718257 
L 325.932444 676.50282 
L 325.937149 667.265461 
L 326.038716 674.069387 
L 326.115509 676.018555 
L 326.137446 666.781196 
L 326.132588 676.50282 
L 326.226497 675.037918 
L 326.322816 675.522183 
L 326.245873 673.100857 
L 326.326705 675.037918 
L 326.400578 666.284824 
L 326.367418 676.50282 
L 326.432231 674.553652 
L 326.497856 666.781196 
L 326.525857 676.50282 
L 326.529987 670.183159 
L 326.635908 674.553652 
L 326.720234 676.50282 
L 326.744761 676.018555 
L 326.797898 673.585122 
L 326.85056 675.037918 
L 326.952641 676.50282 
L 326.888047 667.749726 
L 326.956531 675.522183 
L 327.046122 674.553652 
L 327.021518 676.987085 
L 327.062217 676.018555 
L 327.070651 676.018555 
L 327.074796 673.100857 
L 327.180281 675.037918 
L 327.204986 676.018555 
L 327.188641 674.553652 
L 327.2085 675.522183 
L 327.404924 673.585122 
L 327.517268 676.50282 
L 327.521177 676.018555 
L 327.61572 669.202522 
L 327.635706 672.12022 
L 327.687996 676.50282 
L 327.748493 675.037918 
L 327.84992 676.018555 
L 327.797957 668.718257 
L 327.858096 675.522183 
L 327.959897 674.069387 
L 327.874253 676.018555 
L 327.964526 676.018555 
L 327.972803 676.018555 
L 328.154927 652.192707 
L 328.033031 676.50282 
L 328.166909 654.62614 
L 328.171064 665.316294 
L 328.212001 650.24354 
L 328.276528 651.21207 
L 328.296822 666.781196 
L 328.358377 650.24354 
L 328.394284 654.129768 
L 328.402822 654.129768 
L 328.406762 652.676973 
L 328.435006 675.037918 
L 328.44295 665.316294 
L 328.447174 692.544104 
L 328.49174 650.24354 
L 328.553599 671.635955 
L 328.58935 673.585122 
L 328.679306 580.230901 
L 328.976828 607.942976 
L 328.985578 607.458711 
L 328.989562 585.582031 
L 329.096967 604.541013 
L 329.163207 601.623316 
L 329.199302 606.005915 
L 329.243544 597.737087 
L 329.311948 603.572483 
L 329.353046 606.005915 
L 329.34109 602.107581 
L 329.418053 603.572483 
L 329.438517 600.17052 
L 329.446488 606.490181 
L 329.527857 602.603953 
L 329.588474 606.974446 
L 329.645251 606.490181 
L 329.677955 603.088218 
L 329.758925 604.541013 
L 329.820215 588.015464 
L 329.815661 609.407878 
L 329.872708 603.572483 
L 329.909543 606.490181 
L 329.982567 604.056748 
L 330.055818 603.088218 
L 330.067419 606.974446 
L 330.084048 604.541013 
L 330.133152 606.005915 
L 330.14533 601.623316 
L 330.149274 604.541013 
L 330.347872 604.541013 
L 330.356094 599.686255 
L 330.368232 606.490181 
L 330.458451 605.025278 
L 330.479132 601.623316 
L 330.511797 606.005915 
L 330.568885 604.541013 
L 330.618773 602.107581 
L 330.646207 608.427241 
L 330.650178 589.468259 
L 330.756025 601.623316 
L 330.832493 606.005915 
L 330.820348 600.654785 
L 330.865206 605.025278 
L 330.86908 602.603953 
L 330.893264 606.490181 
L 330.97545 603.572483 
L 331.057373 600.654785 
L 331.019849 605.52165 
L 331.080328 602.107581 
L 331.130407 606.005915 
L 331.096778 601.623316 
L 331.190123 603.572483 
L 331.194071 602.107581 
L 331.210357 606.490181 
L 331.295354 605.52165 
L 331.331695 601.623316 
L 331.397012 606.490181 
L 331.400684 604.541013 
L 331.469902 608.427241 
L 331.453695 603.088218 
L 331.477976 607.942976 
L 331.481958 582.180068 
L 331.588433 604.541013 
L 331.6167 578.778105 
L 331.596082 605.52165 
L 331.620992 585.097766 
L 331.821363 608.923613 
L 331.88123 604.541013 
L 331.885434 600.17052 
L 331.929873 606.005915 
L 331.991494 602.107581 
L 332.099933 606.490181 
L 332.023124 601.13905 
L 332.10771 604.541013 
L 332.168463 602.603953 
L 332.12357 606.005915 
L 332.217047 605.025278 
L 332.314937 586.550562 
L 332.230241 608.427241 
L 332.318749 604.056748 
L 332.403977 606.005915 
L 332.387704 600.654785 
L 332.428364 605.025278 
L 332.484997 607.942976 
L 332.493775 596.272185 
L 332.501744 614.262637 
L 332.509597 571.477808 
L 332.51817 613.778372 
L 332.529667 138.290493 
L 332.627665 558.838486 
L 332.6477 555.920789 
L 332.74913 557.385691 
L 332.786209 562.240449 
L 332.834294 555.436524 
L 332.858842 557.385691 
L 332.899583 556.405054 
L 332.96485 583.632864 
L 332.977076 586.550562 
L 332.972964 578.29384 
L 332.980894 585.097766 
L 332.985124 139.259024 
L 333.017694 612.325576 
L 333.090596 605.52165 
L 333.29178 604.056748 
L 333.314005 584.129236 
L 333.351274 605.52165 
L 333.398357 602.603953 
L 333.514133 606.005915 
L 333.418157 601.623316 
L 333.518968 605.52165 
L 333.529624 481.053391 
L 333.538325 692.059839 
L 333.606559 690.594937 
L 333.704229 688.161504 
L 333.675552 692.059839 
L 333.720309 690.110671 
L 333.762023 689.626406 
L 333.83002 692.059839 
L 333.980541 584.613501 
L 334.13107 601.13905 
L 334.228762 607.942976 
L 334.13849 600.654785 
L 334.240578 604.056748 
L 334.25663 601.13905 
L 334.297385 608.427241 
L 334.345596 602.107581 
L 334.544968 691.575574 
L 334.398839 584.129236 
L 334.560943 690.594937 
L 334.756079 690.110671 
L 334.762357 691.079202 
L 334.771421 690.594937 
L 334.779498 583.632864 
L 334.851767 691.575574 
L 334.878453 691.575574 
L 334.960638 686.708708 
L 334.972734 692.059839 
L 334.996581 690.110671 
L 335.085481 691.575574 
L 335.044792 684.275276 
L 335.105324 691.079202 
L 335.198935 687.677239 
L 335.145525 692.059839 
L 335.214702 690.594937 
L 335.218797 692.059839 
L 335.256273 688.657876 
L 335.326254 691.575574 
L 335.386129 687.677239 
L 335.333989 692.544104 
L 335.435353 690.594937 
L 335.51151 691.575574 
L 335.507781 689.142141 
L 335.540416 691.079202 
L 335.593062 691.575574 
L 335.597194 650.24354 
L 335.642102 582.180068 
L 335.666212 692.059839 
L 335.702828 688.657876 
L 335.735779 686.708708 
L 335.816731 691.575574 
L 335.820313 691.575574 
L 335.849318 687.677239 
L 335.861103 692.059839 
L 335.930348 691.575574 
L 335.934739 691.575574 
L 335.97102 688.657876 
L 335.958493 692.059839 
L 336.032311 691.575574 
L 336.224773 691.079202 
L 336.325519 689.626406 
L 336.255738 691.575574 
L 336.334118 690.594937 
L 336.355202 692.059839 
L 336.350894 687.192974 
L 336.413439 690.594937 
L 336.479004 578.778105 
L 336.438652 691.575574 
L 336.523577 688.657876 
L 336.55579 666.284824 
L 336.633366 691.575574 
L 336.669284 687.192974 
L 336.641536 692.059839 
L 336.742477 690.594937 
L 336.807514 691.575574 
L 336.791096 690.110671 
L 336.815968 690.594937 
L 336.905247 139.259024 
L 336.949816 580.230901 
L 336.982128 552.518826 
L 337.057254 586.550562 
L 337.141937 583.632864 
L 337.073525 587.034827 
L 337.168993 585.097766 
L 337.251199 587.034827 
L 337.258877 566.623049 
L 337.262924 589.952525 
L 337.37206 583.148599 
L 337.389115 585.097766 
L 337.392653 566.138784 
L 337.404862 672.12022 
L 337.48174 670.667424 
L 337.493678 672.604485 
L 337.48974 670.183159 
L 337.502341 670.667424 
L 337.702349 672.12022 
L 337.803328 673.100857 
L 337.791671 670.667424 
L 337.807173 672.12022 
L 337.896906 671.151689 
L 337.824748 673.100857 
L 337.916757 671.635955 
L 337.920805 671.635955 
L 338.010269 672.12022 
L 337.928979 670.183159 
L 338.022735 671.635955 
L 338.058797 672.604485 
L 338.095824 613.778372 
L 338.111802 584.613501 
L 338.148896 671.635955 
L 338.197161 671.635955 
L 338.20211 671.635955 
L 338.278137 670.183159 
L 338.209492 672.12022 
L 338.312786 670.667424 
L 338.403699 672.12022 
L 338.335975 670.183159 
L 338.425008 671.635955 
L 338.432751 671.635955 
L 338.440874 669.686787 
L 338.497751 673.100857 
L 338.538357 672.12022 
L 338.550853 673.585122 
L 338.558605 671.635955 
L 338.647819 673.100857 
L 338.664857 670.667424 
L 338.689169 673.585122 
L 338.762013 671.151689 
L 338.765972 671.151689 
L 338.855292 654.62614 
L 338.786721 672.12022 
L 338.860025 655.59467 
L 338.940299 341.028113 
L 338.972734 562.736821 
L 339.284567 586.066296 
L 339.292825 585.582031 
L 339.362358 584.129236 
L 339.356708 586.550562 
L 339.367503 585.582031 
L 339.369554 562.736821 
L 339.391999 673.585122 
L 339.468275 672.12022 
L 339.533195 673.585122 
L 339.480461 671.151689 
L 339.577971 672.12022 
L 339.636706 670.183159 
L 339.593638 673.100857 
L 339.68421 670.667424 
L 339.732577 670.183159 
L 339.752536 673.100857 
L 339.801241 568.56011 
L 339.862194 671.151689 
L 339.866228 671.151689 
L 339.943274 672.12022 
L 339.919278 670.183159 
L 339.976668 671.151689 
L 340.057531 670.183159 
L 339.988747 672.604485 
L 340.077454 671.635955 
L 340.17484 672.604485 
L 340.158917 670.183159 
L 340.183469 671.635955 
L 340.215909 669.686787 
L 340.244187 673.585122 
L 340.289673 672.604485 
L 340.374772 670.667424 
L 340.320113 673.100857 
L 340.395572 672.12022 
L 340.399564 674.069387 
L 340.430985 671.151689 
L 340.443132 672.12022 
L 340.641738 570.509277 
L 340.70197 672.604485 
L 340.75493 671.635955 
L 340.817866 672.604485 
L 340.862734 670.183159 
L 340.894449 669.202522 
L 340.979244 673.100857 
L 341.069705 670.667424 
L 341.089331 673.585122 
L 341.174479 674.553652 
L 341.207529 671.151689 
L 341.284256 673.585122 
L 341.268121 670.667424 
L 341.320717 672.604485 
L 341.418435 653.161238 
L 341.431794 574.891877 
L 341.479228 673.100857 
L 341.52365 670.667424 
L 341.536256 672.604485 
L 341.572335 670.183159 
L 341.62985 671.635955 
L 341.686376 669.202522 
L 341.646032 672.604485 
L 341.742943 670.667424 
L 341.840264 672.12022 
L 341.779565 669.686787 
L 341.852922 670.667424 
L 341.861038 670.667424 
L 341.89099 672.12022 
L 341.881464 670.183159 
L 341.914523 670.667424 
L 342.109298 670.667424 
L 342.145921 673.585122 
L 342.181287 670.183159 
L 342.218934 672.12022 
L 342.260549 615.243274 
L 342.280165 584.613501 
L 342.32596 672.604485 
L 342.3614 670.667424 
L 342.42162 673.100857 
L 342.473996 671.151689 
L 342.579698 672.12022 
L 342.575934 669.686787 
L 342.584188 671.635955 
L 342.652977 670.183159 
L 342.644881 672.604485 
L 342.693593 671.635955 
L 342.750211 669.686787 
L 342.791068 673.100857 
L 342.795396 671.151689 
L 342.897411 673.585122 
L 342.905026 671.635955 
L 342.909227 671.635955 
L 343.014635 673.585122 
L 342.925671 659.965164 
L 343.018727 672.12022 
L 343.026586 672.604485 
L 343.083967 635.655051 
L 343.08781 570.025012 
L 343.149233 672.12022 
L 343.189291 670.667424 
L 343.255117 672.604485 
L 343.205711 669.686787 
L 343.295417 671.151689 
L 343.37223 669.686787 
L 343.340629 672.12022 
L 343.384386 671.635955 
L 343.57629 670.667424 
L 343.67988 673.585122 
L 343.586184 670.183159 
L 343.69163 673.100857 
L 343.795302 671.151689 
L 343.807633 671.635955 
L 343.810012 671.635955 
L 343.839463 673.585122 
L 343.868144 670.667424 
L 343.913174 671.151689 
L 343.961765 563.221086 
L 343.981834 672.12022 
L 344.022312 670.183159 
L 344.050676 672.604485 
L 344.141184 671.635955 
L 344.181176 669.686787 
L 344.218636 672.604485 
L 344.246278 671.635955 
L 344.339362 672.12022 
L 344.254032 670.183159 
L 344.347486 670.667424 
L 344.351611 670.667424 
L 344.429104 672.604485 
L 344.411958 670.183159 
L 344.473143 672.12022 
L 344.488852 669.686787 
L 344.551362 673.585122 
L 344.583302 672.12022 
L 344.63177 674.069387 
L 344.639795 670.667424 
L 344.676384 671.635955 
L 344.704711 673.100857 
L 344.794147 566.623049 
L 344.830809 671.635955 
L 344.854968 670.183159 
L 345.054411 670.667424 
L 345.148078 672.12022 
L 345.064541 669.686787 
L 345.166946 671.151689 
L 345.175915 671.151689 
L 345.194357 669.686787 
L 345.200033 672.12022 
L 345.269462 671.635955 
L 345.281975 669.686787 
L 345.383173 672.604485 
L 345.484511 670.667424 
L 345.398797 674.069387 
L 345.492199 671.635955 
L 345.557504 674.069387 
L 345.525262 670.667424 
L 345.573521 673.100857 
L 345.597864 584.613501 
L 345.683771 671.635955 
L 345.74785 669.686787 
L 345.7807 672.604485 
L 345.785016 671.151689 
L 345.789231 672.604485 
L 345.815402 670.183159 
L 345.895271 671.151689 
L 345.980741 670.183159 
L 345.951753 672.604485 
L 346.000733 671.635955 
L 346.008876 671.635955 
L 346.094609 670.183159 
L 346.050858 672.12022 
L 346.119614 670.667424 
L 346.143209 669.686787 
L 346.2327 672.12022 
L 346.306431 664.832029 
L 346.244927 673.100857 
L 346.325885 672.12022 
L 346.515381 671.151689 
L 346.519807 667.265461 
L 346.539222 672.12022 
L 346.625255 671.635955 
L 346.629067 671.635955 
L 346.655166 672.12022 
L 346.740727 670.183159 
L 346.844866 672.604485 
L 346.853307 671.635955 
L 346.938666 670.183159 
L 346.890029 672.12022 
L 346.963146 671.151689 
L 346.966922 671.151689 
L 346.987334 664.347764 
L 347.015808 672.604485 
L 347.073313 671.151689 
L 347.182527 673.585122 
L 347.089024 670.667424 
L 347.186362 672.12022 
L 347.23133 671.151689 
L 347.235148 673.585122 
L 347.239249 672.12022 
L 347.247355 581.211538 
L 347.308184 673.100857 
L 347.349092 671.151689 
L 347.357005 672.604485 
L 347.422101 670.183159 
L 347.458949 671.635955 
L 347.467013 671.635955 
L 347.487781 670.183159 
L 347.491419 672.12022 
L 347.580705 670.667424 
L 347.621657 670.183159 
L 347.698689 672.604485 
L 347.78805 670.667424 
L 347.795738 672.12022 
L 347.987779 672.604485 
L 347.998119 674.069387 
L 348.081342 671.151689 
L 348.085119 671.635955 
L 348.135985 570.025012 
L 348.166493 673.585122 
L 348.194315 673.100857 
L 348.30767 670.183159 
L 348.333303 672.604485 
L 348.421056 671.635955 
L 348.527523 669.686787 
L 348.453674 672.604485 
L 348.531292 670.667424 
L 348.628758 672.12022 
L 348.563751 669.202522 
L 348.640489 671.635955 
L 348.742698 661.430066 
L 348.648983 672.12022 
L 348.750758 671.635955 
L 348.754706 671.635955 
L 348.799695 670.183159 
L 348.835658 673.100857 
L 348.847987 673.100857 
L 348.851762 674.069387 
L 348.905139 668.718257 
L 348.953679 565.642412 
L 349.007196 673.100857 
L 349.015039 672.604485 
L 349.067703 669.686787 
L 349.022994 673.100857 
L 349.132488 670.667424 
L 349.239077 672.12022 
L 349.223475 669.686787 
L 349.243116 670.667424 
L 349.247219 670.667424 
L 349.263238 672.604485 
L 349.267209 670.667424 
L 349.479349 672.12022 
L 349.57657 670.183159 
L 349.593077 670.667424 
L 349.599226 670.667424 
L 349.70984 673.100857 
L 349.673453 670.183159 
L 349.71192 672.12022 
L 349.735412 673.585122 
L 349.738256 653.161238 
L 349.762248 584.129236 
L 349.823063 673.100857 
L 349.842772 672.12022 
L 349.847411 672.12022 
L 349.907847 673.585122 
L 349.912368 665.316294 
L 349.952799 145.094419 
L 350.030389 604.541013 
L 350.115409 601.623316 
L 350.062389 606.490181 
L 350.139765 604.056748 
L 350.205005 599.686255 
L 350.164126 605.52165 
L 350.245427 604.541013 
L 350.250238 604.541013 
L 350.253341 603.572483 
L 350.29017 608.427241 
L 350.35125 606.974446 
L 350.355353 608.427241 
L 350.374256 584.129236 
L 350.429956 692.059839 
L 350.485322 691.079202 
L 350.53054 689.142141 
L 350.4975 691.575574 
L 350.566561 691.079202 
L 350.587109 601.623316 
L 350.668087 691.575574 
L 350.676497 690.594937 
L 350.680485 690.594937 
L 350.684648 688.657876 
L 350.696644 692.059839 
L 350.737099 690.594937 
L 350.933547 690.110671 
L 350.955842 691.575574 
L 351.015995 687.677239 
L 351.028483 690.594937 
L 351.075669 673.585122 
L 351.049418 691.575574 
L 351.138372 688.161504 
L 351.167856 738.246631 
L 351.294499 738.192684 
L 352.430147 738.195117 
L 352.459276 738.151848 
L 352.541137 738.191715 
L 352.804675 738.188797 
L 352.906193 738.174209 
L 352.812803 738.193168 
L 352.914218 738.194149 
L 353.166263 738.191715 
L 353.174416 738.175674 
L 353.373399 738.194633 
L 353.488937 738.174209 
L 353.512852 738.195601 
L 353.654514 738.144063 
L 353.679953 738.196086 
L 358.719116 738.194633 
L 358.865575 738.195117 
L 358.950628 738.158168 
L 358.983137 738.192199 
L 359.963757 738.190747 
L 360.210207 738.193168 
L 360.291448 738.17956 
L 360.319947 738.19025 
L 360.340526 738.160601 
L 360.462079 738.193168 
L 360.466276 738.164972 
L 360.475272 738.196086 
L 360.572798 738.183931 
L 360.726317 738.190747 
L 360.803467 738.159136 
L 360.836377 738.199488 
L 361.031248 738.194633 
L 363.411602 738.191231 
L 363.439838 738.162054 
L 363.533345 738.194149 
L 363.968357 738.19025 
L 363.972357 738.193168 
L 379.029444 738.193168 
L 379.037402 738.172756 
L 379.15687 738.195601 
L 379.488952 738.194633 
L 379.676763 738.192684 
L 379.747147 738.172272 
L 379.786573 738.19025 
L 379.932393 738.194633 
L 379.935159 738.19025 
L 380.107737 738.181013 
L 380.112709 738.193168 
L 380.421445 738.189766 
L 380.538298 738.190747 
L 380.675961 738.19025 
L 380.679922 738.158168 
L 380.683757 738.191231 
L 380.785412 738.192199 
L 380.928206 738.192199 
L 380.976272 738.171775 
L 380.9478 738.196582 
L 381.041308 738.18588 
L 381.170589 738.192684 
L 559.241788 738.18588 
L 559.429697 715.389314 
L 559.432969 715.885686 
L 559.462102 722.205347 
L 559.523134 689.626406 
L 559.526843 690.594937 
L 559.550405 685.255913 
L 559.554527 686.708708 
L 559.753859 685.740178 
L 559.840764 690.594937 
L 559.863561 686.224443 
L 559.937402 685.255913 
L 559.880765 689.142141 
L 559.96096 686.708708 
L 560.025896 690.110671 
L 560.058217 684.759541 
L 560.070567 689.626406 
L 560.082924 684.275276 
L 560.086728 690.110671 
L 560.179833 688.161504 
L 560.236836 689.626406 
L 560.220617 684.759541 
L 560.273283 686.224443 
L 560.347034 684.759541 
L 560.314162 690.110671 
L 560.362869 688.161504 
L 560.419992 690.110671 
L 560.403496 684.759541 
L 560.452207 686.708708 
L 560.512987 684.275276 
L 560.472135 689.142141 
L 560.558962 686.708708 
L 560.582398 689.626406 
L 560.603285 684.759541 
L 560.667719 685.740178 
L 560.699982 684.759541 
L 560.68411 689.142141 
L 560.761182 687.192974 
L 560.76494 690.110671 
L 560.777227 685.255913 
L 560.870516 688.657876 
L 560.939751 685.255913 
L 560.947864 690.594937 
L 560.976948 688.161504 
L 561.001605 690.110671 
L 560.992677 685.255913 
L 561.024615 688.657876 
L 561.213669 686.708708 
L 561.29059 684.759541 
L 561.322369 689.626406 
L 561.358938 684.759541 
L 561.419771 690.110671 
L 561.43599 685.740178 
L 561.456472 690.110671 
L 561.509356 684.759541 
L 561.549532 689.142141 
L 561.562251 685.255913 
L 561.586212 690.110671 
L 561.659286 689.142141 
L 561.683788 676.018555 
L 561.679871 689.626406 
L 561.753141 686.224443 
L 561.757031 711.503086 
L 561.765304 643.439614 
L 561.862669 683.306746 
L 561.867409 683.306746 
L 561.935687 681.357578 
L 561.907375 684.275276 
L 561.976957 682.338215 
L 562.085602 684.275276 
L 561.996618 681.841843 
L 562.089731 683.306746 
L 562.17561 681.357578 
L 562.187489 684.275276 
L 562.200553 683.306746 
L 562.203822 683.306746 
L 562.239902 683.791011 
L 562.223654 681.841843 
L 562.313028 683.306746 
L 562.316928 683.306746 
L 562.337346 681.357578 
L 562.373998 684.275276 
L 562.424282 682.82248 
L 562.467317 683.791011 
L 562.443075 681.841843 
L 562.496314 682.338215 
L 562.706606 683.791011 
L 562.716915 683.306746 
L 562.816865 681.841843 
L 562.760068 684.275276 
L 562.831364 682.82248 
L 562.838465 682.82248 
L 562.882075 681.357578 
L 562.85579 684.275276 
L 562.932264 683.306746 
L 562.9891 681.357578 
L 563.043172 684.275276 
L 563.087538 678.924146 
L 563.153959 683.791011 
L 563.16212 681.841843 
L 563.210476 684.275276 
L 563.267122 683.306746 
L 563.271221 683.306746 
L 563.27531 681.841843 
L 563.307984 684.275276 
L 563.37718 682.338215 
L 563.478617 684.275276 
L 563.413721 681.841843 
L 563.486869 683.306746 
L 563.567497 682.338215 
L 563.572146 684.759541 
L 563.592716 684.275276 
L 563.625178 681.841843 
L 563.640983 684.759541 
L 563.702423 682.82248 
L 563.718586 681.357578 
L 563.812094 684.275276 
L 563.914179 681.841843 
L 563.930282 682.82248 
L 563.954462 682.338215 
L 563.950315 683.306746 
L 563.967595 682.82248 
L 564.22748 673.100857 
L 564.258901 674.069387 
L 564.320582 676.50282 
L 564.268435 673.585122 
L 564.373106 675.037918 
L 564.377151 675.037918 
L 564.398175 673.100857 
L 564.401548 676.50282 
L 564.487256 674.553652 
L 564.494829 674.553652 
L 564.556822 676.018555 
L 564.535366 673.100857 
L 564.60468 675.037918 
L 564.69741 673.100857 
L 564.620994 676.018555 
L 564.714589 674.553652 
L 564.718512 674.553652 
L 564.754477 672.12022 
L 564.775567 676.018555 
L 564.819813 675.037918 
L 564.824167 676.50282 
L 564.859948 673.100857 
L 564.929505 675.037918 
L 564.982062 673.585122 
L 564.937698 676.50282 
L 565.038947 675.037918 
L 565.042788 676.50282 
L 565.046852 673.585122 
L 565.150247 676.018555 
L 565.242167 673.585122 
L 565.263104 674.069387 
L 565.351742 676.50282 
L 565.267007 673.100857 
L 565.372054 673.585122 
L 565.392399 676.018555 
L 565.437109 674.069387 
L 565.632945 674.069387 
L 565.738641 676.018555 
L 565.706738 672.604485 
L 565.744938 674.553652 
L 565.829724 672.12022 
L 565.795295 676.018555 
L 565.846677 672.604485 
L 565.9187 672.12022 
L 565.957715 676.50282 
L 565.979625 673.100857 
L 566.067043 675.037918 
L 566.143155 672.604485 
L 566.163825 676.018555 
L 566.176096 673.585122 
L 566.245108 683.791011 
L 566.183923 673.100857 
L 566.310109 682.338215 
L 566.379184 681.357578 
L 566.330396 683.306746 
L 566.412406 682.82248 
L 566.43616 683.791011 
L 566.485755 681.357578 
L 566.521302 682.82248 
L 566.627159 683.791011 
L 566.637539 681.357578 
L 566.687842 683.791011 
L 566.748961 682.82248 
L 566.789873 680.873313 
L 566.781462 683.791011 
L 566.859217 681.841843 
L 566.867939 681.841843 
L 566.89542 683.306746 
L 566.907358 682.338215 
L 567.127615 682.82248 
L 567.199454 683.791011 
L 567.144663 681.841843 
L 567.231218 682.338215 
L 567.311316 684.275276 
L 567.443491 670.667424 
L 567.532848 673.100857 
L 567.556983 672.12022 
L 567.659117 673.585122 
L 567.593868 670.667424 
L 567.671208 672.604485 
L 567.752091 671.151689 
L 567.683369 673.100857 
L 567.780608 671.635955 
L 567.881878 673.100857 
L 567.796883 671.151689 
L 567.894416 672.12022 
L 567.902416 672.12022 
L 567.950985 671.151689 
L 568.012038 673.100857 
L 568.121957 671.151689 
L 568.020269 673.585122 
L 568.12635 671.635955 
L 568.21127 671.151689 
L 568.2393 673.100857 
L 568.280234 670.667424 
L 568.357496 672.12022 
L 568.361403 673.100857 
L 568.377585 672.12022 
L 568.573461 671.151689 
L 568.688507 676.987085 
L 568.602894 670.667424 
L 568.709373 676.50282 
L 568.71458 676.50282 
L 568.779261 677.955615 
L 568.73519 675.522183 
L 568.824142 676.50282 
L 568.830786 676.50282 
L 568.936129 677.47135 
L 568.847694 675.522183 
L 568.937782 676.018555 
L 568.975633 675.037918 
L 568.991244 677.47135 
L 569.039933 676.018555 
L 569.100998 677.47135 
L 569.093197 675.522183 
L 569.153532 676.987085 
L 569.166146 677.955615 
L 569.234866 675.037918 
L 569.263474 676.987085 
L 569.295857 675.037918 
L 569.357104 678.43988 
L 569.373247 676.987085 
L 569.377176 676.987085 
L 569.482434 676.018555 
L 569.490699 677.955615 
L 569.580109 675.522183 
L 569.592382 676.987085 
L 569.620678 675.037918 
L 569.645135 677.955615 
L 569.697776 676.987085 
L 569.738552 677.955615 
L 569.7265 674.553652 
L 569.803599 677.47135 
L 569.835853 676.018555 
L 569.848041 676.50282 
L 570.040076 675.522183 
L 570.08461 677.955615 
L 570.074311 675.037918 
L 570.151345 676.018555 
L 570.156352 675.522183 
L 570.222881 677.955615 
L 570.242395 677.955615 
L 570.325751 675.522183 
L 570.361311 676.987085 
L 570.365104 677.955615 
L 570.437607 675.037918 
L 570.469899 677.47135 
L 570.559293 674.553652 
L 570.583361 676.50282 
L 570.689467 677.47135 
L 570.644708 675.522183 
L 570.693409 676.987085 
L 570.758524 675.037918 
L 570.770855 677.47135 
L 570.802853 676.018555 
L 570.83551 676.987085 
L 570.855722 673.100857 
L 570.908303 675.037918 
L 570.969248 673.585122 
L 570.973294 676.50282 
L 571.019026 674.553652 
L 571.038745 676.50282 
L 571.083132 673.100857 
L 571.128094 675.522183 
L 571.156361 671.151689 
L 571.135956 676.018555 
L 571.237408 674.553652 
L 571.242828 674.553652 
L 571.245999 673.585122 
L 571.29496 676.018555 
L 571.319209 674.553652 
L 571.514109 674.069387 
L 571.585704 676.018555 
L 571.565164 673.100857 
L 571.627732 675.037918 
L 571.638042 675.037918 
L 571.653432 674.069387 
L 571.648419 675.522183 
L 571.745505 675.037918 
L 571.749183 675.037918 
L 571.791411 672.604485 
L 571.798514 676.018555 
L 571.863305 674.553652 
L 571.931977 676.50282 
L 571.911553 667.749726 
L 571.9771 675.037918 
L 571.981801 675.037918 
L 572.058454 673.585122 
L 572.094972 676.50282 
L 572.163516 673.585122 
L 572.209191 674.553652 
L 572.289973 676.018555 
L 572.269309 674.069387 
L 572.322659 675.522183 
L 572.342595 672.604485 
L 572.431892 675.522183 
L 572.50539 672.604485 
L 572.451988 676.018555 
L 572.549795 674.069387 
L 572.586854 673.585122 
L 572.663865 676.018555 
L 572.684167 673.100857 
L 572.7775 674.553652 
L 572.781725 674.553652 
L 572.785613 675.522183 
L 572.789312 674.553652 
L 572.98042 667.749726 
L 573.045231 677.955615 
L 573.08333 660.449429 
L 573.10296 661.914331 
L 573.152488 658.512368 
L 573.180046 651.21207 
L 573.201061 661.914331 
L 573.264954 653.161238 
L 573.370811 657.531731 
L 573.306563 651.21207 
L 573.374611 654.129768 
L 573.406681 651.708442 
L 573.418952 663.863498 
L 573.443998 692.059839 
L 573.480356 651.21207 
L 573.520747 653.645503 
L 573.577484 648.294373 
L 573.554158 662.882861 
L 573.585689 661.430066 
L 573.589877 673.100857 
L 573.668007 585.582031 
L 573.719792 606.490181 
L 573.678983 570.025012 
L 573.809267 604.541013 
L 573.81744 604.541013 
L 573.898857 603.572483 
L 573.833629 608.427241 
L 573.914694 605.025278 
L 573.979817 606.490181 
L 573.939771 603.088218 
L 574.016506 605.025278 
L 574.036841 603.572483 
L 574.085511 606.490181 
L 574.126289 604.541013 
L 574.134249 604.541013 
L 574.219364 606.005915 
L 574.170471 602.603953 
L 574.239865 605.025278 
L 574.243947 600.654785 
L 574.247687 606.974446 
L 574.260374 605.52165 
L 574.46195 603.572483 
L 574.562423 605.52165 
L 574.572767 604.056748 
L 574.590944 606.490181 
L 574.602799 601.13905 
L 574.683459 604.541013 
L 574.727133 603.088218 
L 574.774249 607.458711 
L 574.793986 604.056748 
L 574.858258 602.603953 
L 574.909983 608.427241 
L 574.987168 603.572483 
L 575.02334 604.541013 
L 575.125278 606.005915 
L 575.035675 603.572483 
L 575.129193 605.025278 
L 575.137388 602.603953 
L 575.226617 608.923613 
L 575.235181 606.490181 
L 575.238865 608.427241 
L 575.246929 583.632864 
L 575.340459 605.52165 
L 575.429924 603.088218 
L 575.455464 604.541013 
L 575.49366 600.654785 
L 575.498853 606.974446 
L 575.555293 606.005915 
L 575.5592 606.005915 
L 575.608935 603.088218 
L 575.670118 605.52165 
L 575.726933 602.603953 
L 575.69447 606.490181 
L 575.730743 604.541013 
L 575.927408 603.572483 
L 575.999378 606.005915 
L 576.035608 603.088218 
L 576.039738 605.025278 
L 576.067916 608.923613 
L 576.081214 598.221353 
L 576.105549 604.056748 
L 576.109618 599.189883 
L 576.169672 606.005915 
L 576.21441 605.52165 
L 576.255016 602.107581 
L 576.291256 606.005915 
L 576.3284 604.056748 
L 576.409393 606.005915 
L 576.348524 603.572483 
L 576.437844 604.056748 
L 576.483568 600.654785 
L 576.454408 608.427241 
L 576.539571 604.541013 
L 576.592348 602.603953 
L 576.616574 623.499995 
L 576.656946 139.743289 
L 576.665031 626.417693 
L 576.726179 605.52165 
L 576.807474 603.572483 
L 576.80329 606.005915 
L 576.835854 604.541013 
L 576.906177 607.942976 
L 576.860448 603.572483 
L 576.910408 607.458711 
L 576.914662 585.582031 
L 577.018802 604.541013 
L 577.091855 603.572483 
L 577.099954 606.490181 
L 577.161156 608.923613 
L 577.157323 603.088218 
L 577.201524 604.056748 
L 577.406235 604.541013 
L 577.492265 606.490181 
L 577.431316 603.088218 
L 577.515635 604.541013 
L 577.57454 612.325576 
L 577.56869 604.056748 
L 577.580293 611.841311 
L 577.640732 144.125889 
L 577.657207 613.294106 
L 577.693873 561.756184 
L 577.698359 556.405054 
L 577.72109 605.52165 
L 577.722775 604.541013 
L 577.724732 145.578684 
L 577.782132 613.294106 
L 577.83116 544.262104 
L 577.940366 605.52165 
L 577.8391 133.92 
L 577.944464 604.056748 
L 578.033936 608.427241 
L 578.029758 603.088218 
L 578.054999 604.541013 
L 578.074433 606.005915 
L 578.167845 603.572483 
L 578.171905 606.005915 
L 578.240793 585.582031 
L 578.244836 581.211538 
L 578.252929 691.575574 
L 578.257167 691.575574 
L 578.346574 689.626406 
L 578.26938 692.059839 
L 578.375262 690.594937 
L 578.383056 690.594937 
L 578.387273 690.110671 
L 578.424073 692.059839 
L 578.489915 691.079202 
L 578.497072 691.079202 
L 578.513502 689.626406 
L 578.52561 692.059839 
L 578.586386 583.148599 
L 578.643384 605.025278 
L 578.647339 605.025278 
L 578.668557 600.17052 
L 578.672178 603.572483 
L 578.869793 603.572483 
L 578.877687 608.427241 
L 578.899533 603.088218 
L 578.98046 604.541013 
L 579.017025 604.056748 
L 579.030811 605.52165 
L 579.03846 604.541013 
L 579.045391 606.974446 
L 579.081329 603.572483 
L 579.09864 603.572483 
L 579.103236 580.715166 
L 579.144732 692.059839 
L 579.19035 691.079202 
L 579.276992 692.059839 
L 579.2164 689.142141 
L 579.298098 691.079202 
L 579.353784 689.626406 
L 579.321301 691.575574 
L 579.35809 691.079202 
L 579.40693 583.632864 
L 579.439476 691.575574 
L 579.468097 690.110671 
L 579.51624 689.142141 
L 579.548968 691.575574 
L 579.565098 691.575574 
L 579.613822 692.059839 
L 579.581946 690.110671 
L 579.662771 691.079202 
L 579.739776 689.626406 
L 579.671292 692.544104 
L 579.768754 690.110671 
L 579.817325 689.142141 
L 579.882047 691.575574 
L 579.914314 684.759541 
L 579.906385 692.544104 
L 579.995793 690.110671 
L 580.012002 688.657876 
L 580.115052 692.544104 
L 580.13438 690.110671 
L 580.142331 690.594937 
L 580.340573 690.110671 
L 580.351118 685.255913 
L 580.388008 692.059839 
L 580.448341 691.575574 
L 580.553018 690.110671 
L 580.471008 692.059839 
L 580.560739 691.079202 
L 580.659437 689.626406 
L 580.613605 692.059839 
L 580.670484 691.079202 
L 580.672378 691.079202 
L 580.731924 688.161504 
L 580.703179 692.059839 
L 580.783697 690.594937 
L 580.796179 688.657876 
L 580.887195 692.059839 
L 580.98708 689.626406 
L 580.999529 691.575574 
L 581.010822 690.594937 
L 581.019172 691.079202 
L 581.03179 604.541013 
L 581.092607 692.059839 
L 581.129382 690.594937 
L 581.133478 690.594937 
L 581.138387 687.192974 
L 581.226841 692.059839 
L 581.243033 690.110671 
L 581.246895 690.110671 
L 581.348609 692.544104 
L 581.303581 688.657876 
L 581.360746 691.575574 
L 581.37343 692.059839 
L 581.446913 689.142141 
L 581.462537 691.575574 
L 581.556568 673.585122 
L 581.486924 692.059839 
L 581.577554 690.594937 
L 581.585095 690.110671 
L 581.613041 691.575574 
L 581.807367 690.110671 
L 581.820363 691.575574 
L 581.845122 690.594937 
L 581.905633 578.778105 
L 581.98773 607.942976 
L 581.999834 608.923613 
L 582.009667 583.632864 
L 582.013729 143.641624 
L 582.029293 632.737354 
L 582.120056 585.097766 
L 582.121829 585.097766 
L 582.201845 583.148599 
L 582.153704 588.015464 
L 582.230665 585.097766 
L 582.311586 587.034827 
L 582.275069 583.632864 
L 582.339839 584.613501 
L 582.412887 586.550562 
L 582.356765 582.664334 
L 582.445987 584.129236 
L 582.449452 564.189617 
L 582.510412 672.604485 
L 582.538478 671.635955 
L 582.632585 670.183159 
L 582.636279 672.604485 
L 582.640184 672.604485 
L 582.672952 671.151689 
L 582.684836 671.635955 
L 582.733758 583.148599 
L 582.783369 673.100857 
L 582.795231 672.12022 
L 582.905621 674.069387 
L 582.827518 670.667424 
L 582.909274 672.604485 
L 582.924954 670.667424 
L 582.917059 673.585122 
L 583.022197 671.151689 
L 583.042714 673.100857 
L 583.079388 670.183159 
L 583.083204 672.12022 
L 583.285164 670.183159 
L 583.307558 672.604485 
L 583.396435 671.151689 
L 583.400423 671.151689 
L 583.474002 672.604485 
L 583.429427 669.686787 
L 583.510431 671.151689 
L 583.514402 671.151689 
L 583.518586 672.12022 
L 583.569325 561.756184 
L 583.575878 673.100857 
L 583.628797 673.100857 
L 583.66054 673.585122 
L 583.674356 667.749726 
L 583.729507 672.604485 
L 583.745852 673.585122 
L 583.847351 671.151689 
L 583.851469 672.604485 
L 583.855498 654.129768 
L 583.908526 380.410979 
L 583.985409 584.613501 
L 584.009782 586.066296 
L 584.095966 579.262371 
L 584.132373 586.550562 
L 584.209186 584.129236 
L 584.213103 584.129236 
L 584.28204 583.148599 
L 584.225347 585.582031 
L 584.318545 584.613501 
L 584.334665 585.097766 
L 584.343009 583.148599 
L 584.347197 283.654795 
L 584.444618 673.585122 
L 584.448893 672.604485 
L 584.485879 668.233992 
L 584.468903 674.069387 
L 584.554132 672.12022 
L 584.74798 672.12022 
L 584.85327 670.667424 
L 584.819538 672.604485 
L 584.858662 671.635955 
L 584.936403 672.12022 
L 584.932512 670.183159 
L 584.944453 670.667424 
L 584.947212 665.316294 
L 584.988 672.604485 
L 585.05387 670.667424 
L 585.142532 672.604485 
L 585.082219 670.183159 
L 585.163696 671.635955 
L 585.183469 654.62614 
L 585.231967 562.240449 
L 585.256594 673.100857 
L 585.289041 672.604485 
L 585.298039 670.183159 
L 585.349839 674.069387 
L 585.40278 671.635955 
L 585.406821 671.635955 
L 585.475903 673.100857 
L 585.443475 671.151689 
L 585.516859 671.635955 
L 585.540619 672.604485 
L 585.630356 669.686787 
L 585.720302 672.12022 
L 585.704242 665.800559 
L 585.740106 670.183159 
L 585.744023 670.183159 
L 585.776578 672.604485 
L 585.849637 669.202522 
L 585.853788 669.202522 
L 585.889951 672.604485 
L 585.967422 672.12022 
L 585.971602 672.604485 
L 585.975461 671.151689 
L 586.012557 671.635955 
L 586.024092 583.632864 
L 586.249983 672.604485 
L 586.318825 672.12022 
L 586.325465 665.800559 
L 586.415465 673.585122 
L 586.429797 672.12022 
L 586.433373 673.585122 
L 586.507935 670.183159 
L 586.53769 671.151689 
L 586.539937 671.151689 
L 586.622402 666.284824 
L 586.598681 673.100857 
L 586.650404 671.151689 
L 586.73923 672.604485 
L 586.730897 669.686787 
L 586.759393 671.635955 
L 586.767437 672.12022 
L 586.848924 634.686521 
L 586.853238 566.138784 
L 586.905646 672.604485 
L 586.954945 671.635955 
L 586.958713 671.635955 
L 586.975092 670.183159 
L 587.03608 673.100857 
L 587.056018 673.100857 
L 587.05994 673.585122 
L 587.137394 670.667424 
L 587.149753 672.12022 
L 587.161747 670.183159 
L 587.202128 674.069387 
L 587.263698 671.151689 
L 587.267392 671.151689 
L 587.319903 670.667424 
L 587.360786 672.604485 
L 587.368906 671.151689 
L 587.434802 665.316294 
L 587.482507 672.12022 
L 587.486571 672.12022 
L 587.690298 634.202256 
L 587.751286 564.189617 
L 587.773897 672.604485 
L 587.796107 671.635955 
L 587.83229 672.12022 
L 587.915918 666.284824 
L 588.021339 673.585122 
L 588.029242 672.12022 
L 588.12526 670.183159 
L 588.060188 673.585122 
L 588.140865 671.635955 
L 588.145061 671.635955 
L 588.214782 665.800559 
L 588.186031 673.585122 
L 588.250863 671.635955 
L 588.315178 672.604485 
L 588.34772 670.183159 
L 588.360166 671.635955 
L 588.368344 671.635955 
L 588.445552 669.202522 
L 588.412772 672.604485 
L 588.481711 671.151689 
L 588.485778 671.151689 
L 588.489836 672.604485 
L 588.51051 660.945801 
L 588.559169 562.240449 
L 588.567382 672.12022 
L 588.618748 670.667424 
L 588.677128 672.604485 
L 588.718038 668.233992 
L 588.807589 673.585122 
L 588.83166 673.100857 
L 588.855771 673.585122 
L 588.939429 670.667424 
L 588.945252 672.604485 
L 588.953893 666.781196 
L 588.965929 670.667424 
L 589.170759 671.635955 
L 589.176188 671.151689 
L 589.181368 671.151689 
L 589.235231 672.12022 
L 589.204078 669.686787 
L 589.271912 670.183159 
L 589.289326 666.284824 
L 589.37388 672.604485 
L 589.377283 671.151689 
L 589.39541 672.604485 
L 589.408401 653.161238 
L 589.422762 584.129236 
L 589.46553 672.604485 
L 589.514332 670.667424 
L 589.598932 673.100857 
L 589.555866 665.800559 
L 589.625056 671.635955 
L 589.680444 655.110405 
L 589.668215 673.585122 
L 589.733235 671.151689 
L 589.741319 671.151689 
L 589.843912 670.183159 
L 589.765654 673.585122 
L 589.846945 671.635955 
L 589.944498 672.604485 
L 589.908002 670.667424 
L 589.952602 671.151689 
L 589.969642 666.781196 
L 589.97758 672.604485 
L 590.058579 671.635955 
L 590.062627 671.635955 
L 590.131987 672.604485 
L 590.175951 637.604219 
L 590.196374 584.613501 
L 590.253315 673.100857 
L 590.281818 671.635955 
L 590.359065 672.604485 
L 590.367582 669.202522 
L 590.387698 671.151689 
L 590.407762 669.686787 
L 590.424329 672.12022 
L 590.435783 672.12022 
L 590.631642 673.100857 
L 590.732664 670.667424 
L 590.650565 673.585122 
L 590.754087 671.151689 
L 590.759236 671.151689 
L 590.850836 666.284824 
L 590.823896 672.12022 
L 590.871438 669.686787 
L 590.984499 672.12022 
L 590.886152 668.233992 
L 590.98617 671.151689 
L 590.987964 671.151689 
L 590.991342 671.635955 
L 591.00931 633.233725 
L 591.013946 568.075845 
L 591.105958 672.604485 
L 591.114402 671.635955 
L 591.180232 665.316294 
L 591.219991 670.667424 
L 591.32143 673.100857 
L 591.229382 670.183159 
L 591.334193 672.12022 
L 591.390961 673.585122 
L 591.370096 671.151689 
L 591.443563 672.12022 
L 591.520378 670.183159 
L 591.492361 673.100857 
L 591.553186 671.635955 
L 591.586578 665.800559 
L 591.650676 672.604485 
L 591.66319 670.183159 
L 591.772558 672.604485 
L 591.845697 568.56011 
L 591.890405 654.129768 
L 591.906785 673.100857 
L 592.103572 670.667424 
L 592.132732 665.316294 
L 592.204014 672.12022 
L 592.226782 671.151689 
L 592.25312 673.585122 
L 592.291465 672.12022 
L 592.350028 673.585122 
L 592.385055 671.151689 
L 592.402573 672.12022 
L 592.496393 665.316294 
L 592.409378 673.100857 
L 592.512109 671.151689 
L 592.532389 670.183159 
L 592.629407 672.12022 
L 592.674298 631.768823 
L 592.73513 567.59158 
L 592.751314 672.12022 
L 592.77958 671.635955 
L 592.86956 670.667424 
L 592.787965 673.585122 
L 592.88901 671.151689 
L 592.967163 672.12022 
L 592.926143 670.183159 
L 592.99538 671.635955 
L 593.003518 670.667424 
L 593.019603 673.585122 
L 593.100412 672.12022 
L 593.210778 673.100857 
L 593.149688 670.183159 
L 593.214817 672.604485 
L 593.317758 665.800559 
L 593.222658 673.100857 
L 593.328513 671.151689 
L 593.332683 671.151689 
L 593.348747 670.667424 
L 593.352689 672.12022 
L 593.376886 671.635955 
L 593.56737 670.183159 
L 593.658147 672.12022 
L 593.601504 669.686787 
L 593.682747 671.151689 
L 593.768 672.12022 
L 593.715802 665.800559 
L 593.784044 671.151689 
L 593.849138 670.183159 
L 593.880954 673.100857 
L 593.893399 675.037918 
L 593.934294 670.667424 
L 593.984685 672.604485 
L 593.991446 669.686787 
L 594.015273 673.585122 
L 594.100772 671.151689 
L 594.108979 672.604485 
L 594.121996 665.800559 
L 594.212534 671.635955 
L 594.215269 671.635955 
L 594.299728 669.686787 
L 594.255095 672.604485 
L 594.328072 671.151689 
L 594.332146 672.12022 
L 594.344142 581.695803 
L 594.441385 672.12022 
L 594.52742 665.316294 
L 594.514525 672.604485 
L 594.555156 670.667424 
L 594.66093 672.12022 
L 594.616202 669.686787 
L 594.66886 671.635955 
L 594.673141 671.635955 
L 594.713873 670.183159 
L 594.733896 673.585122 
L 594.7746 672.12022 
L 594.830918 673.100857 
L 594.847863 670.183159 
L 595.114286 603.088218 
L 595.151758 603.572483 
L 595.185295 609.407878 
L 595.273878 607.942976 
L 595.27899 587.034827 
L 595.384161 604.541013 
L 595.404527 581.695803 
L 595.400098 605.52165 
L 595.428689 584.613501 
L 595.493237 692.059839 
L 595.542534 690.594937 
L 595.550158 690.594937 
L 595.665014 692.059839 
L 595.587008 689.142141 
L 595.668426 691.575574 
L 595.761802 689.142141 
L 595.72101 692.059839 
L 595.781531 689.626406 
L 595.826629 692.544104 
L 595.8435 687.677239 
L 595.893228 690.110671 
L 595.904056 689.142141 
L 595.997287 692.544104 
L 596.005589 582.180068 
L 596.106566 691.079202 
L 596.175778 692.059839 
L 596.135364 689.626406 
L 596.190242 691.079202 
L 596.193653 687.677239 
L 596.197467 696.430332 
L 596.333385 738.195117 
L 604.918097 738.163035 
L 605.031578 738.192684 
L 605.504548 738.191231 
L 606.19404 738.191715 
L 606.197802 738.156715 
L 606.222251 738.199984 
L 606.303626 738.186848 
L 784.50463 738.190747 
L 784.507375 738.688523 
L 784.588376 738.151848 
L 784.607711 738.180529 
L 784.695461 738.194633 
L 792.298004 738.195117 
L 792.457439 738.191231 
L 792.568855 738.181993 
L 792.583849 738.172756 
L 792.689472 738.193664 
L 793.219184 738.194149 
L 793.223796 738.159136 
L 793.328891 738.193168 
L 793.680296 738.172272 
L 793.790274 738.193168 
L 793.707908 738.160601 
L 793.794929 738.189282 
L 794.094582 738.190747 
L 794.199125 738.190747 
L 794.204123 738.184427 
L 794.272173 738.175674 
L 794.215886 738.190747 
L 794.315899 738.194149 
L 794.878537 738.193168 
L 795.003252 738.190747 
L 804.306362 738.192199 
L 804.453579 716.369951 
L 804.469156 716.854216 
L 804.479068 714.905049 
L 804.617326 721.708975 
L 804.622656 720.740444 
L 804.725821 685.255913 
L 804.737677 687.677239 
L 804.752722 685.740178 
L 804.8453 690.594937 
L 804.855294 684.759541 
L 804.963521 685.740178 
L 805.071106 689.626406 
L 804.983637 685.255913 
L 805.07646 688.161504 
L 805.157654 685.740178 
L 805.169509 689.142141 
L 805.189784 687.192974 
L 805.282717 690.110671 
L 805.277396 685.255913 
L 805.292708 688.161504 
L 805.360913 684.759541 
L 805.368471 690.110671 
L 805.403632 688.161504 
L 805.47412 690.110671 
L 805.516785 684.759541 
L 805.539106 690.110671 
L 805.549014 684.275276 
L 805.642927 686.708708 
L 805.650262 686.708708 
L 805.747883 684.759541 
L 805.67526 689.626406 
L 805.758515 688.161504 
L 805.768747 690.594937 
L 805.785781 685.255913 
L 805.850931 687.192974 
L 805.960286 685.255913 
L 805.913187 689.142141 
L 805.962984 685.740178 
L 806.080273 690.110671 
L 806.164135 684.759541 
L 806.194703 685.740178 
L 806.203255 684.759541 
L 806.266412 689.626406 
L 806.288903 687.677239 
L 806.35071 689.142141 
L 806.370841 684.759541 
L 806.390742 688.657876 
L 806.429578 684.759541 
L 806.417741 689.626406 
L 806.505229 685.255913 
L 806.615657 689.626406 
L 806.525575 684.759541 
L 806.625683 687.677239 
L 806.7321 685.255913 
L 806.650091 690.110671 
L 806.739716 685.740178 
L 806.742672 685.740178 
L 806.834231 685.255913 
L 806.847789 689.626406 
L 806.952566 685.255913 
L 807.035841 690.594937 
L 807.06614 690.110671 
L 807.156187 678.924146 
L 807.094543 690.594937 
L 807.231627 685.740178 
L 807.238825 686.708708 
L 807.250243 686.224443 
L 807.270943 639.553386 
L 807.356677 681.357578 
L 807.436646 684.759541 
L 807.4711 683.791011 
L 807.489296 684.275276 
L 807.583684 677.47135 
L 807.673624 684.275276 
L 807.698546 683.306746 
L 807.769021 684.275276 
L 807.746282 681.841843 
L 807.798047 682.82248 
L 807.840604 684.275276 
L 807.910606 682.338215 
L 807.953068 683.791011 
L 807.925446 681.357578 
L 808.01636 683.306746 
L 808.059655 683.791011 
L 808.128572 678.924146 
L 808.22918 683.791011 
L 808.245127 683.306746 
L 808.328298 682.338215 
L 808.255316 684.759541 
L 808.343193 682.82248 
L 808.375036 681.841843 
L 808.458139 684.275276 
L 808.57701 682.338215 
L 808.581818 682.338215 
L 808.664806 684.275276 
L 808.639939 679.420517 
L 808.692504 683.791011 
L 808.805072 681.841843 
L 808.753999 684.759541 
L 808.809806 682.338215 
L 808.879588 684.275276 
L 808.831447 681.841843 
L 808.92209 683.306746 
L 808.927022 683.306746 
L 809.004966 681.841843 
L 808.977375 684.275276 
L 809.040499 682.338215 
L 809.108537 684.759541 
L 809.093312 680.873313 
L 809.1557 684.275276 
L 809.263525 682.82248 
L 809.363656 680.873313 
L 809.373982 684.759541 
L 809.452364 681.841843 
L 809.482733 682.82248 
L 809.541274 684.759541 
L 809.573854 678.924146 
L 809.579222 682.82248 
L 809.673484 674.553652 
L 809.625097 684.275276 
L 809.698409 675.522183 
L 809.726086 674.069387 
L 809.731054 676.50282 
L 809.808698 675.522183 
L 809.860552 673.585122 
L 809.833668 676.018555 
L 809.910588 676.018555 
L 809.915299 676.018555 
L 809.979941 674.069387 
L 809.949979 676.50282 
L 810.033537 674.553652 
L 810.131704 676.987085 
L 810.091173 667.749726 
L 810.149197 676.018555 
L 810.184881 676.50282 
L 810.264092 674.553652 
L 810.341215 676.50282 
L 810.373631 675.522183 
L 810.379089 675.522183 
L 810.44675 676.018555 
L 810.409532 673.585122 
L 810.477142 675.522183 
L 810.507435 676.50282 
L 810.585569 674.553652 
L 810.597462 676.50282 
L 810.612719 669.686787 
L 810.690558 676.018555 
L 810.78776 675.037918 
L 810.738039 676.50282 
L 810.797895 676.018555 
L 810.871517 676.50282 
L 810.808089 674.553652 
L 810.897871 676.018555 
L 810.918258 670.183159 
L 810.949446 676.50282 
L 811.000502 676.50282 
L 811.003356 676.987085 
L 811.064529 674.553652 
L 811.097635 676.018555 
L 811.157644 674.553652 
L 811.14029 676.50282 
L 811.210755 675.037918 
L 811.275801 676.50282 
L 811.240934 674.069387 
L 811.316757 676.018555 
L 811.345205 674.553652 
L 811.37919 676.50282 
L 811.43159 675.037918 
L 811.441504 672.604485 
L 811.541625 676.50282 
L 811.551735 674.553652 
L 811.648274 675.522183 
L 811.708913 674.069387 
L 811.68613 676.50282 
L 811.749089 676.018555 
L 811.759119 676.987085 
L 811.792924 674.553652 
L 811.855139 675.522183 
L 811.862299 675.522183 
L 811.949198 667.749726 
L 811.897086 676.018555 
L 811.969688 669.202522 
L 811.986788 676.50282 
L 812.081942 674.553652 
L 812.177721 676.50282 
L 812.121826 674.069387 
L 812.188268 675.037918 
L 812.237147 676.018555 
L 812.293389 674.553652 
L 812.321917 683.306746 
L 812.409738 682.82248 
L 812.43029 683.306746 
L 812.521985 681.841843 
L 812.557251 683.791011 
L 812.531988 680.873313 
L 812.631495 682.82248 
L 812.694325 681.357578 
L 812.649198 683.306746 
L 812.745778 682.338215 
L 812.753017 682.338215 
L 812.847296 683.791011 
L 812.767095 681.357578 
L 812.860278 681.841843 
L 812.943289 683.791011 
L 812.907169 678.43988 
L 812.973573 682.82248 
L 813.056451 681.357578 
L 812.993145 683.791011 
L 813.080923 683.306746 
L 813.140554 683.791011 
L 813.128216 681.841843 
L 813.173972 683.306746 
L 813.194137 681.357578 
L 813.253888 684.275276 
L 813.278229 683.791011 
L 813.405182 681.841843 
L 813.472089 684.275276 
L 813.424849 678.924146 
L 813.515374 682.338215 
L 813.556321 683.306746 
L 813.584123 680.873313 
L 813.594693 682.338215 
L 813.673493 671.151689 
L 813.708691 672.12022 
L 813.736772 671.635955 
L 813.826674 673.100857 
L 813.926967 671.635955 
L 813.932033 673.585122 
L 813.95464 665.800559 
L 814.048409 672.604485 
L 814.121637 673.585122 
L 814.063776 671.635955 
L 814.159428 672.604485 
L 814.232346 664.832029 
L 814.20498 673.585122 
L 814.267389 673.100857 
L 814.277444 673.585122 
L 814.381352 671.635955 
L 814.411366 670.667424 
L 814.499383 673.585122 
L 814.604533 671.151689 
L 814.614656 672.12022 
L 814.701646 674.069387 
L 814.649267 671.635955 
L 814.721373 672.604485 
L 814.748721 663.863498 
L 814.741709 673.100857 
L 814.837999 670.667424 
L 814.937772 677.47135 
L 814.95898 676.987085 
L 814.975914 676.987085 
L 815.02286 675.522183 
L 815.033012 677.47135 
L 815.086816 676.50282 
L 815.091812 676.50282 
L 815.124292 677.955615 
L 815.190484 675.522183 
L 815.202395 677.47135 
L 815.292008 672.604485 
L 815.269637 677.955615 
L 815.317631 676.018555 
L 815.349898 675.522183 
L 815.429998 677.47135 
L 815.491154 675.037918 
L 815.485992 677.955615 
L 815.540851 676.50282 
L 815.546187 676.50282 
L 815.63993 677.47135 
L 815.619759 675.522183 
L 815.651914 676.987085 
L 815.754722 673.585122 
L 815.687156 677.955615 
L 815.759487 676.50282 
L 815.779632 677.955615 
L 815.796719 675.522183 
L 815.869102 676.987085 
L 815.97288 675.522183 
L 815.884224 677.47135 
L 815.983119 676.50282 
L 815.988014 676.50282 
L 816.046388 675.522183 
L 816.026007 676.987085 
L 816.092147 676.987085 
L 816.168522 677.47135 
L 816.105547 675.522183 
L 816.199538 676.50282 
L 816.239082 674.553652 
L 816.304286 678.43988 
L 816.412793 676.018555 
L 816.423249 676.50282 
L 816.430743 676.50282 
L 816.507516 677.955615 
L 816.539868 675.522183 
L 816.634651 677.47135 
L 816.655127 676.50282 
L 816.698307 674.553652 
L 816.675208 677.955615 
L 816.738993 676.018555 
L 816.802179 677.955615 
L 816.771674 672.604485 
L 816.851939 676.987085 
L 816.902786 675.522183 
L 816.949486 677.955615 
L 816.959868 676.50282 
L 817.013879 677.955615 
L 817.031112 675.522183 
L 817.073696 676.987085 
L 817.128446 677.955615 
L 817.18142 675.522183 
L 817.22106 677.955615 
L 817.292439 676.50282 
L 817.295749 674.069387 
L 817.377143 677.47135 
L 817.404781 675.522183 
L 817.480263 676.50282 
L 817.497848 674.069387 
L 817.509673 675.522183 
L 817.57177 672.12022 
L 817.541266 676.50282 
L 817.618073 675.522183 
L 817.638873 673.585122 
L 817.646342 676.50282 
L 817.713766 674.069387 
L 817.808603 676.50282 
L 817.829517 675.522183 
L 817.832297 675.522183 
L 817.905895 676.50282 
L 817.842455 674.553652 
L 817.926388 674.553652 
L 817.933679 673.100857 
L 818.009832 676.987085 
L 818.029295 674.553652 
L 818.032363 676.50282 
L 818.102908 669.686787 
L 818.13747 674.553652 
L 818.190832 676.50282 
L 818.262122 675.522183 
L 818.348787 674.553652 
L 818.33558 676.018555 
L 818.368971 675.037918 
L 818.429166 676.987085 
L 818.471455 674.553652 
L 818.474487 675.522183 
L 818.547238 673.585122 
L 818.502058 676.50282 
L 818.567561 675.037918 
L 818.641528 676.987085 
L 818.638644 667.265461 
L 818.672203 675.037918 
L 818.679333 675.037918 
L 818.734389 676.50282 
L 818.714229 674.069387 
L 818.79516 676.018555 
L 818.898047 674.553652 
L 818.84074 676.50282 
L 818.915523 675.037918 
L 818.921301 675.037918 
L 818.942119 676.987085 
L 818.973518 674.069387 
L 819.034242 676.50282 
L 819.118898 674.069387 
L 819.141768 674.553652 
L 819.216671 676.50282 
L 819.188631 674.069387 
L 819.253467 675.037918 
L 819.359554 674.069387 
L 819.275675 676.50282 
L 819.364343 674.553652 
L 819.452718 676.987085 
L 819.374588 674.069387 
L 819.472851 675.037918 
L 819.477752 675.037918 
L 819.545777 676.018555 
L 819.520293 674.069387 
L 819.572998 674.069387 
L 819.578344 668.233992 
L 819.623308 676.50282 
L 819.680991 675.037918 
L 819.685785 676.50282 
L 819.707522 674.553652 
L 819.790755 675.037918 
L 819.87923 676.018555 
L 819.863868 673.585122 
L 819.899416 675.037918 
L 819.904199 675.037918 
L 819.919335 676.018555 
L 819.931455 673.100857 
L 819.951737 675.522183 
L 819.956524 656.563201 
L 820.065741 660.449429 
L 820.098204 665.316294 
L 820.103 655.110405 
L 820.108176 651.21207 
L 820.128265 662.398596 
L 820.212082 653.645503 
L 820.275849 651.21207 
L 820.280717 656.078936 
L 820.324029 651.708442 
L 820.450755 675.522183 
L 820.461351 675.037918 
L 820.491845 651.21207 
L 820.476742 694.493271 
L 820.575147 653.161238 
L 820.613692 675.037918 
L 820.63897 645.873047 
L 820.672045 664.347764 
L 820.722995 601.13905 
L 820.79741 605.025278 
L 820.893901 606.974446 
L 820.830523 603.572483 
L 820.909678 605.52165 
L 820.94486 584.129236 
L 820.919782 607.458711 
L 821.023078 604.056748 
L 821.029489 604.056748 
L 821.097566 606.490181 
L 821.051529 603.572483 
L 821.150294 605.025278 
L 821.197995 602.603953 
L 821.192884 606.974446 
L 821.261042 605.025278 
L 821.266537 605.025278 
L 821.271486 582.664334 
L 821.276885 605.52165 
L 821.376584 603.572483 
L 821.478185 606.005915 
L 821.486196 605.52165 
L 821.559046 601.623316 
L 821.507605 606.005915 
L 821.593237 605.025278 
L 821.636692 607.942976 
L 821.612377 603.572483 
L 821.644062 605.52165 
L 821.646912 581.211538 
L 821.751866 605.52165 
L 821.760306 606.005915 
L 821.792162 603.088218 
L 821.84414 604.541013 
L 821.878557 602.107581 
L 821.854627 606.974446 
L 821.954774 604.541013 
L 821.962185 604.541013 
L 821.972775 605.52165 
L 822.080987 603.088218 
L 822.155971 606.490181 
L 822.189823 604.056748 
L 822.272021 603.088218 
L 822.283379 605.52165 
L 822.294657 604.056748 
L 822.399429 606.005915 
L 822.349017 601.623316 
L 822.402305 604.541013 
L 822.445582 604.056748 
L 822.412558 605.52165 
L 822.476424 604.541013 
L 822.505622 608.923613 
L 822.516307 583.632864 
L 822.582974 605.52165 
L 822.590439 605.52165 
L 822.593463 606.005915 
L 822.642361 602.107581 
L 822.696424 605.52165 
L 822.742306 582.664334 
L 822.773783 613.778372 
L 822.781138 135.372796 
L 822.880349 625.449163 
L 822.89115 150.445549 
L 822.898673 607.458711 
L 823.006172 605.52165 
L 823.016801 148.980647 
L 823.08529 614.759009 
L 823.115669 605.025278 
L 823.1187 604.056748 
L 823.126138 607.942976 
L 823.129509 148.980647 
L 823.147186 626.417693 
L 823.23479 604.541013 
L 823.242283 604.541013 
L 823.306652 602.603953 
L 823.319859 606.005915 
L 823.353335 603.088218 
L 823.402884 606.005915 
L 823.39438 601.623316 
L 823.467195 604.056748 
L 823.470124 601.623316 
L 823.482585 603.088218 
L 823.490145 243.787664 
L 823.567772 692.059839 
L 823.588858 690.594937 
L 823.609871 692.059839 
L 823.663238 688.161504 
L 823.702647 691.079202 
L 823.788824 689.626406 
L 823.791743 691.575574 
L 823.802387 690.594937 
L 823.851601 692.544104 
L 823.876559 690.110671 
L 823.907502 690.110671 
L 823.958101 692.059839 
L 823.960967 689.626406 
L 824.032333 691.575574 
L 824.147445 689.142141 
L 824.18002 692.059839 
L 824.25932 690.594937 
L 824.293978 692.059839 
L 824.299037 689.626406 
L 824.364633 691.079202 
L 824.382496 671.635955 
L 824.393388 584.129236 
L 824.506668 605.52165 
L 824.512202 605.52165 
L 824.630707 585.097766 
L 824.699526 605.52165 
L 824.741211 604.541013 
L 824.759094 600.17052 
L 824.79078 605.52165 
L 824.850415 604.056748 
L 824.866014 606.490181 
L 824.936373 603.572483 
L 824.957407 606.005915 
L 825.006526 603.088218 
L 825.01685 604.541013 
L 825.03881 359.987095 
L 825.086239 692.544104 
L 825.101874 691.079202 
L 825.161347 689.626406 
L 825.176661 691.575574 
L 825.273821 604.541013 
L 825.309665 672.12022 
L 825.342459 692.544104 
L 825.42211 690.110671 
L 825.427138 690.110671 
L 825.453106 691.079202 
L 825.458092 672.12022 
L 825.506963 692.059839 
L 825.560507 690.594937 
L 825.651402 692.059839 
L 825.586599 689.626406 
L 825.672361 691.575574 
L 825.6933 687.677239 
L 825.710944 692.059839 
L 825.792718 690.594937 
L 825.798248 690.594937 
L 825.895315 692.059839 
L 825.844855 689.626406 
L 825.916585 691.575574 
L 826.030787 690.110671 
L 826.036104 690.594937 
L 826.051592 690.110671 
L 826.153544 692.059839 
L 826.265524 687.192974 
L 826.28109 690.110671 
L 826.319522 692.059839 
L 826.292383 689.626406 
L 826.335424 691.575574 
L 826.34576 586.550562 
L 826.438452 692.059839 
L 826.444389 691.079202 
L 826.512606 689.626406 
L 826.475535 691.575574 
L 826.529003 691.079202 
L 826.5343 671.151689 
L 826.539699 692.059839 
L 826.638741 690.110671 
L 826.702022 689.626406 
L 826.760861 692.059839 
L 826.819425 688.161504 
L 826.870968 690.594937 
L 826.972981 692.059839 
L 826.92448 687.192974 
L 826.981754 691.575574 
L 827.082679 686.224443 
L 827.104721 688.161504 
L 827.195552 692.544104 
L 827.204251 692.059839 
L 827.273855 586.550562 
L 827.308721 691.575574 
L 827.381809 671.151689 
L 827.384633 669.686787 
L 827.396906 691.575574 
L 827.448958 691.079202 
L 827.54569 689.142141 
L 827.482085 692.059839 
L 827.555861 690.594937 
L 827.650067 692.059839 
L 827.626466 688.161504 
L 827.667767 691.575574 
L 827.752931 633.717991 
L 827.828384 137.806228 
L 827.864782 584.613501 
L 827.905789 560.787654 
L 827.962552 586.550562 
L 827.983057 581.695803 
L 828.089063 584.613501 
L 828.099612 586.066296 
L 828.167472 583.148599 
L 828.198934 584.129236 
L 828.221533 587.034827 
L 828.273982 581.695803 
L 828.304099 584.613501 
L 828.31747 588.015464 
L 828.420611 564.673882 
L 828.486463 433.885962 
L 828.54516 672.12022 
L 828.555585 670.667424 
L 828.60755 673.585122 
L 828.638841 672.12022 
L 828.652141 673.585122 
L 828.703611 670.667424 
L 828.748016 672.12022 
L 828.761513 672.12022 
L 828.857636 670.667424 
L 828.837088 673.100857 
L 828.865158 672.12022 
L 828.939906 672.604485 
L 828.960312 670.183159 
L 828.972866 671.635955 
L 828.975801 671.635955 
L 829.05869 672.12022 
L 828.993461 670.667424 
L 829.071965 671.151689 
L 829.121805 670.183159 
L 829.089441 672.12022 
L 829.132611 671.151689 
L 829.202559 564.189617 
L 829.223719 672.12022 
L 829.241643 671.635955 
L 829.25503 651.708442 
L 829.285594 672.604485 
L 829.351858 671.151689 
L 829.372791 672.604485 
L 829.396262 670.183159 
L 829.461186 671.635955 
L 829.468641 671.635955 
L 829.54775 670.183159 
L 829.492097 672.604485 
L 829.578002 670.667424 
L 829.630531 669.686787 
L 829.687929 673.100857 
L 829.698207 673.585122 
L 829.801977 671.151689 
L 829.856181 673.100857 
L 829.873345 670.667424 
L 829.91632 672.604485 
L 829.976802 673.585122 
L 830.026531 670.183159 
L 830.114558 672.12022 
L 830.059025 669.686787 
L 830.13589 670.667424 
L 830.141413 670.667424 
L 830.146526 672.604485 
L 830.162602 653.161238 
L 830.169219 653.645503 
L 830.191963 419.793845 
L 830.289524 584.129236 
L 830.295068 584.129236 
L 830.380574 587.531199 
L 830.404148 585.097766 
L 830.456566 582.664334 
L 830.435899 587.034827 
L 830.510365 585.582031 
L 830.515287 587.034827 
L 830.531715 583.632864 
L 830.548421 586.066296 
L 830.553946 564.673882 
L 830.612097 673.100857 
L 830.633643 672.604485 
L 830.639158 672.604485 
L 830.682342 670.667424 
L 830.745076 673.585122 
L 830.778829 670.667424 
L 830.869668 671.151689 
L 830.890307 673.100857 
L 830.92375 670.183159 
L 830.976848 671.151689 
L 830.982707 671.151689 
L 831.077959 673.100857 
L 831.051032 670.183159 
L 831.082947 670.183159 
L 831.109103 584.129236 
L 831.168486 672.604485 
L 831.189309 671.151689 
L 831.256292 670.183159 
L 831.201385 672.12022 
L 831.301707 670.667424 
L 831.312754 670.183159 
L 831.420412 673.100857 
L 831.516355 670.183159 
L 831.532196 671.151689 
L 831.537612 671.151689 
L 831.581488 670.183159 
L 831.586703 672.12022 
L 831.634381 671.635955 
L 831.737725 673.585122 
L 831.699513 670.667424 
L 831.743193 672.604485 
L 831.823745 674.069387 
L 831.854941 670.667424 
L 831.939595 673.100857 
L 831.94989 670.183159 
L 831.993458 564.189617 
L 832.031683 672.12022 
L 832.057901 671.635955 
L 832.063206 671.635955 
L 832.122582 670.183159 
L 832.084101 672.12022 
L 832.17574 671.151689 
L 832.276533 670.183159 
L 832.212673 672.604485 
L 832.282056 671.151689 
L 832.297784 671.151689 
L 832.341371 672.12022 
L 832.356997 669.202522 
L 832.406132 671.151689 
L 832.411376 671.151689 
L 832.502683 670.183159 
L 832.448417 672.604485 
L 832.507844 671.151689 
L 832.513664 672.604485 
L 832.596523 670.183159 
L 832.617983 672.12022 
L 832.627227 672.12022 
L 832.717951 673.585122 
L 832.681165 671.151689 
L 832.728535 671.635955 
L 832.815808 670.667424 
L 832.747133 673.585122 
L 832.836908 671.635955 
L 832.891701 674.069387 
L 832.912706 670.667424 
L 832.946176 671.635955 
L 833.040715 670.183159 
L 832.977924 672.604485 
L 833.061941 670.667424 
L 833.131509 563.221086 
L 833.154372 672.12022 
L 833.172487 670.667424 
L 833.25981 670.183159 
L 833.283626 672.12022 
L 833.345727 670.183159 
L 833.317212 673.100857 
L 833.392354 671.151689 
L 833.409862 673.100857 
L 833.402482 670.667424 
L 833.486869 672.12022 
L 833.494303 669.686787 
L 833.53753 672.604485 
L 833.602382 670.667424 
L 833.709442 673.585122 
L 833.613173 670.183159 
L 833.712459 670.667424 
L 833.763864 673.585122 
L 833.821747 673.100857 
L 833.928961 653.161238 
L 833.939756 580.715166 
L 834.023508 672.12022 
L 834.034034 671.635955 
L 834.078643 670.183159 
L 834.045913 672.12022 
L 834.14414 671.635955 
L 834.147174 671.635955 
L 834.154782 672.604485 
L 834.198485 670.667424 
L 834.25483 671.635955 
L 834.309766 669.686787 
L 834.288263 672.12022 
L 834.353644 671.635955 
L 834.431681 669.686787 
L 834.460163 672.604485 
L 834.495934 669.686787 
L 834.570562 672.12022 
L 834.623762 670.183159 
L 834.620826 672.604485 
L 834.677159 672.12022 
L 834.697898 674.553652 
L 834.727967 671.151689 
L 834.783068 672.12022 
L 834.803178 672.12022 
L 834.806072 673.585122 
L 834.827011 655.59467 
L 834.911433 672.604485 
L 834.995581 660.449429 
L 834.931717 673.100857 
L 835.025539 671.151689 
L 835.028456 672.604485 
L 835.035807 641.006182 
L 835.056607 584.129236 
L 835.141193 672.12022 
L 835.143985 671.151689 
L 835.21514 672.604485 
L 835.16651 670.183159 
L 835.251149 671.635955 
L 835.348737 671.151689 
L 835.261468 673.100857 
L 835.354108 672.12022 
L 835.359117 672.12022 
L 835.42978 670.183159 
L 835.468819 672.12022 
L 835.479246 670.667424 
L 835.500228 672.604485 
L 835.581517 671.151689 
L 835.646235 673.585122 
L 835.705439 672.604485 
L 835.775398 670.667424 
L 835.801087 673.585122 
L 835.806428 672.604485 
L 835.824481 671.635955 
L 835.830044 673.100857 
L 835.90443 573.426975 
L 835.871365 673.585122 
L 835.957167 588.983994 
L 836.010459 673.100857 
L 836.074826 670.667424 
L 836.187616 672.12022 
L 836.144321 670.183159 
L 836.193113 671.635955 
L 836.267245 673.100857 
L 836.308417 670.183159 
L 836.31873 672.604485 
L 836.416687 671.151689 
L 836.421617 671.151689 
L 836.437382 670.183159 
L 836.442413 671.635955 
L 836.527293 671.151689 
L 836.621032 672.12022 
L 836.603181 670.183159 
L 836.637493 671.635955 
L 836.691718 672.12022 
L 836.740024 670.667424 
L 836.834042 672.12022 
L 836.850948 670.667424 
L 836.949194 672.12022 
L 836.954238 671.151689 
L 837.037004 670.183159 
L 836.964783 672.12022 
L 837.065307 671.151689 
L 837.07089 671.151689 
L 837.160201 670.183159 
L 837.082355 672.12022 
L 837.165299 671.635955 
L 837.237103 672.604485 
L 837.215846 670.183159 
L 837.247656 671.635955 
L 837.25292 656.078936 
L 837.319202 672.604485 
L 837.358417 672.12022 
L 837.429016 659.480898 
L 837.450054 673.585122 
L 837.471357 671.151689 
L 837.483047 673.585122 
L 837.581369 672.604485 
L 837.597735 646.841577 
L 837.608528 584.613501 
L 837.689659 674.069387 
L 837.700297 672.12022 
L 837.81378 670.183159 
L 837.712628 673.100857 
L 837.818694 671.151689 
L 837.823982 672.604485 
L 837.862056 670.183159 
L 837.931255 672.12022 
L 837.941808 669.686787 
L 838.043531 670.667424 
L 838.140038 672.604485 
L 838.078146 669.686787 
L 838.152127 672.12022 
L 838.250014 670.183159 
L 838.263827 670.667424 
L 838.315827 673.585122 
L 838.373963 671.635955 
L 838.381808 671.635955 
L 838.435059 673.100857 
L 838.437986 671.151689 
L 838.469166 672.12022 
L 838.479677 567.59158 
L 838.549328 673.100857 
L 838.578287 673.100857 
L 838.677868 670.667424 
L 838.692237 671.151689 
L 838.744447 673.100857 
L 838.776112 670.183159 
L 838.800435 672.12022 
L 838.809692 669.686787 
L 838.900403 672.604485 
L 838.911069 672.12022 
L 839.019006 670.667424 
L 838.96265 672.604485 
L 839.028034 671.151689 
L 839.060452 670.183159 
L 839.13904 672.604485 
L 839.254829 670.183159 
L 839.268406 671.151689 
L 839.329477 672.604485 
L 839.296338 670.183159 
L 839.361513 671.151689 
L 839.364392 649.27501 
L 839.469034 673.585122 
L 839.472323 672.12022 
L 839.567499 673.585122 
L 839.522266 671.151689 
L 839.578133 672.604485 
L 839.588739 633.233725 
L 839.647746 565.158147 
L 839.67992 673.100857 
L 839.692327 672.604485 
L 839.735467 663.367127 
L 839.721541 673.585122 
L 839.81177 671.635955 
L 839.853319 672.604485 
L 839.898706 669.686787 
L 839.921999 671.635955 
L 839.951062 671.635955 
L 839.971918 669.202522 
L 839.982382 672.604485 
L 840.063714 670.667424 
L 840.180071 672.12022 
L 840.213111 656.563201 
L 840.258523 672.604485 
L 840.292756 671.635955 
L 840.303404 671.635955 
L 840.365408 670.183159 
L 840.353895 672.604485 
L 840.407667 672.12022 
L 840.41051 673.585122 
L 840.454603 672.12022 
L 840.521043 563.705352 
L 840.553118 673.100857 
L 840.563704 672.12022 
L 840.597674 669.686787 
L 840.651262 673.585122 
L 840.669973 671.635955 
L 840.680464 669.202522 
L 840.690814 674.553652 
L 840.735143 144.610154 
L 840.802063 605.025278 
L 840.812862 605.025278 
L 840.863074 603.572483 
L 840.8338 605.52165 
L 840.926798 604.056748 
L 840.972448 605.52165 
L 840.95043 602.107581 
L 841.033777 605.025278 
L 841.127957 601.623316 
L 841.082522 605.52165 
L 841.138613 602.107581 
L 841.143608 606.005915 
L 841.159875 601.13905 
L 841.248659 603.088218 
L 841.296666 606.005915 
L 841.302168 582.180068 
L 841.30879 604.056748 
L 841.31508 415.411245 
L 841.341755 691.575574 
L 841.414942 690.110671 
L 841.523975 692.544104 
L 841.436361 689.142141 
L 841.529056 691.575574 
L 841.547223 692.059839 
L 841.578774 671.635955 
L 841.644503 581.695803 
L 841.681647 691.079202 
L 841.757362 686.224443 
L 841.741399 692.059839 
L 841.791237 690.110671 
L 841.801867 690.110671 
L 841.856763 692.059839 
L 841.846227 689.626406 
L 841.916586 691.575574 
L 841.97405 673.100857 
L 842.028591 690.594937 
L 842.033974 690.594937 
L 842.044426 691.575574 
L 842.049408 690.110671 
L 842.09407 691.079202 
L 842.104702 738.246631 
L 842.209068 738.181013 
L 842.339019 738.199003 
L 842.422315 738.167405 
L 842.45231 738.186848 
L 842.733892 738.192199 
L 842.821872 738.174693 
L 842.843546 738.194149 
L 843.022026 738.191715 
L 843.244796 738.196582 
L 843.287825 738.134342 
L 843.359766 738.18588 
L 843.511513 738.192199 
L 843.517001 738.163519 
L 843.619365 738.192199 
L 843.801795 738.189766 
L 844.687467 738.175674 
L 844.800475 738.192199 
L 844.892436 738.165456 
L 844.910438 738.191715 
L 948.771778 738.178592 
L 948.780262 738.640096 
L 948.797681 738.197551 
L 950.604719 738.190747 
L 950.86501 738.192199 
L 950.961168 738.165952 
L 950.985704 738.193664 
L 952.27515 738.188313 
L 952.698641 738.195601 
L 952.956964 738.194633 
L 953.118814 738.195601 
L 953.486563 738.190747 
L 953.609847 738.189282 
L 953.925498 738.192684 
L 954.138217 738.18588 
L 954.150767 738.174209 
L 954.252269 738.193168 
L 954.372069 738.181013 
L 954.380987 738.195601 
L 955.132632 738.194149 
L 955.195074 738.168374 
L 955.237358 738.188313 
L 955.549944 738.192684 
L 956.52802 738.19025 
L 956.540082 738.153797 
L 956.71592 738.189282 
L 956.893354 738.175674 
L 956.899107 738.190747 
L 957.376614 738.189766 
L 957.720223 738.192684 
L 957.86003 738.19025 
L 958.306314 738.192199 
L 980.609868 738.197551 
L 980.613607 738.72 
L 980.716846 738.182478 
L 980.720405 738.190747 
L 980.852255 738.191231 
L 981.087139 738.192684 
L 981.440509 738.191715 
L 981.75099 738.193664 
L 982.161443 738.194149 
L 983.37968 738.195601 
L 983.489366 738.170807 
L 983.495946 738.189282 
L 983.810191 738.192684 
L 983.868596 738.172756 
L 983.922825 738.19025 
L 984.088509 738.193664 
L 984.234268 738.195117 
L 984.543709 738.190747 
L 984.667944 738.165952 
L 984.760472 738.199003 
L 984.773177 738.194633 
L 984.806372 738.156715 
L 984.883851 738.187829 
L 985.184899 738.194149 
L 985.294692 738.179076 
L 985.41354 738.190747 
L 985.590399 738.194149 
L 986.031145 738.194633 
L 986.118666 738.164972 
L 986.149668 738.191715 
L 987.204937 738.188313 
L 987.461314 738.191715 
L 987.604743 738.173725 
L 987.709027 738.191231 
L 987.648317 738.166921 
L 987.713299 738.187829 
L 988.765941 738.156715 
L 988.870275 738.199984 
L 988.873948 738.193664 
L 991.382392 738.194633 
L 991.894026 738.192684 
L 992.392801 738.193664 
L 994.495808 738.194149 
L 994.630991 738.188797 
L 995.46822 738.189282 
L 995.530803 738.156218 
L 995.583196 738.193168 
L 995.760188 738.189282 
L 995.887721 738.193168 
L 995.999503 738.188797 
L 996.211509 738.193168 
L 996.218182 738.191231 
L 996.218182 738.191231 
" style="fill:none;stroke:#1f77b4;stroke-linecap:square;stroke-width:1.5;"/>
   </g>
   <g id="patch_3">
    <path d="M 144 768.96 
L 144 103.68 
" style="fill:none;stroke:#000000;stroke-linecap:square;stroke-linejoin:miter;stroke-width:0.8;"/>
   </g>
   <g id="patch_4">
    <path d="M 1036.8 768.96 
L 1036.8 103.68 
" style="fill:none;stroke:#000000;stroke-linecap:square;stroke-linejoin:miter;stroke-width:0.8;"/>
   </g>
   <g id="patch_5">
    <path d="M 144 768.96 
L 1036.8 768.96 
" style="fill:none;stroke:#000000;stroke-linecap:square;stroke-linejoin:miter;stroke-width:0.8;"/>
   </g>
   <g id="patch_6">
    <path d="M 144 103.68 
L 1036.8 103.68 
" style="fill:none;stroke:#000000;stroke-linecap:square;stroke-linejoin:miter;stroke-width:0.8;"/>
   </g>
  </g>
 </g>
 <defs>
  <clipPath id="p9c3c56309e">
   <rect height="665.28" width="892.8" x="144" y="103.68"/>
  </clipPath>
 </defs>
</svg>
